Mirza-Bold.ufo
<glyph name="uni0600" format="1">
  <advance width="499"/>
  <unicode hex="0600"/>
  <outline>
    <contour>
      <point x="669" y="-61" type="line"/>
      <point x="620" y="-40"/>
      <point x="600" y="-11"/>
      <point x="593" y="14" type="curve"/>
      <point x="607" y="22"/>
      <point x="643" y="38"/>
      <point x="688" y="38" type="curve" smooth="yes"/>
      <point x="724" y="38"/>
      <point x="746" y="33"/>
      <point x="779" y="16" type="curve"/>
      <point x="820" y="55" type="line"/>
      <point x="778" y="112"/>
      <point x="739" y="145"/>
      <point x="675" y="145" type="curve" smooth="yes"/>
      <point x="641" y="145"/>
      <point x="599" y="125"/>
      <point x="564" y="92" type="curve" smooth="yes"/>
      <point x="526" y="57"/>
      <point x="505" y="19"/>
      <point x="505" y="-18" type="curve" smooth="yes"/>
      <point x="505" y="-30"/>
      <point x="513" y="-48"/>
      <point x="528" y="-59" type="curve"/>
      <point x="-28" y="-59" type="line"/>
      <point x="-93" y="-59"/>
      <point x="-166" y="-50"/>
      <point x="-200" y="-44" type="curve"/>
      <point x="-176" y="-104"/>
      <point x="-132" y="-160"/>
      <point x="-78" y="-201" type="curve"/>
      <point x="-60" y="-200"/>
      <point x="-43" y="-198"/>
      <point x="-24" y="-198" type="curve"/>
      <point x="797" y="-198" type="line"/>
      <point x="821" y="-154"/>
      <point x="839" y="-109"/>
      <point x="849" y="-60" type="curve"/>
    </contour>
  </outline>
</glyph>
<glyph name="uni062D" format="1">
  <advance width="611"/>
  <unicode hex="062D"/>
  <outline>
    <contour>
      <point x="545" y="312"/>
      <point x="523" y="311"/>
      <point x="502" y="311" type="curve" smooth="yes"/>
      <point x="392" y="311"/>
      <point x="335" y="330"/>
      <point x="290" y="344" type="curve" smooth="yes"/>
      <point x="250" y="356"/>
      <point x="224" y="360"/>
      <point x="210" y="360" type="curve" smooth="yes"/>
      <point x="164" y="360"/>
      <point x="135" y="340"/>
      <point x="104" y="283" type="curve" smooth="yes"/>
      <point x="90" y="258"/>
      <point x="79" y="231"/>
      <point x="79" y="231" type="curve"/>
      <point x="114" y="202" type="line"/>
      <point x="136" y="237"/>
      <point x="154" y="249"/>
      <point x="199" y="249" type="curve" smooth="yes"/>
      <point x="222" y="249"/>
      <point x="241" y="246"/>
      <point x="265" y="239" type="curve"/>
      <point x="236" y="225"/>
      <point x="208" y="207"/>
      <point x="182" y="185" type="curve" smooth="yes"/>
      <point x="151" y="158"/>
      <point x="124" y="124"/>
      <point x="103" y="86" type="curve" smooth="yes"/>
      <point x="79" y="42"/>
      <point x="64" y="-9"/>
      <point x="61" y="-65" type="curve" smooth="yes"/>
      <point x="57" y="-136"/>
      <point x="76" y="-210"/>
      <point x="120" y="-259" type="curve" smooth="yes"/>
      <point x="165" y="-309"/>
      <point x="228" y="-336"/>
      <point x="300" y="-336" type="curve" smooth="yes"/>
      <point x="351" y="-336"/>
      <point x="378" y="-322"/>
      <point x="404" y="-308" type="curve" smooth="yes"/>
      <point x="429" y="-295"/>
      <point x="462" y="-280"/>
      <point x="504" y="-282" type="curve"/>
      <point x="521" y="-229" type="line"/>
      <point x="479" y="-221"/>
      <point x="440" y="-219"/>
      <point x="414" y="-218" type="curve" smooth="yes"/>
      <point x="407" y="-218"/>
      <point x="357" y="-215"/>
      <point x="317" y="-208" type="curve" smooth="yes"/>
      <point x="257" y="-197"/>
      <point x="216" y="-174"/>
      <point x="190" y="-146" type="curve" smooth="yes"/>
      <point x="154" y="-107"/>
      <point x="145" y="-58"/>
      <point x="150" y="-14" type="curve" smooth="yes"/>
      <point x="157" y="58"/>
      <point x="194" y="110"/>
      <point x="247" y="145" type="curve" smooth="yes"/>
      <point x="317" y="191"/>
      <point x="418" y="207"/>
      <point x="522" y="195" type="curve"/>
      <point x="540" y="234"/>
      <point x="550" y="274"/>
      <point x="561" y="313" type="curve"/>
    </contour>
    <contour>
      <point x="329" y="0" type="move" name="center"/>
    </contour>
    <contour>
      <point x="300" y="-366" type="move" name="bottom"/>
    </contour>
    <contour>
      <point x="260" y="390" type="move" name="top"/>
    </contour>
  </outline>
</glyph>
<glyph name="uni0631" format="1">
  <advance width="346"/>
  <unicode hex="0631"/>
  <outline>
    <contour>
      <point x="185" y="255"/>
      <point x="161" y="219"/>
      <point x="138" y="181" type="curve"/>
      <point x="138" y="181"/>
      <point x="158" y="168"/>
      <point x="183" y="137" type="curve" smooth="yes"/>
      <point x="201" y="115"/>
      <point x="218" y="87"/>
      <point x="218" y="54" type="curve" smooth="yes"/>
      <point x="218" y="-6"/>
      <point x="164" y="-42"/>
      <point x="90" y="-84" type="curve" smooth="yes"/>
      <point x="65" y="-98"/>
      <point x="25" y="-120"/>
      <point x="-16" y="-142" type="curve" smooth="yes"/>
      <point x="-55" y="-163"/>
      <point x="-60" y="-165"/>
      <point x="-60" y="-165" type="curve"/>
      <point x="-30" y="-208" type="line"/>
      <point x="-5" y="-200"/>
      <point x="28" y="-197"/>
      <point x="49" y="-197" type="curve" smooth="yes"/>
      <point x="70" y="-197"/>
      <point x="78" y="-200"/>
      <point x="101" y="-200" type="curve" smooth="yes"/>
      <point x="139" y="-200"/>
      <point x="167" y="-192"/>
      <point x="192" y="-175" type="curve" smooth="yes"/>
      <point x="214" y="-160"/>
      <point x="234" y="-136"/>
      <point x="249" y="-110" type="curve" smooth="yes"/>
      <point x="285" y="-48"/>
      <point x="296" y="29"/>
      <point x="296" y="81" type="curve" smooth="yes"/>
      <point x="296" y="162"/>
      <point x="270" y="216"/>
      <point x="244" y="252" type="curve" smooth="yes"/>
      <point x="226" y="277"/>
      <point x="212" y="288"/>
      <point x="212" y="288" type="curve"/>
    </contour>
    <contour>
      <point x="172" y="318" type="move" name="top"/>
    </contour>
    <contour>
      <point x="71" y="-230" type="move" name="bottom"/>
    </contour>
    <contour>
      <point x="76" y="43" type="move" name="center"/>
    </contour>
  </outline>
</glyph>
<glyph name="uni0639" format="1">
  <advance width="522"/>
  <unicode hex="0639"/>
  <outline>
    <contour>
      <point x="379" y="248"/>
      <point x="298" y="221"/>
      <point x="263" y="206" type="curve"/>
      <point x="207" y="219"/>
      <point x="191" y="242"/>
      <point x="180" y="260" type="curve"/>
      <point x="195" y="273"/>
      <point x="219" y="293"/>
      <point x="255" y="303" type="curve" smooth="yes"/>
      <point x="297" y="314"/>
      <point x="321" y="310"/>
      <point x="361" y="299" type="curve"/>
      <point x="396" y="344" type="line"/>
      <point x="361" y="376"/>
      <point x="311" y="403"/>
      <point x="259" y="403" type="curve" smooth="yes"/>
      <point x="205" y="403"/>
      <point x="160" y="366"/>
      <point x="135" y="331" type="curve" smooth="yes"/>
      <point x="109" y="293"/>
      <point x="98" y="251"/>
      <point x="106" y="216" type="curve" smooth="yes"/>
      <point x="112" y="188"/>
      <point x="135" y="158"/>
      <point x="165" y="136" type="curve"/>
      <point x="134" y="108"/>
      <point x="74" y="43"/>
      <point x="62" y="-89" type="curve" smooth="yes"/>
      <point x="54" y="-180"/>
      <point x="77" y="-246"/>
      <point x="121" y="-295" type="curve" smooth="yes"/>
      <point x="166" y="-345"/>
      <point x="229" y="-372"/>
      <point x="301" y="-372" type="curve" smooth="yes"/>
      <point x="352" y="-372"/>
      <point x="379" y="-358"/>
      <point x="405" y="-344" type="curve" smooth="yes"/>
      <point x="430" y="-331"/>
      <point x="463" y="-316"/>
      <point x="505" y="-318" type="curve"/>
      <point x="522" y="-265" type="line"/>
      <point x="480" y="-257"/>
      <point x="441" y="-255"/>
      <point x="415" y="-254" type="curve"/>
      <point x="408" y="-254"/>
      <point x="358" y="-251"/>
      <point x="318" y="-244" type="curve" smooth="yes"/>
      <point x="261" y="-234"/>
      <point x="214" y="-215"/>
      <point x="184" y="-179" type="curve" smooth="yes"/>
      <point x="160" y="-150"/>
      <point x="146" y="-95"/>
      <point x="151" y="-54" type="curve" smooth="yes"/>
      <point x="158" y="4"/>
      <point x="187" y="46"/>
      <point x="230" y="78" type="curve" smooth="yes"/>
      <point x="279" y="114"/>
      <point x="346" y="138"/>
      <point x="422" y="159" type="curve"/>
      <point x="436" y="196"/>
      <point x="444" y="229"/>
      <point x="452" y="270" type="curve"/>
    </contour>
    <contour>
      <point x="259" y="433" type="move" name="top"/>
    </contour>
    <contour>
      <point x="301" y="-402" type="move" name="bottom"/>
    </contour>
  </outline>
</glyph>
<glyph name="uni0648" format="1">
  <advance width="339"/>
  <unicode hex="0648"/>
  <outline>
    <contour>
      <point x="254" y="324"/>
      <point x="224" y="371"/>
      <point x="166" y="371" type="curve" smooth="yes"/>
      <point x="135" y="371"/>
      <point x="106" y="348"/>
      <point x="84" y="315" type="curve" smooth="yes"/>
      <point x="63" y="283"/>
      <point x="49" y="240"/>
      <point x="49" y="199" type="curve" smooth="yes"/>
      <point x="49" y="171"/>
      <point x="52" y="130"/>
      <point x="81" y="103" type="curve" smooth="yes"/>
      <point x="98" y="87"/>
      <point x="125" y="76"/>
      <point x="166" y="76" type="curve" smooth="yes"/>
      <point x="188" y="76"/>
      <point x="204" y="81"/>
      <point x="215" y="86" type="curve"/>
      <point x="213" y="56"/>
      <point x="198" y="26"/>
      <point x="176" y="-2" type="curve" smooth="yes"/>
      <point x="152" y="-34"/>
      <point x="117" y="-61"/>
      <point x="80" y="-84" type="curve" smooth="yes"/>
      <point x="13" y="-126"/>
      <point x="-56" y="-159"/>
      <point x="-70" y="-165" type="curve"/>
      <point x="-40" y="-208" type="line"/>
      <point x="-21" y="-202"/>
      <point x="18" y="-197"/>
      <point x="42" y="-197" type="curve" smooth="yes"/>
      <point x="56" y="-197"/>
      <point x="75" y="-200"/>
      <point x="88" y="-200" type="curve" smooth="yes"/>
      <point x="130" y="-200"/>
      <point x="157" y="-192"/>
      <point x="182" y="-175" type="curve" smooth="yes"/>
      <point x="205" y="-159"/>
      <point x="230" y="-133"/>
      <point x="250" y="-92" type="curve" smooth="yes"/>
      <point x="262" y="-67"/>
      <point x="272" y="-38"/>
      <point x="279" y="-2" type="curve" smooth="yes"/>
      <point x="285" y="30"/>
      <point x="289" y="67"/>
      <point x="289" y="110" type="curve" smooth="yes"/>
      <point x="289" y="146"/>
      <point x="287" y="211"/>
      <point x="271" y="267" type="curve" smooth="yes"/>
    </contour>
    <contour>
      <point x="205" y="227"/>
      <point x="209" y="205"/>
      <point x="209" y="205" type="curve"/>
      <point x="202" y="201"/>
      <point x="186" y="190"/>
      <point x="161" y="190" type="curve" smooth="yes"/>
      <point x="104" y="190"/>
      <point x="101" y="208"/>
      <point x="101" y="230" type="curve" smooth="yes"/>
      <point x="101" y="245"/>
      <point x="114" y="273"/>
      <point x="149" y="273" type="curve" smooth="yes"/>
      <point x="167" y="273"/>
      <point x="182" y="260"/>
      <point x="191" y="247" type="curve" smooth="yes"/>
    </contour>
    <contour>
      <point x="166" y="401" type="move" name="top"/>
    </contour>
    <contour>
      <point x="68" y="-230" type="move" name="bottom"/>
    </contour>
  </outline>
</glyph>
<glyph name="uni064C" format="1">
  <advance width="0"/>
  <unicode hex="064C"/>
  <outline>
    <contour>
      <point x="69" y="789" type="line"/>
      <point x="83" y="821"/>
      <point x="94" y="864"/>
      <point x="62" y="880" type="curve"/>
      <point x="40" y="892"/>
      <point x="13" y="886"/>
      <point x="-12" y="857" type="curve" smooth="yes"/>
      <point x="-24" y="843"/>
      <point x="-25" y="826"/>
      <point x="-20" y="811" type="curve" smooth="yes"/>
      <point x="-15" y="796"/>
      <point x="1" y="781"/>
      <point x="17" y="775" type="curve"/>
      <point x="4" y="760"/>
      <point x="-15" y="750"/>
      <point x="-37" y="745" type="curve"/>
      <point x="-25" y="770"/>
      <point x="-46" y="805"/>
      <point x="-63" y="803" type="curve" smooth="yes"/>
      <point x="-69" y="802"/>
      <point x="-80" y="798"/>
      <point x="-91" y="791" type="curve"/>
      <point x="-97" y="781"/>
      <point x="-97" y="778"/>
      <point x="-98" y="767" type="curve"/>
      <point x="-89" y="773"/>
      <point x="-68" y="782"/>
      <point x="-57" y="770" type="curve" smooth="yes"/>
      <point x="-51" y="764"/>
      <point x="-53" y="751"/>
      <point x="-61" y="742" type="curve"/>
      <point x="-66" y="742"/>
      <point x="-72" y="742"/>
      <point x="-78" y="743" type="curve"/>
      <point x="-88" y="727"/>
      <point x="-91" y="720"/>
      <point x="-98" y="701" type="curve"/>
      <point x="-66" y="700"/>
      <point x="-35" y="702"/>
      <point x="-8" y="711" type="curve" smooth="yes"/>
      <point x="16" y="720"/>
      <point x="36" y="733"/>
      <point x="48" y="755" type="curve"/>
      <point x="83" y="741" type="line"/>
      <point x="84" y="764"/>
      <point x="84" y="766"/>
      <point x="83" y="783" type="curve"/>
    </contour>
    <contour>
      <point x="25" y="811" type="line" smooth="yes"/>
      <point x="12" y="817"/>
      <point x="6" y="826"/>
      <point x="6" y="832" type="curve"/>
      <point x="5" y="838"/>
      <point x="10" y="847"/>
      <point x="21" y="850" type="curve" smooth="yes"/>
      <point x="33" y="852"/>
      <point x="41" y="848"/>
      <point x="45" y="840" type="curve" smooth="yes"/>
      <point x="51" y="831"/>
      <point x="50" y="816"/>
      <point x="43" y="802" type="curve"/>
    </contour>
    <contour>
      <point x="-7" y="885" type="move" name="top"/>
    </contour>
    <contour>
      <point x="-7" y="671" type="move" name="_top"/>
    </contour>
  </outline>
</glyph>
<glyph name="uni0652" format="1">
  <advance width="0"/>
  <unicode hex="0652"/>
  <outline>
    <contour>
      <point x="-32" y="824"/>
      <point x="-56" y="796"/>
      <point x="-56" y="756" type="curve" smooth="yes"/>
      <point x="-56" y="740"/>
      <point x="-46" y="700"/>
      <point x="0" y="700" type="curve" smooth="yes"/>
      <point x="25" y="700"/>
      <point x="42" y="709"/>
      <point x="51" y="724" type="curve" smooth="yes"/>
      <point x="59" y="738"/>
      <point x="60" y="754"/>
      <point x="60" y="764" type="curve" smooth="yes"/>
      <point x="60" y="800"/>
      <point x="35" y="831"/>
      <point x="-8" y="848" type="curve"/>
    </contour>
    <contour>
      <point x="16" y="789"/>
      <point x="36" y="777"/>
      <point x="36" y="763" type="curve" smooth="yes"/>
      <point x="36" y="746"/>
      <point x="18" y="746"/>
      <point x="13" y="746" type="curve" smooth="yes"/>
      <point x="-10" y="746"/>
      <point x="-29" y="760"/>
      <point x="-29" y="774" type="curve" smooth="yes"/>
      <point x="-29" y="785"/>
      <point x="-21" y="796"/>
      <point x="-16" y="803" type="curve"/>
    </contour>
    <contour>
      <point x="2" y="848" type="move" name="top"/>
    </contour>
    <contour>
      <point x="2" y="666" type="move" name="_top"/>
    </contour>
  </outline>
</glyph>
<glyph name="uni0653" format="1">
  <advance width="0"/>
  <unicode hex="0653"/>
  <outline>
    <contour>
      <point x="175" y="814"/>
      <point x="111" y="778"/>
      <point x="50" y="778" type="curve" smooth="yes"/>
      <point x="17" y="778"/>
      <point x="-18" y="788"/>
      <point x="-41" y="795" type="curve" smooth="yes"/>
      <point x="-64" y="802"/>
      <point x="-85" y="808"/>
      <point x="-103" y="808" type="curve" smooth="yes"/>
      <point x="-177" y="808"/>
      <point x="-189" y="710"/>
      <point x="-189" y="710" type="curve"/>
      <point x="-185" y="699"/>
      <point x="-164" y="685"/>
      <point x="-159" y="682" type="curve"/>
      <point x="-159" y="682"/>
      <point x="-142" y="718"/>
      <point x="-110" y="718" type="curve" smooth="yes"/>
      <point x="-101" y="718"/>
      <point x="-90" y="716"/>
      <point x="-77" y="712" type="curve" smooth="yes"/>
      <point x="-59" y="708"/>
      <point x="-35" y="702"/>
      <point x="-4" y="702" type="curve" smooth="yes"/>
      <point x="51" y="702"/>
      <point x="92" y="720"/>
      <point x="117" y="735" type="curve" smooth="yes"/>
      <point x="145" y="751"/>
      <point x="157" y="766"/>
      <point x="160" y="769" type="curve" smooth="yes"/>
      <point x="163" y="772"/>
      <point x="173" y="798"/>
      <point x="175" y="814" type="curve"/>
    </contour>
    <contour>
      <point x="-7" y="814" type="move" name="top"/>
    </contour>
    <contour>
      <point x="-7" y="800" type="move" name="_top"/>
    </contour>
  </outline>
</glyph>
<glyph name="uni0656" format="1">
  <advance width="0"/>
  <unicode hex="0656"/>
  <outline>
    <contour>
      <point x="31" y="-284"/>
      <point x="28" y="-238"/>
      <point x="7" y="-200" type="curve"/>
      <point x="-9" y="-210"/>
      <point x="-17" y="-218"/>
      <point x="-32" y="-232" type="curve"/>
      <point x="-14" y="-260"/>
      <point x="-3" y="-291"/>
      <point x="-6" y="-341" type="curve"/>
      <point x="23" y="-331" type="line"/>
    </contour>
    <contour>
      <point x="-2" y="-180" type="move" name="_bottom"/>
    </contour>
    <contour>
      <point x="-2" y="-341" type="move" name="bottom"/>
    </contour>
  </outline>
</glyph>
<glyph name="uni0658" format="1">
  <advance width="0"/>
  <unicode hex="0658"/>
  <outline>
    <contour>
      <point x="48" y="854"/>
      <point x="40" y="843"/>
      <point x="33" y="831" type="curve"/>
      <point x="49" y="809"/>
      <point x="63" y="790"/>
      <point x="63" y="780" type="curve" smooth="yes"/>
      <point x="63" y="773"/>
      <point x="58" y="766"/>
      <point x="48" y="761" type="curve" smooth="yes"/>
      <point x="36" y="755"/>
      <point x="20" y="750"/>
      <point x="2" y="750" type="curve" smooth="yes"/>
      <point x="-21" y="750"/>
      <point x="-38" y="756"/>
      <point x="-47" y="768" type="curve" smooth="yes"/>
      <point x="-55" y="778"/>
      <point x="-56" y="795"/>
      <point x="-52" y="812" type="curve"/>
      <point x="-66" y="817" type="line"/>
      <point x="-73" y="804"/>
      <point x="-78" y="784"/>
      <point x="-79" y="771" type="curve" smooth="yes"/>
      <point x="-79" y="760"/>
      <point x="-78" y="748"/>
      <point x="-75" y="739" type="curve" smooth="yes"/>
      <point x="-69" y="725"/>
      <point x="-58" y="715"/>
      <point x="-44" y="708" type="curve" smooth="yes"/>
      <point x="-33" y="703"/>
      <point x="-18" y="700"/>
      <point x="-1" y="700" type="curve" smooth="yes"/>
      <point x="12" y="700"/>
      <point x="24" y="701"/>
      <point x="34" y="705" type="curve" smooth="yes"/>
      <point x="46" y="708"/>
      <point x="55" y="714"/>
      <point x="62" y="722" type="curve" smooth="yes"/>
      <point x="70" y="728"/>
      <point x="87" y="746"/>
      <point x="87" y="785" type="curve" smooth="yes"/>
      <point x="87" y="804"/>
      <point x="83" y="820"/>
      <point x="77" y="836" type="curve" smooth="yes"/>
      <point x="69" y="855"/>
      <point x="57" y="864"/>
      <point x="57" y="864" type="curve"/>
    </contour>
    <contour>
      <point x="4" y="864" type="move" name="top"/>
    </contour>
    <contour>
      <point x="4" y="680" type="move" name="_top"/>
    </contour>
  </outline>
</glyph>
<glyph name="uni0666" format="1">
  <advance width="443"/>
  <unicode hex="0666"/>
  <outline>
    <contour>
      <point x="336" y="165"/>
      <point x="315" y="226"/>
      <point x="320" y="346" type="curve" smooth="yes"/>
      <point x="320" y="346"/>
      <point x="324" y="437"/>
      <point x="327" y="518" type="curve"/>
      <point x="305" y="530" type="line"/>
      <point x="266" y="509"/>
      <point x="229" y="498"/>
      <point x="189" y="498" type="curve" smooth="yes"/>
      <point x="131" y="498"/>
      <point x="97" y="522"/>
      <point x="102" y="580" type="curve"/>
      <point x="52" y="561" type="line"/>
      <point x="47" y="505"/>
      <point x="53" y="453"/>
      <point x="79" y="424" type="curve" smooth="yes"/>
      <point x="106" y="394"/>
      <point x="142" y="380"/>
      <point x="181" y="380" type="curve"/>
      <point x="206" y="380"/>
      <point x="215" y="382"/>
      <point x="240" y="389" type="curve"/>
      <point x="240" y="234" type="line"/>
      <point x="240" y="176"/>
      <point x="255" y="134"/>
      <point x="272" y="98" type="curve" smooth="yes"/>
      <point x="295" y="49"/>
      <point x="324" y="29"/>
      <point x="383" y="0" type="curve"/>
      <point x="396" y="50"/>
      <point x="403" y="86"/>
      <point x="403" y="140" type="curve"/>
    </contour>
  </outline>
</glyph>
<glyph name="uni0670" format="1">
  <advance width="0"/>
  <unicode hex="0670"/>
  <outline>
    <contour>
      <point x="22" y="759"/>
      <point x="20" y="797"/>
      <point x="2" y="829" type="curve"/>
      <point x="-11" y="821"/>
      <point x="-17" y="814"/>
      <point x="-30" y="802" type="curve"/>
      <point x="-15" y="779"/>
      <point x="-6" y="754"/>
      <point x="-8" y="712" type="curve"/>
      <point x="16" y="721" type="line"/>
    </contour>
    <contour>
      <point x="-5" y="829" type="move" name="top"/>
    </contour>
    <contour>
      <point x="-5" y="692" type="move" name="_top"/>
    </contour>
  </outline>
</glyph>
<glyph name="uni06D8" format="1">
  <advance width="0"/>
  <unicode hex="06D8"/>
  <outline>
    <contour>
      <point x="68" y="794"/>
      <point x="65" y="800"/>
      <point x="63" y="805" type="curve" smooth="yes"/>
      <point x="57" y="813"/>
      <point x="49" y="821"/>
      <point x="39" y="821" type="curve" smooth="yes"/>
      <point x="27" y="821"/>
      <point x="22" y="809"/>
      <point x="22" y="809" type="curve"/>
      <point x="39" y="800"/>
      <point x="53" y="794"/>
      <point x="69" y="789" type="curve"/>
    </contour>
    <contour>
      <point x="45" y="754"/>
      <point x="29" y="758"/>
      <point x="10" y="769" type="curve"/>
      <point x="5" y="742"/>
      <point x="-7" y="721"/>
      <point x="-24" y="710" type="curve" smooth="yes"/>
      <point x="-32" y="705"/>
      <point x="-38" y="702"/>
      <point x="-51" y="702" type="curve" smooth="yes"/>
      <point x="-59" y="702"/>
      <point x="-62" y="703"/>
      <point x="-69" y="703" type="curve" smooth="yes"/>
      <point x="-76" y="703"/>
      <point x="-87" y="702"/>
      <point x="-95" y="699" type="curve"/>
      <point x="-105" y="714" type="line"/>
      <point x="-78" y="729"/>
      <point x="-71" y="732"/>
      <point x="-55" y="741" type="curve" smooth="yes"/>
      <point x="-15" y="763"/>
      <point x="-7" y="783"/>
      <point x="5" y="820" type="curve"/>
      <point x="10" y="816" type="line"/>
      <point x="13" y="823"/>
      <point x="17" y="830"/>
      <point x="21" y="835" type="curve"/>
      <point x="29" y="845"/>
      <point x="39" y="850"/>
      <point x="50" y="850" type="curve" smooth="yes"/>
      <point x="59" y="850"/>
      <point x="68" y="846"/>
      <point x="74" y="838" type="curve" smooth="yes"/>
      <point x="79" y="832"/>
      <point x="82" y="823"/>
      <point x="84" y="814" type="curve" smooth="yes"/>
      <point x="87" y="801"/>
      <point x="86" y="787"/>
      <point x="83" y="776" type="curve"/>
      <point x="69" y="752" type="line"/>
    </contour>
    <contour>
      <point x="-10" y="850" type="move" name="top"/>
    </contour>
    <contour>
      <point x="-10" y="679" type="move" name="_top"/>
    </contour>
  </outline>
</glyph>
<glyph name="uni06D9" format="1">
  <advance width="0"/>
  <unicode hex="06D9"/>
  <outline>
    <contour>
      <point x="27" y="747"/>
      <point x="25" y="752"/>
      <point x="19" y="760" type="curve"/>
      <point x="9" y="750"/>
      <point x="-1" y="745"/>
      <point x="-8" y="739" type="curve"/>
      <point x="3" y="741"/>
      <point x="15" y="741"/>
      <point x="30" y="743" type="curve"/>
    </contour>
    <contour>
      <point x="63" y="832" type="line"/>
      <point x="57" y="836" type="line"/>
      <point x="55" y="813"/>
      <point x="49" y="794"/>
      <point x="38" y="777" type="curve"/>
      <point x="49" y="758"/>
      <point x="53" y="744"/>
      <point x="51" y="731" type="curve"/>
      <point x="51" y="729"/>
      <point x="49" y="715"/>
      <point x="49" y="709" type="curve"/>
      <point x="24" y="702"/>
      <point x="-7" y="700"/>
      <point x="-41" y="700" type="curve"/>
      <point x="-41" y="717"/>
      <point x="-41" y="730"/>
      <point x="-39" y="746" type="curve"/>
      <point x="-30" y="748" type="line"/>
      <point x="-15" y="749"/>
      <point x="4" y="770"/>
      <point x="8" y="775" type="curve"/>
      <point x="-2" y="791"/>
      <point x="-17" y="811"/>
      <point x="-40" y="832" type="curve"/>
      <point x="-44" y="826" type="line"/>
      <point x="-52" y="831"/>
      <point x="-66" y="841"/>
      <point x="-76" y="849" type="curve"/>
      <point x="-74" y="863"/>
      <point x="-72" y="875"/>
      <point x="-69" y="881" type="curve" smooth="yes"/>
      <point x="-67" y="887"/>
      <point x="-63" y="888"/>
      <point x="-61" y="888" type="curve" smooth="yes"/>
      <point x="-58" y="888"/>
      <point x="-53" y="887"/>
      <point x="-42" y="877" type="curve" smooth="yes"/>
      <point x="-34" y="871"/>
      <point x="-26" y="862"/>
      <point x="-17" y="852" type="curve" smooth="yes"/>
      <point x="-2" y="835"/>
      <point x="13" y="817"/>
      <point x="22" y="804" type="curve"/>
      <point x="26" y="818"/>
      <point x="28" y="831"/>
      <point x="27" y="842" type="curve" smooth="yes"/>
      <point x="27" y="856"/>
      <point x="24" y="869"/>
      <point x="21" y="879" type="curve"/>
      <point x="32" y="887"/>
      <point x="40" y="895"/>
      <point x="48" y="905" type="curve"/>
      <point x="54" y="885"/>
      <point x="62" y="870"/>
      <point x="76" y="862" type="curve"/>
    </contour>
    <contour>
      <point x="0" y="905" type="move" name="top"/>
    </contour>
    <contour>
      <point x="0" y="680" type="move" name="_top"/>
    </contour>
  </outline>
</glyph>
<glyph name="uni06DB" format="1">
  <advance width="0"/>
  <unicode hex="06DB"/>
  <outline>
    <contour>
      <point x="-42" y="722"/>
      <point x="-31" y="710"/>
      <point x="-24" y="701" type="curve"/>
      <point x="-15" y="707"/>
      <point x="-4" y="719"/>
      <point x="2" y="726" type="curve"/>
      <point x="12" y="718"/>
      <point x="20" y="708"/>
      <point x="26" y="701" type="curve"/>
      <point x="36" y="708"/>
      <point x="50" y="724"/>
      <point x="54" y="729" type="curve"/>
      <point x="49" y="740"/>
      <point x="37" y="753"/>
      <point x="24" y="760" type="curve"/>
      <point x="20" y="755"/>
      <point x="9" y="744"/>
      <point x="0" y="736" type="curve"/>
      <point x="-6" y="745"/>
      <point x="-16" y="754"/>
      <point x="-26" y="760" type="curve"/>
      <point x="-31" y="754"/>
      <point x="-47" y="738"/>
      <point x="-55" y="731" type="curve"/>
    </contour>
    <contour>
      <point x="-18" y="772"/>
      <point x="-7" y="760"/>
      <point x="0" y="751" type="curve"/>
      <point x="10" y="758"/>
      <point x="24" y="774"/>
      <point x="28" y="779" type="curve"/>
      <point x="23" y="790"/>
      <point x="11" y="803"/>
      <point x="-2" y="810" type="curve"/>
      <point x="-7" y="804"/>
      <point x="-23" y="788"/>
      <point x="-31" y="781" type="curve"/>
    </contour>
    <contour>
      <point x="-1" y="810" type="move" name="top"/>
    </contour>
    <contour>
      <point x="-1" y="681" type="move" name="_top"/>
    </contour>
  </outline>
</glyph>
<glyph name="uni06F3" format="1">
  <advance width="516"/>
  <unicode hex="06F3"/>
  <outline>
    <contour>
      <point x="424" y="551" type="line"/>
      <point x="424" y="506"/>
      <point x="414" y="473"/>
      <point x="377" y="473" type="curve" smooth="yes"/>
      <point x="333" y="473"/>
      <point x="323" y="511"/>
      <point x="328" y="570" type="curve"/>
      <point x="277" y="552" type="line"/>
      <point x="281" y="506"/>
      <point x="268" y="479"/>
      <point x="231" y="479" type="curve" smooth="yes"/>
      <point x="170" y="479"/>
      <point x="133" y="563"/>
      <point x="122" y="580" type="curve"/>
      <point x="87" y="538"/>
      <point x="71" y="512"/>
      <point x="50" y="468" type="curve"/>
      <point x="82" y="412"/>
      <point x="106" y="352"/>
      <point x="122" y="288" type="curve" smooth="yes"/>
      <point x="146" y="194"/>
      <point x="154" y="103"/>
      <point x="148" y="0" type="curve"/>
      <point x="204" y="0" type="line"/>
      <point x="221" y="74"/>
      <point x="232" y="137"/>
      <point x="234" y="197" type="curve" smooth="yes"/>
      <point x="236" y="249"/>
      <point x="232" y="295"/>
      <point x="222" y="346" type="curve"/>
      <point x="243" y="348"/>
      <point x="274" y="355"/>
      <point x="298" y="379" type="curve"/>
      <point x="318" y="366"/>
      <point x="339" y="362"/>
      <point x="361" y="362" type="curve" smooth="yes"/>
      <point x="396" y="364"/>
      <point x="424" y="376"/>
      <point x="443" y="400" type="curve" smooth="yes"/>
      <point x="474" y="438"/>
      <point x="482" y="499"/>
      <point x="472" y="570" type="curve"/>
    </contour>
  </outline>
</glyph>
<glyph name="uni075A" format="1">
  <advance width="453"/>
  <unicode hex="075A"/>
  <outline>
    <component base="uni062F"/>
    <component base="circumflex.below" xOffset="202" yOffset="137"/>
    <contour>
      <point x="217" y="-280" type="move" name="bottom"/>
    </contour>
  </outline>
</glyph>
<glyph name="uni08F0" format="1">
  <advance width="0"/>
  <unicode hex="08F0"/>
  <outline>
    <contour>
      <point x="22" y="803"/>
      <point x="-78" y="765"/>
      <point x="-113" y="745" type="curve"/>
      <point x="-117" y="734"/>
      <point x="-123" y="717"/>
      <point x="-126" y="703" type="curve"/>
      <point x="-86" y="720"/>
      <point x="9" y="761"/>
      <point x="45" y="772" type="curve"/>
      <point x="52" y="789"/>
      <point x="54" y="796"/>
      <point x="57" y="812" type="curve"/>
    </contour>
    <contour>
      <point x="93" y="910"/>
      <point x="-7" y="872"/>
      <point x="-42" y="852" type="curve"/>
      <point x="-46" y="841"/>
      <point x="-52" y="824"/>
      <point x="-55" y="810" type="curve"/>
      <point x="-15" y="827"/>
      <point x="80" y="868"/>
      <point x="116" y="879" type="curve"/>
      <point x="123" y="896"/>
      <point x="125" y="903"/>
      <point x="128" y="919" type="curve"/>
    </contour>
    <contour>
      <point x="-1" y="919" type="move" name="top"/>
    </contour>
    <contour>
      <point x="-1" y="680" type="move" name="_top"/>
    </contour>
  </outline>
</glyph>
<glyph name="uni25C7" format="1">
  <advance width="689"/>
  <unicode hex="25C7"/>
  <outline>
    <contour>
      <point x="639" y="68" type="line"/>
      <point x="344" y="363" type="line"/>
      <point x="50" y="68" type="line"/>
      <point x="345" y="-226" type="line"/>
    </contour>
    <contour>
      <point x="344" y="257" type="line"/>
      <point x="533" y="68" type="line"/>
      <point x="345" y="-120" type="line"/>
      <point x="156" y="68" type="line"/>
    </contour>
  </outline>
</glyph>
<glyph name="uniFB93" format="1">
  <advance width="883"/>
  <unicode hex="FB93"/>
  <outline>
    <contour>
      <point x="593" y="543"/>
      <point x="652" y="578"/>
      <point x="750" y="623" type="curve"/>
      <point x="763" y="687" type="line"/>
      <point x="676" y="648"/>
      <point x="591" y="602"/>
      <point x="513" y="553" type="curve"/>
      <point x="501" y="481" type="line"/>
    </contour>
    <component base="uniFB8F"/>
  </outline>
</glyph>
<glyph name="uniFB95" format="1">
  <advance width="402"/>
  <unicode hex="FB95"/>
  <outline>
    <contour>
      <point x="92" y="541"/>
      <point x="153" y="577"/>
      <point x="250" y="622" type="curve"/>
      <point x="263" y="686" type="line"/>
      <point x="167" y="642"/>
      <point x="99" y="606"/>
      <point x="14" y="552" type="curve"/>
      <point x="2" y="480" type="line"/>
    </contour>
    <component base="uniFEDC"/>
  </outline>
</glyph>
<glyph name="uniFBA7" format="1">
  <advance width="462"/>
  <unicode hex="FBA7"/>
  <outline>
    <contour>
      <point x="407" y="139" type="line" smooth="yes"/>
      <point x="377" y="139"/>
      <point x="357" y="160"/>
      <point x="339" y="187" type="curve" smooth="yes"/>
      <point x="322" y="212"/>
      <point x="297" y="245"/>
      <point x="253" y="245" type="curve" smooth="yes"/>
      <point x="207" y="245"/>
      <point x="167" y="210"/>
      <point x="126" y="135" type="curve" smooth="yes"/>
      <point x="104" y="95"/>
      <point x="86" y="52"/>
      <point x="60" y="-29" type="curve"/>
      <point x="122" y="-11" type="line"/>
      <point x="131" y="11"/>
      <point x="147" y="45"/>
      <point x="159" y="66" type="curve" smooth="yes"/>
      <point x="192" y="124"/>
      <point x="218" y="133"/>
      <point x="234" y="133" type="curve" smooth="yes"/>
      <point x="259" y="133"/>
      <point x="273" y="111"/>
      <point x="286" y="87" type="curve" smooth="yes"/>
      <point x="296" y="68"/>
      <point x="307" y="47"/>
      <point x="325" y="30" type="curve" smooth="yes"/>
      <point x="346" y="10"/>
      <point x="372" y="0"/>
      <point x="405" y="0" type="curve" smooth="yes"/>
      <point x="462" y="0" type="line"/>
      <point x="462" y="139" type="line"/>
    </contour>
    <contour>
      <point x="201" y="275" type="move" name="top"/>
    </contour>
    <contour>
      <point x="164" y="-27" type="move" name="bottom"/>
    </contour>
  </outline>
</glyph>
<glyph name="uniFBB8" format="1">
  <advance width="0"/>
  <unicode hex="FBB8"/>
  <outline>
    <contour>
      <point x="105" y="902"/>
      <point x="78" y="931"/>
      <point x="47" y="946" type="curve"/>
      <point x="40" y="937"/>
      <point x="16" y="911"/>
      <point x="-3" y="893" type="curve"/>
      <point x="-17" y="913"/>
      <point x="-39" y="933"/>
      <point x="-63" y="946" type="curve"/>
      <point x="-72" y="934"/>
      <point x="-109" y="896"/>
      <point x="-127" y="881" type="curve"/>
      <point x="-98" y="861"/>
      <point x="-74" y="834"/>
      <point x="-57" y="813" type="curve"/>
      <point x="-40" y="827"/>
      <point x="-14" y="853"/>
      <point x="0" y="868" type="curve"/>
      <point x="21" y="850"/>
      <point x="40" y="830"/>
      <point x="53" y="813" type="curve"/>
      <point x="75" y="830"/>
      <point x="108" y="865"/>
      <point x="116" y="877" type="curve"/>
    </contour>
    <contour>
      <point x="54" y="771"/>
      <point x="26" y="800"/>
      <point x="-4" y="817" type="curve"/>
      <point x="-13" y="805"/>
      <point x="-50" y="767"/>
      <point x="-69" y="752" type="curve"/>
      <point x="-40" y="731"/>
      <point x="-15" y="704"/>
      <point x="1" y="684" type="curve"/>
      <point x="24" y="700"/>
      <point x="57" y="736"/>
      <point x="65" y="748" type="curve"/>
    </contour>
    <contour>
      <point x="-6" y="960" type="move" name="top"/>
    </contour>
    <contour>
      <point x="-6" y="660" type="move" name="_top"/>
    </contour>
  </outline>
</glyph>
<glyph name="uniFBBC" format="1">
  <advance width="0"/>
  <unicode hex="FBBC"/>
  <outline>
    <contour>
      <point x="-61" y="-242"/>
      <point x="-49" y="-273"/>
      <point x="-53" y="-322" type="curve"/>
      <point x="-24" y="-313" type="line"/>
      <point x="-16" y="-266"/>
      <point x="-18" y="-220"/>
      <point x="-40" y="-182" type="curve"/>
      <point x="-56" y="-192"/>
      <point x="-64" y="-200"/>
      <point x="-78" y="-214" type="curve"/>
    </contour>
    <contour>
      <point x="25" y="-242"/>
      <point x="36" y="-273"/>
      <point x="33" y="-322" type="curve"/>
      <point x="61" y="-313" type="line"/>
      <point x="69" y="-266"/>
      <point x="67" y="-220"/>
      <point x="45" y="-182" type="curve"/>
      <point x="29" y="-192"/>
      <point x="21" y="-200"/>
      <point x="7" y="-214" type="curve"/>
    </contour>
    <contour>
      <point x="-1" y="-163" type="move" name="_bottom"/>
    </contour>
    <contour>
      <point x="-1" y="-322" type="move" name="bottom"/>
    </contour>
  </outline>
</glyph>
<glyph name="uniFBBE" format="1">
  <advance width="0"/>
  <unicode hex="FBBE"/>
  <outline>
    <contour>
      <point x="38" y="-145"/>
      <point x="61" y="-120"/>
      <point x="67" y="-111" type="curve"/>
      <point x="56" y="-87"/>
      <point x="29" y="-58"/>
      <point x="-2" y="-42" type="curve"/>
      <point x="-11" y="-54"/>
      <point x="-48" y="-92"/>
      <point x="-66" y="-107" type="curve"/>
      <point x="-44" y="-123"/>
      <point x="-24" y="-142"/>
      <point x="-9" y="-160" type="curve"/>
      <point x="-23" y="-176"/>
      <point x="-51" y="-204"/>
      <point x="-66" y="-216" type="curve"/>
      <point x="-37" y="-237"/>
      <point x="-13" y="-264"/>
      <point x="4" y="-284" type="curve"/>
      <point x="26" y="-268"/>
      <point x="59" y="-232"/>
      <point x="67" y="-220" type="curve"/>
      <point x="59" y="-201"/>
      <point x="40" y="-180"/>
      <point x="18" y="-163" type="curve"/>
    </contour>
    <contour>
      <point x="1" y="-5" type="move" name="_bottom"/>
    </contour>
    <contour>
      <point x="1" y="-285" type="move" name="bottom"/>
    </contour>
  </outline>
</glyph>
<glyph name="uniFC18" format="1">
  <advance width="723"/>
  <unicode hex="FC18"/>
  <outline>
    <contour>
      <point x="586" y="300"/>
      <point x="508" y="321"/>
      <point x="441" y="358" type="curve" smooth="yes"/>
      <point x="407" y="376"/>
      <point x="371" y="391"/>
      <point x="334" y="391" type="curve" smooth="yes"/>
      <point x="313" y="391"/>
      <point x="293" y="386"/>
      <point x="274" y="377" type="curve" smooth="yes"/>
      <point x="242" y="361"/>
      <point x="225" y="337"/>
      <point x="203" y="299" type="curve"/>
      <point x="227" y="266" type="line"/>
      <point x="248" y="284"/>
      <point x="261" y="294"/>
      <point x="294" y="294" type="curve" smooth="yes"/>
      <point x="323" y="294"/>
      <point x="345" y="280"/>
      <point x="382" y="260" type="curve"/>
      <point x="337" y="256"/>
      <point x="303" y="250"/>
      <point x="270" y="238" type="curve" smooth="yes"/>
      <point x="241" y="228"/>
      <point x="212" y="213"/>
      <point x="179" y="190" type="curve"/>
      <point x="171" y="182"/>
      <point x="157" y="167"/>
      <point x="149" y="138" type="curve"/>
      <point x="118" y="122"/>
      <point x="93" y="102"/>
      <point x="74" y="76" type="curve" smooth="yes"/>
      <point x="47" y="41"/>
      <point x="36" y="-4"/>
      <point x="49" y="-58" type="curve" smooth="yes"/>
      <point x="57" y="-96"/>
      <point x="69" y="-173"/>
      <point x="74" y="-218" type="curve" smooth="yes"/>
      <point x="82" y="-294"/>
      <point x="88" y="-353"/>
      <point x="93" y="-411" type="curve"/>
      <point x="149" y="-389" type="line"/>
      <point x="152" y="-315"/>
      <point x="149" y="-205"/>
      <point x="143" y="-151" type="curve" smooth="yes"/>
      <point x="139" y="-108"/>
      <point x="132" y="-56"/>
      <point x="123" y="9" type="curve"/>
      <point x="140" y="25"/>
      <point x="170" y="38"/>
      <point x="228" y="38" type="curve" smooth="yes"/>
      <point x="267" y="38"/>
      <point x="289" y="32"/>
      <point x="337" y="16" type="curve"/>
      <point x="363" y="52"/>
      <point x="368" y="59"/>
      <point x="391" y="120" type="curve"/>
      <point x="364" y="142"/>
      <point x="321" y="165"/>
      <point x="296" y="175" type="curve"/>
      <point x="347" y="196"/>
      <point x="415" y="205"/>
      <point x="448" y="205" type="curve" smooth="yes"/>
      <point x="540" y="205"/>
      <point x="599" y="185"/>
      <point x="599" y="185" type="curve"/>
      <point x="631" y="219"/>
      <point x="642" y="233"/>
      <point x="673" y="288" type="curve"/>
    </contour>
    <contour>
      <point x="362" y="0" type="move" name="caret_1"/>
    </contour>
    <contour>
      <point x="419" y="0" type="move" name="bottom_1"/>
    </contour>
    <contour>
      <point x="354" y="421" type="move" name="top_1"/>
    </contour>
    <contour>
      <point x="71" y="287" type="move" name="top_2"/>
    </contour>
    <contour>
      <point x="124" y="-428" type="move" name="bottom_2"/>
    </contour>
  </outline>
</glyph>
<glyph name="uniFC21" format="1">
  <advance width="904"/>
  <unicode hex="FC21"/>
  <outline>
    <contour>
      <point x="854" y="279"/>
      <point x="838" y="309"/>
      <point x="810" y="331" type="curve" smooth="yes"/>
      <point x="784" y="351"/>
      <point x="752" y="362"/>
      <point x="724" y="362" type="curve" smooth="yes"/>
      <point x="664" y="362"/>
      <point x="599" y="311"/>
      <point x="543" y="251" type="curve" smooth="yes"/>
      <point x="516" y="222"/>
      <point x="488" y="188"/>
      <point x="454" y="139" type="curve"/>
      <point x="435" y="149"/>
      <point x="431" y="159"/>
      <point x="411" y="186" type="curve" smooth="yes"/>
      <point x="393" y="210"/>
      <point x="366" y="221"/>
      <point x="337" y="220" type="curve" smooth="yes"/>
      <point x="315" y="220"/>
      <point x="292" y="213"/>
      <point x="271" y="201" type="curve" smooth="yes"/>
      <point x="248" y="188"/>
      <point x="226" y="166"/>
      <point x="211" y="145" type="curve" smooth="yes"/>
      <point x="201" y="131"/>
      <point x="189" y="112"/>
      <point x="181" y="92" type="curve" smooth="yes"/>
      <point x="173" y="75"/>
      <point x="167" y="56"/>
      <point x="166" y="42" type="curve"/>
      <point x="130" y="23"/>
      <point x="99" y="-6"/>
      <point x="81" y="-38" type="curve" smooth="yes"/>
      <point x="65" y="-70"/>
      <point x="55" y="-111"/>
      <point x="62" y="-154" type="curve" smooth="yes"/>
      <point x="90" y="-332"/>
      <point x="102" y="-424"/>
      <point x="109" y="-508" type="curve"/>
      <point x="171" y="-482" type="line"/>
      <point x="168" y="-421"/>
      <point x="163" y="-314"/>
      <point x="161" y="-282" type="curve" smooth="yes"/>
      <point x="155" y="-222"/>
      <point x="147" y="-149"/>
      <point x="138" y="-87" type="curve"/>
      <point x="150" y="-77"/>
      <point x="181" y="-64"/>
      <point x="239" y="-64" type="curve" smooth="yes"/>
      <point x="275" y="-64"/>
      <point x="300" y="-71"/>
      <point x="341" y="-84" type="curve"/>
      <point x="365" y="-53"/>
      <point x="379" y="-31"/>
      <point x="392" y="13" type="curve"/>
      <point x="365" y="42"/>
      <point x="306" y="76"/>
      <point x="260" y="86" type="curve"/>
      <point x="278" y="102"/>
      <point x="310" y="117"/>
      <point x="337" y="117" type="curve" smooth="yes"/>
      <point x="382" y="117"/>
      <point x="411" y="86"/>
      <point x="442" y="56" type="curve" smooth="yes"/>
      <point x="469" y="30"/>
      <point x="496" y="6"/>
      <point x="565" y="6" type="curve"/>
      <point x="632" y="10"/>
      <point x="709" y="42"/>
      <point x="754" y="76" type="curve" smooth="yes"/>
      <point x="782" y="97"/>
      <point x="808" y="126"/>
      <point x="825" y="154" type="curve" smooth="yes"/>
      <point x="844" y="186"/>
      <point x="854" y="220"/>
      <point x="854" y="246" type="curve" smooth="yes"/>
    </contour>
    <contour>
      <point x="752" y="183"/>
      <point x="738" y="170"/>
      <point x="714" y="159" type="curve" smooth="yes"/>
      <point x="685" y="146"/>
      <point x="653" y="139"/>
      <point x="618" y="139" type="curve" smooth="yes"/>
      <point x="529" y="139" type="line"/>
      <point x="544" y="160"/>
      <point x="559" y="178"/>
      <point x="574" y="193" type="curve" smooth="yes"/>
      <point x="604" y="224"/>
      <point x="637" y="249"/>
      <point x="682" y="249" type="curve" smooth="yes"/>
      <point x="709" y="249"/>
      <point x="725" y="240"/>
      <point x="737" y="229" type="curve"/>
      <point x="750" y="216"/>
      <point x="757" y="199"/>
      <point x="760" y="191" type="curve"/>
    </contour>
    <contour>
      <point x="460" y="0" type="move" name="caret_1"/>
    </contour>
    <contour>
      <point x="609" y="-29" type="move" name="bottom_1"/>
    </contour>
    <contour>
      <point x="704" y="392" type="move" name="top_1"/>
    </contour>
    <contour>
      <point x="200" y="246" type="move" name="top_2"/>
    </contour>
    <contour>
      <point x="144" y="-526" type="move" name="bottom_2"/>
    </contour>
  </outline>
</glyph>
<glyph name="uniFC3D" format="1">
  <advance width="664"/>
  <unicode hex="FC3D"/>
  <outline>
    <contour>
      <point x="58" y="-101"/>
      <point x="63" y="-134"/>
      <point x="75" y="-163" type="curve" smooth="yes"/>
      <point x="90" y="-200"/>
      <point x="116" y="-229"/>
      <point x="155" y="-250" type="curve" smooth="yes"/>
      <point x="192" y="-270"/>
      <point x="239" y="-281"/>
      <point x="291" y="-281" type="curve" smooth="yes"/>
      <point x="346" y="-281"/>
      <point x="404" y="-272"/>
      <point x="456" y="-252" type="curve" smooth="yes"/>
      <point x="518" y="-228"/>
      <point x="572" y="-188"/>
      <point x="606" y="-125" type="curve" smooth="yes"/>
      <point x="619" y="-101"/>
      <point x="628" y="-72"/>
      <point x="628" y="-46" type="curve" smooth="yes"/>
      <point x="628" y="3"/>
      <point x="596" y="40"/>
      <point x="550" y="59" type="curve"/>
      <point x="571" y="87"/>
      <point x="586" y="124"/>
      <point x="584" y="166" type="curve"/>
      <point x="582" y="204"/>
      <point x="570" y="237"/>
      <point x="551" y="273" type="curve" smooth="yes"/>
      <point x="530" y="312"/>
      <point x="498" y="349"/>
      <point x="457" y="382" type="curve"/>
      <point x="508" y="411"/>
      <point x="579" y="445"/>
      <point x="640" y="470" type="curve"/>
      <point x="653" y="521"/>
      <point x="658" y="558"/>
      <point x="664" y="608" type="curve"/>
      <point x="545" y="553"/>
      <point x="424" y="486"/>
      <point x="349" y="427" type="curve"/>
      <point x="341" y="394"/>
      <point x="336" y="371"/>
      <point x="331" y="326" type="curve"/>
      <point x="384" y="266" type="line"/>
      <point x="395" y="290" type="line"/>
      <point x="443" y="254"/>
      <point x="509" y="203"/>
      <point x="511" y="140" type="curve"/>
      <point x="495" y="119"/>
      <point x="446" y="96"/>
      <point x="392" y="93" type="curve"/>
      <point x="386" y="67"/>
      <point x="383" y="41"/>
      <point x="379" y="-1" type="curve"/>
      <point x="429" y="-5"/>
      <point x="461" y="-9"/>
      <point x="488" y="-16" type="curve" smooth="yes"/>
      <point x="522" y="-25"/>
      <point x="542" y="-37"/>
      <point x="543" y="-49" type="curve"/>
      <point x="525" y="-81"/>
      <point x="481" y="-103"/>
      <point x="429" y="-115" type="curve" smooth="yes"/>
      <point x="387" y="-125"/>
      <point x="340" y="-130"/>
      <point x="299" y="-130" type="curve" smooth="yes"/>
      <point x="229" y="-130"/>
      <point x="184" y="-110"/>
      <point x="159" y="-80" type="curve" smooth="yes"/>
      <point x="133" y="-49"/>
      <point x="128" y="-6"/>
      <point x="142" y="57" type="curve"/>
      <point x="99" y="72" type="line"/>
      <point x="75" y="13"/>
      <point x="64" y="-26"/>
      <point x="61" y="-65" type="curve" smooth="yes"/>
    </contour>
    <contour>
      <point x="332" y="0" type="move" name="caret_1"/>
    </contour>
    <contour>
      <point x="552" y="-255" type="move" name="bottom_1"/>
    </contour>
    <contour>
      <point x="457" y="562" type="move" name="top_1"/>
    </contour>
    <contour>
      <point x="239" y="81" type="move" name="top_2"/>
    </contour>
    <contour>
      <point x="301" y="-311" type="move" name="bottom_2"/>
    </contour>
  </outline>
</glyph>
<glyph name="uniFC40" format="1">
  <advance width="577"/>
  <unicode hex="FC40"/>
  <outline>
    <contour>
      <point x="529" y="287" type="line"/>
      <point x="456" y="287"/>
      <point x="381" y="295"/>
      <point x="334" y="305" type="curve"/>
      <point x="342" y="316"/>
      <point x="344" y="324"/>
      <point x="340" y="357" type="curve" smooth="yes"/>
      <point x="336" y="386"/>
      <point x="334" y="391"/>
      <point x="331" y="408" type="curve" smooth="yes"/>
      <point x="317" y="494"/>
      <point x="361" y="500"/>
      <point x="361" y="500" type="curve"/>
      <point x="330" y="519"/>
      <point x="288" y="582"/>
      <point x="280" y="609" type="curve"/>
      <point x="210" y="503" type="line"/>
      <point x="218" y="483"/>
      <point x="237" y="420"/>
      <point x="239" y="412" type="curve" smooth="yes"/>
      <point x="245" y="389"/>
      <point x="255" y="349"/>
      <point x="256" y="343" type="curve" smooth="yes"/>
      <point x="257" y="337"/>
      <point x="254" y="326"/>
      <point x="239" y="326" type="curve" smooth="yes"/>
      <point x="231" y="326"/>
      <point x="210" y="329"/>
      <point x="189" y="329" type="curve" smooth="yes"/>
      <point x="161" y="329"/>
      <point x="138" y="324"/>
      <point x="138" y="324" type="curve" smooth="yes"/>
      <point x="118" y="291"/>
      <point x="106" y="265"/>
      <point x="103" y="225" type="curve"/>
      <point x="103" y="225"/>
      <point x="118" y="227"/>
      <point x="145" y="227" type="curve" smooth="yes"/>
      <point x="172" y="227"/>
      <point x="212" y="225"/>
      <point x="260" y="215" type="curve"/>
      <point x="241" y="206"/>
      <point x="194" y="182"/>
      <point x="151" y="138" type="curve" smooth="yes"/>
      <point x="111" y="98"/>
      <point x="67" y="33"/>
      <point x="61" y="-47" type="curve" smooth="yes"/>
      <point x="56" y="-115"/>
      <point x="77" y="-183"/>
      <point x="121" y="-233" type="curve" smooth="yes"/>
      <point x="168" y="-286"/>
      <point x="234" y="-310"/>
      <point x="302" y="-310" type="curve" smooth="yes"/>
      <point x="352" y="-310"/>
      <point x="376" y="-297"/>
      <point x="405" y="-282" type="curve" smooth="yes"/>
      <point x="437" y="-266"/>
      <point x="465" y="-256"/>
      <point x="505" y="-256" type="curve"/>
      <point x="522" y="-203" type="line"/>
      <point x="480" y="-195"/>
      <point x="441" y="-193"/>
      <point x="415" y="-192" type="curve"/>
      <point x="408" y="-192"/>
      <point x="358" y="-189"/>
      <point x="318" y="-182" type="curve" smooth="yes"/>
      <point x="265" y="-173"/>
      <point x="214" y="-153"/>
      <point x="183" y="-117" type="curve" smooth="yes"/>
      <point x="158" y="-88"/>
      <point x="147" y="-51"/>
      <point x="147" y="-18" type="curve" smooth="yes"/>
      <point x="147" y="46"/>
      <point x="189" y="100"/>
      <point x="251" y="136" type="curve" smooth="yes"/>
      <point x="302" y="166"/>
      <point x="365" y="182"/>
      <point x="427" y="182" type="curve" smooth="yes"/>
      <point x="478" y="182"/>
      <point x="498" y="180"/>
      <point x="518" y="176" type="curve"/>
      <point x="537" y="214"/>
      <point x="548" y="240"/>
      <point x="557" y="287" type="curve"/>
    </contour>
    <contour>
      <point x="289" y="0" type="move" name="caret_1"/>
    </contour>
    <contour>
      <point x="464" y="139" type="move" name="bottom_1"/>
    </contour>
    <contour>
      <point x="194" y="633" type="move" name="top_1"/>
    </contour>
    <contour>
      <point x="271" y="0" type="move" name="center"/>
    </contour>
    <contour>
      <point x="77" y="366" type="move" name="top_2"/>
    </contour>
    <contour>
      <point x="302" y="-340" type="move" name="bottom_2"/>
    </contour>
  </outline>
</glyph>
<glyph name="uniFC49" format="1">
  <advance width="824"/>
  <unicode hex="FC49"/>
  <outline>
    <contour>
      <point x="741" y="287"/>
      <point x="715" y="300"/>
      <point x="680" y="308" type="curve" smooth="yes"/>
      <point x="660" y="312"/>
      <point x="637" y="317"/>
      <point x="625" y="322" type="curve"/>
      <point x="609" y="301"/>
      <point x="598" y="282"/>
      <point x="592" y="263" type="curve" smooth="yes"/>
      <point x="585" y="243"/>
      <point x="585" y="212"/>
      <point x="592" y="186" type="curve"/>
      <point x="575" y="178"/>
      <point x="523" y="145"/>
      <point x="493" y="116" type="curve" smooth="yes"/>
      <point x="480" y="104"/>
      <point x="462" y="83"/>
      <point x="453" y="63" type="curve" smooth="yes"/>
      <point x="446" y="47"/>
      <point x="444" y="40"/>
      <point x="436" y="-6" type="curve"/>
      <point x="481" y="-6"/>
      <point x="541" y="-25"/>
      <point x="543" y="-49" type="curve"/>
      <point x="543" y="-57"/>
      <point x="514" y="-82"/>
      <point x="469" y="-100" type="curve" smooth="yes"/>
      <point x="431" y="-115"/>
      <point x="387" y="-128"/>
      <point x="303" y="-128" type="curve" smooth="yes"/>
      <point x="231" y="-128"/>
      <point x="186" y="-112"/>
      <point x="159" y="-80" type="curve" smooth="yes"/>
      <point x="135" y="-51"/>
      <point x="129" y="-16"/>
      <point x="142" y="57" type="curve"/>
      <point x="99" y="72" type="line"/>
      <point x="84" y="36"/>
      <point x="71" y="2"/>
      <point x="64" y="-43" type="curve" smooth="yes"/>
      <point x="57" y="-87"/>
      <point x="59" y="-125"/>
      <point x="75" y="-163" type="curve" smooth="yes"/>
      <point x="90" y="-199"/>
      <point x="114" y="-227"/>
      <point x="154" y="-249" type="curve" smooth="yes"/>
      <point x="192" y="-270"/>
      <point x="236" y="-281"/>
      <point x="290" y="-281" type="curve" smooth="yes"/>
      <point x="356" y="-281"/>
      <point x="431" y="-265"/>
      <point x="488" y="-235" type="curve" smooth="yes"/>
      <point x="541" y="-207"/>
      <point x="581" y="-172"/>
      <point x="606" y="-125" type="curve" smooth="yes"/>
      <point x="623" y="-94"/>
      <point x="628" y="-64"/>
      <point x="628" y="-44" type="curve" smooth="yes"/>
      <point x="628" y="3"/>
      <point x="601" y="45"/>
      <point x="546" y="60" type="curve"/>
      <point x="588" y="98"/>
      <point x="639" y="119"/>
      <point x="700" y="125" type="curve"/>
      <point x="743" y="128"/>
      <point x="758" y="136"/>
      <point x="769" y="183" type="curve" smooth="yes"/>
      <point x="778" y="220"/>
      <point x="775" y="254"/>
      <point x="755" y="273" type="curve" smooth="yes"/>
    </contour>
    <contour>
      <point x="417" y="0" type="move" name="caret_1"/>
    </contour>
    <contour>
      <point x="656" y="-200" type="move" name="bottom_1"/>
    </contour>
    <contour>
      <point x="625" y="352" type="move" name="top_1"/>
    </contour>
    <contour>
      <point x="266" y="77" type="move" name="top_2"/>
    </contour>
    <contour>
      <point x="300" y="-311" type="move" name="bottom_2"/>
    </contour>
  </outline>
</glyph>
<glyph name="uniFC53" format="1">
  <advance width="924"/>
  <unicode hex="FC53"/>
  <outline>
    <contour>
      <point x="874" y="252"/>
      <point x="856" y="289"/>
      <point x="836" y="317" type="curve" smooth="yes"/>
      <point x="811" y="353"/>
      <point x="779" y="378"/>
      <point x="739" y="402" type="curve" smooth="yes"/>
      <point x="719" y="414"/>
      <point x="699" y="425"/>
      <point x="678" y="435" type="curve" smooth="yes"/>
      <point x="645" y="451"/>
      <point x="638" y="455"/>
      <point x="615" y="471" type="curve"/>
      <point x="605" y="454"/>
      <point x="594" y="437"/>
      <point x="585" y="420" type="curve" smooth="yes"/>
      <point x="571" y="394"/>
      <point x="567" y="376"/>
      <point x="584" y="365" type="curve" smooth="yes"/>
      <point x="592" y="360" type="line"/>
      <point x="568" y="350"/>
      <point x="549" y="334"/>
      <point x="535" y="315" type="curve" smooth="yes"/>
      <point x="516" y="289"/>
      <point x="506" y="257"/>
      <point x="507" y="227" type="curve" smooth="yes"/>
      <point x="508" y="192"/>
      <point x="524" y="158"/>
      <point x="559" y="140" type="curve"/>
      <point x="540" y="127"/>
      <point x="519" y="117"/>
      <point x="500" y="110" type="curve" smooth="yes"/>
      <point x="484" y="104"/>
      <point x="469" y="98"/>
      <point x="460" y="92" type="curve" smooth="yes"/>
      <point x="432" y="73"/>
      <point x="430" y="44"/>
      <point x="423" y="-1" type="curve"/>
      <point x="423" y="-1"/>
      <point x="454" y="-7"/>
      <point x="480" y="-14" type="curve" smooth="yes"/>
      <point x="511" y="-23"/>
      <point x="543" y="-36"/>
      <point x="543" y="-52" type="curve" smooth="yes"/>
      <point x="543" y="-76"/>
      <point x="505" y="-95"/>
      <point x="441" y="-113" type="curve" smooth="yes"/>
      <point x="409" y="-122"/>
      <point x="351" y="-132"/>
      <point x="301" y="-132" type="curve" smooth="yes"/>
      <point x="232" y="-132"/>
      <point x="184" y="-113"/>
      <point x="159" y="-83" type="curve" smooth="yes"/>
      <point x="129" y="-48"/>
      <point x="130" y="3"/>
      <point x="142" y="54" type="curve"/>
      <point x="99" y="69" type="line"/>
      <point x="79" y="22"/>
      <point x="65" y="-15"/>
      <point x="61" y="-62" type="curve" smooth="yes"/>
      <point x="58" y="-96"/>
      <point x="61" y="-132"/>
      <point x="75" y="-166" type="curve" smooth="yes"/>
      <point x="90" y="-203"/>
      <point x="116" y="-232"/>
      <point x="155" y="-253" type="curve" smooth="yes"/>
      <point x="192" y="-273"/>
      <point x="239" y="-284"/>
      <point x="291" y="-284" type="curve" smooth="yes"/>
      <point x="353" y="-284"/>
      <point x="431" y="-268"/>
      <point x="487" y="-239" type="curve" smooth="yes"/>
      <point x="540" y="-212"/>
      <point x="582" y="-171"/>
      <point x="605" y="-128" type="curve" smooth="yes"/>
      <point x="622" y="-96"/>
      <point x="628" y="-66"/>
      <point x="629" y="-43" type="curve"/>
      <point x="629" y="-1"/>
      <point x="612" y="24"/>
      <point x="576" y="43" type="curve"/>
      <point x="587" y="50"/>
      <point x="617" y="71"/>
      <point x="656" y="105" type="curve"/>
      <point x="696" y="93"/>
      <point x="750" y="67"/>
      <point x="777" y="52" type="curve"/>
      <point x="820" y="97"/>
      <point x="826" y="104"/>
      <point x="833" y="112" type="curve" smooth="yes"/>
      <point x="859" y="142"/>
      <point x="874" y="173"/>
      <point x="874" y="211" type="curve" smooth="yes"/>
    </contour>
    <contour>
      <point x="685" y="261"/>
      <point x="681" y="247"/>
      <point x="666" y="236" type="curve"/>
      <point x="650" y="227"/>
      <point x="637" y="225"/>
      <point x="633" y="225" type="curve" smooth="yes"/>
      <point x="627" y="225"/>
      <point x="610" y="227"/>
      <point x="587" y="239" type="curve"/>
      <point x="571" y="247"/>
      <point x="564" y="257"/>
      <point x="561" y="262" type="curve"/>
      <point x="563" y="265"/>
      <point x="570" y="277"/>
      <point x="593" y="298" type="curve"/>
      <point x="621" y="321"/>
      <point x="636" y="327"/>
      <point x="644" y="327" type="curve" smooth="yes"/>
      <point x="655" y="327"/>
      <point x="665" y="313"/>
      <point x="670" y="302" type="curve"/>
      <point x="680" y="285"/>
      <point x="685" y="268"/>
      <point x="685" y="264" type="curve" smooth="yes"/>
    </contour>
    <contour>
      <point x="753" y="194"/>
      <point x="734" y="198"/>
      <point x="709" y="205" type="curve"/>
      <point x="719" y="221"/>
      <point x="725" y="236"/>
      <point x="728" y="251" type="curve" smooth="yes"/>
      <point x="731" y="269"/>
      <point x="729" y="286"/>
      <point x="725" y="304" type="curve"/>
      <point x="747" y="288"/>
      <point x="764" y="273"/>
      <point x="776" y="255" type="curve" smooth="yes"/>
      <point x="791" y="233"/>
      <point x="798" y="208"/>
      <point x="797" y="181" type="curve"/>
    </contour>
    <contour>
      <point x="467" y="0" type="move" name="caret_1"/>
    </contour>
    <contour>
      <point x="766" y="-29" type="move" name="bottom_1"/>
    </contour>
    <contour>
      <point x="615" y="501" type="move" name="top_1"/>
    </contour>
    <contour>
      <point x="278" y="70" type="move" name="top_2"/>
    </contour>
    <contour>
      <point x="301" y="-314" type="move" name="bottom_2"/>
    </contour>
  </outline>
</glyph>
<glyph name="uniFCB0" format="1">
  <advance width="733"/>
  <unicode hex="FCB0"/>
  <outline>
    <contour>
      <point x="601" y="399"/>
      <point x="585" y="377"/>
      <point x="565" y="347" type="curve"/>
      <point x="614" y="278" type="line"/>
      <point x="602" y="258"/>
      <point x="590" y="248"/>
      <point x="561" y="248" type="curve" smooth="yes"/>
      <point x="548" y="248"/>
      <point x="526" y="250"/>
      <point x="514" y="263" type="curve"/>
      <point x="502" y="275"/>
      <point x="499" y="297"/>
      <point x="500" y="317" type="curve"/>
      <point x="501" y="326"/>
      <point x="503" y="343"/>
      <point x="504" y="353" type="curve"/>
      <point x="453" y="334" type="line"/>
      <point x="453" y="326"/>
      <point x="452" y="319"/>
      <point x="451" y="312" type="curve" smooth="yes"/>
      <point x="444" y="275"/>
      <point x="423" y="246"/>
      <point x="385" y="246" type="curve" smooth="yes"/>
      <point x="345" y="246"/>
      <point x="332" y="275"/>
      <point x="314" y="299" type="curve" smooth="yes"/>
      <point x="301" y="317"/>
      <point x="286" y="332"/>
      <point x="256" y="332" type="curve" smooth="yes"/>
      <point x="237" y="332"/>
      <point x="216" y="326"/>
      <point x="195" y="314" type="curve" smooth="yes"/>
      <point x="173" y="301"/>
      <point x="150" y="279"/>
      <point x="135" y="258" type="curve" smooth="yes"/>
      <point x="125" y="244"/>
      <point x="112" y="221"/>
      <point x="106" y="205" type="curve" smooth="yes"/>
      <point x="99" y="186"/>
      <point x="95" y="161"/>
      <point x="96" y="137" type="curve"/>
      <point x="86" y="135"/>
      <point x="44" y="138"/>
      <point x="19" y="139" type="curve"/>
      <point x="-10" y="139" type="line" smooth="yes"/>
      <point x="-45" y="139"/>
      <point x="-80" y="116"/>
      <point x="-80" y="70" type="curve" smooth="yes"/>
      <point x="-80" y="26"/>
      <point x="-48" y="0"/>
      <point x="-10" y="0" type="curve" smooth="yes"/>
      <point x="15" y="0" type="line" smooth="yes"/>
      <point x="63" y="0"/>
      <point x="100" y="10"/>
      <point x="139" y="10" type="curve" smooth="yes"/>
      <point x="167" y="10"/>
      <point x="204" y="1"/>
      <point x="253" y="-27" type="curve"/>
      <point x="273" y="32"/>
      <point x="278" y="76"/>
      <point x="278" y="123" type="curve"/>
      <point x="219" y="138"/>
      <point x="168" y="155"/>
      <point x="168" y="184" type="curve" smooth="yes"/>
      <point x="168" y="206"/>
      <point x="199" y="236"/>
      <point x="240" y="236" type="curve" smooth="yes"/>
      <point x="280" y="236"/>
      <point x="300" y="197"/>
      <point x="317" y="168" type="curve" smooth="yes"/>
      <point x="329" y="147"/>
      <point x="350" y="117"/>
      <point x="393" y="117" type="curve" smooth="yes"/>
      <point x="445" y="117"/>
      <point x="463" y="151"/>
      <point x="471" y="166" type="curve"/>
      <point x="479" y="151"/>
      <point x="508" y="123"/>
      <point x="556" y="123" type="curve" smooth="yes"/>
      <point x="600" y="123"/>
      <point x="636" y="147"/>
      <point x="659" y="190" type="curve" smooth="yes"/>
      <point x="679" y="228"/>
      <point x="683" y="267"/>
      <point x="683" y="289" type="curve" smooth="yes"/>
      <point x="683" y="331"/>
      <point x="668" y="380"/>
      <point x="625" y="425" type="curve"/>
    </contour>
    <contour>
      <point x="367" y="0" type="move" name="caret_1"/>
    </contour>
    <contour>
      <point x="473" y="70" type="move" name="bottom_1"/>
    </contour>
    <contour>
      <point x="471" y="401" type="move" name="top_1"/>
    </contour>
    <contour>
      <point x="120" y="339" type="move" name="top_2"/>
    </contour>
    <contour>
      <point x="174" y="-49" type="move" name="bottom_2"/>
    </contour>
  </outline>
</glyph>
<glyph name="uniFCCC" format="1">
  <advance width="360"/>
  <unicode hex="FCCC"/>
  <outline>
    <contour>
      <point x="11" y="493" type="line"/>
      <point x="11" y="493"/>
      <point x="34" y="442"/>
      <point x="42" y="388" type="curve" smooth="yes"/>
      <point x="54" y="313"/>
      <point x="74" y="179"/>
      <point x="99" y="146" type="curve" smooth="yes"/>
      <point x="99" y="146"/>
      <point x="77" y="139"/>
      <point x="51" y="139" type="curve" smooth="yes"/>
      <point x="-10" y="139" type="line" smooth="yes"/>
      <point x="-61" y="139"/>
      <point x="-80" y="101"/>
      <point x="-80" y="67" type="curve" smooth="yes"/>
      <point x="-80" y="24"/>
      <point x="-49" y="0"/>
      <point x="-10" y="0" type="curve" smooth="yes"/>
      <point x="27" y="0" type="line" smooth="yes"/>
      <point x="87" y="0"/>
      <point x="107" y="15"/>
      <point x="160" y="15" type="curve" smooth="yes"/>
      <point x="210" y="15"/>
      <point x="248" y="-12"/>
      <point x="263" y="-28" type="curve"/>
      <point x="287" y="21"/>
      <point x="293" y="92"/>
      <point x="288" y="142" type="curve"/>
      <point x="254" y="150"/>
      <point x="223" y="164"/>
      <point x="209" y="173" type="curve" smooth="yes"/>
      <point x="177" y="193"/>
      <point x="163" y="227"/>
      <point x="153" y="283" type="curve" smooth="yes"/>
      <point x="152" y="289"/>
      <point x="137" y="392"/>
      <point x="136" y="399" type="curve" smooth="yes"/>
      <point x="127" y="457"/>
      <point x="161" y="469"/>
      <point x="174" y="479" type="curve"/>
      <point x="131" y="523"/>
      <point x="107" y="553"/>
      <point x="86" y="608" type="curve"/>
    </contour>
    <contour>
      <point x="170" y="0" type="move" name="caret_1"/>
    </contour>
    <contour>
      <point x="40" y="-52" type="move" name="bottom_1"/>
    </contour>
    <contour>
      <point x="-30" y="608" type="move" name="top_1"/>
    </contour>
    <contour>
      <point x="280" y="345" type="move" name="top_2"/>
    </contour>
    <contour>
      <point x="209" y="-200" type="move" name="bottom_2"/>
    </contour>
  </outline>
</glyph>
<glyph name="uniFCCD" format="1">
  <advance width="459"/>
  <unicode hex="FCCD"/>
  <outline>
    <contour>
      <point x="389" y="182"/>
      <point x="377" y="211"/>
      <point x="353" y="237" type="curve" smooth="yes"/>
      <point x="333" y="259"/>
      <point x="308" y="275"/>
      <point x="284" y="292" type="curve"/>
      <point x="253" y="312"/>
      <point x="231" y="329"/>
      <point x="219" y="354" type="curve" smooth="yes"/>
      <point x="212" y="369"/>
      <point x="202" y="402"/>
      <point x="198" y="423" type="curve" smooth="yes"/>
      <point x="192" y="451"/>
      <point x="208" y="468"/>
      <point x="237" y="488" type="curve"/>
      <point x="200" y="520"/>
      <point x="175" y="558"/>
      <point x="152" y="608" type="curve"/>
      <point x="79" y="495" type="line"/>
      <point x="102" y="437"/>
      <point x="124" y="379"/>
      <point x="137" y="319" type="curve"/>
      <point x="102" y="308"/>
      <point x="64" y="278"/>
      <point x="40" y="232" type="curve" smooth="yes"/>
      <point x="24" y="200"/>
      <point x="21" y="169"/>
      <point x="31" y="139" type="curve"/>
      <point x="-10" y="139" type="line" smooth="yes"/>
      <point x="-49" y="139"/>
      <point x="-80" y="107"/>
      <point x="-80" y="69" type="curve" smooth="yes"/>
      <point x="-80" y="29"/>
      <point x="-49" y="0"/>
      <point x="-10" y="0" type="curve" smooth="yes"/>
      <point x="39" y="0" type="line" smooth="yes"/>
      <point x="93" y="0"/>
      <point x="136" y="15"/>
      <point x="163" y="44" type="curve"/>
      <point x="203" y="30"/>
      <point x="235" y="16"/>
      <point x="293" y="-12" type="curve"/>
      <point x="312" y="8"/>
      <point x="331" y="28"/>
      <point x="350" y="48" type="curve" smooth="yes"/>
      <point x="374" y="74"/>
      <point x="389" y="112"/>
      <point x="389" y="149" type="curve" smooth="yes"/>
    </contour>
    <contour>
      <point x="198" y="186"/>
      <point x="190" y="177"/>
      <point x="180" y="169" type="curve" smooth="yes"/>
      <point x="169" y="163"/>
      <point x="157" y="158"/>
      <point x="146" y="158" type="curve" smooth="yes"/>
      <point x="135" y="158"/>
      <point x="118" y="163"/>
      <point x="104" y="169" type="curve" smooth="yes"/>
      <point x="91" y="176"/>
      <point x="79" y="185"/>
      <point x="74" y="195" type="curve"/>
      <point x="77" y="202"/>
      <point x="94" y="221"/>
      <point x="113" y="236" type="curve" smooth="yes"/>
      <point x="128" y="249"/>
      <point x="146" y="260"/>
      <point x="157" y="260" type="curve" smooth="yes"/>
      <point x="166" y="260"/>
      <point x="177" y="249"/>
      <point x="184" y="235" type="curve" smooth="yes"/>
      <point x="192" y="221"/>
      <point x="198" y="206"/>
      <point x="198" y="197" type="curve" smooth="yes"/>
    </contour>
    <contour>
      <point x="298" y="122"/>
      <point x="248" y="133"/>
      <point x="221" y="140" type="curve"/>
      <point x="232" y="157"/>
      <point x="239" y="173"/>
      <point x="241" y="189" type="curve" smooth="yes"/>
      <point x="242" y="204"/>
      <point x="241" y="220"/>
      <point x="238" y="239" type="curve"/>
      <point x="259" y="226"/>
      <point x="272" y="219"/>
      <point x="295" y="204" type="curve" smooth="yes"/>
      <point x="322" y="187"/>
      <point x="337" y="153"/>
      <point x="321" y="116" type="curve"/>
    </contour>
    <contour>
      <point x="220" y="0" type="move" name="caret_1"/>
    </contour>
    <contour>
      <point x="295" y="-71" type="move" name="bottom_1"/>
    </contour>
    <contour>
      <point x="39" y="597" type="move" name="top_1"/>
    </contour>
    <contour>
      <point x="350" y="360" type="move" name="top_2"/>
    </contour>
    <contour>
      <point x="64" y="-29" type="move" name="bottom_2"/>
    </contour>
  </outline>
</glyph>
<glyph name="uniFCD1" format="1">
  <advance width="421"/>
  <unicode hex="FCD1"/>
  <outline>
    <contour>
      <point x="358" y="366"/>
      <point x="368" y="413"/>
      <point x="354" y="439" type="curve" smooth="yes"/>
      <point x="342" y="461"/>
      <point x="311" y="478"/>
      <point x="277" y="487" type="curve" smooth="yes"/>
      <point x="262" y="492"/>
      <point x="238" y="494"/>
      <point x="213" y="504" type="curve"/>
      <point x="205" y="496"/>
      <point x="184" y="476"/>
      <point x="176" y="426" type="curve" smooth="yes"/>
      <point x="173" y="408"/>
      <point x="171" y="379"/>
      <point x="176" y="364" type="curve"/>
      <point x="162" y="354"/>
      <point x="140" y="340"/>
      <point x="121" y="319" type="curve" smooth="yes"/>
      <point x="98" y="295"/>
      <point x="78" y="262"/>
      <point x="78" y="219" type="curve" smooth="yes"/>
      <point x="78" y="188"/>
      <point x="93" y="162"/>
      <point x="103" y="148" type="curve"/>
      <point x="94" y="144"/>
      <point x="76" y="139"/>
      <point x="46" y="139" type="curve" smooth="yes"/>
      <point x="-10" y="139" type="line" smooth="yes"/>
      <point x="-61" y="139"/>
      <point x="-80" y="92"/>
      <point x="-80" y="70" type="curve" smooth="yes"/>
      <point x="-80" y="31"/>
      <point x="-49" y="0"/>
      <point x="-10" y="0" type="curve" smooth="yes"/>
      <point x="27" y="0" type="line" smooth="yes"/>
      <point x="73" y="0"/>
      <point x="99" y="16"/>
      <point x="151" y="16" type="curve" smooth="yes"/>
      <point x="181" y="16"/>
      <point x="219" y="5"/>
      <point x="261" y="-26" type="curve"/>
      <point x="285" y="23"/>
      <point x="291" y="79"/>
      <point x="286" y="129" type="curve"/>
      <point x="250" y="154"/>
      <point x="234" y="163"/>
      <point x="201" y="181" type="curve" smooth="yes"/>
      <point x="154" y="207"/>
      <point x="144" y="215"/>
      <point x="144" y="229" type="curve"/>
      <point x="164" y="258"/>
      <point x="227" y="286"/>
      <point x="241" y="292" type="curve" smooth="yes"/>
      <point x="260" y="300"/>
      <point x="309" y="315"/>
      <point x="343" y="324" type="curve" smooth="yes"/>
    </contour>
    <contour>
      <point x="196" y="0" type="move" name="caret_1"/>
    </contour>
    <contour>
      <point x="262" y="-131" type="move" name="bottom_1"/>
    </contour>
    <contour>
      <point x="269" y="550" type="move" name="top_1"/>
    </contour>
    <contour>
      <point x="33" y="395" type="move" name="top_2"/>
    </contour>
    <contour>
      <point x="35" y="-54" type="move" name="bottom_2"/>
    </contour>
  </outline>
</glyph>
<glyph name="uniFCEB" format="1">
  <advance width="605"/>
  <unicode hex="FCEB"/>
  <outline>
    <contour>
      <point x="549" y="139" type="line" smooth="yes"/>
      <point x="495" y="139"/>
      <point x="472" y="169"/>
      <point x="444" y="201" type="curve" smooth="yes"/>
      <point x="417" y="232"/>
      <point x="391" y="262"/>
      <point x="364" y="293" type="curve" smooth="yes"/>
      <point x="339" y="321"/>
      <point x="313" y="349"/>
      <point x="291" y="372" type="curve"/>
      <point x="348" y="407"/>
      <point x="419" y="442"/>
      <point x="490" y="470" type="curve"/>
      <point x="502" y="518"/>
      <point x="509" y="558"/>
      <point x="514" y="608" type="curve"/>
      <point x="398" y="553"/>
      <point x="242" y="471"/>
      <point x="168" y="401" type="curve"/>
      <point x="161" y="470"/>
      <point x="154" y="539"/>
      <point x="147" y="608" type="curve"/>
      <point x="108" y="566"/>
      <point x="83" y="531"/>
      <point x="51" y="479" type="curve"/>
      <point x="51" y="479"/>
      <point x="81" y="336"/>
      <point x="92" y="246" type="curve" smooth="yes"/>
      <point x="93" y="238"/>
      <point x="96" y="220"/>
      <point x="97" y="193" type="curve"/>
      <point x="98" y="180"/>
      <point x="95" y="168"/>
      <point x="86" y="158" type="curve" smooth="yes"/>
      <point x="75" y="146"/>
      <point x="57" y="139"/>
      <point x="36" y="139" type="curve" smooth="yes"/>
      <point x="-10" y="139" type="line" smooth="yes"/>
      <point x="-48" y="139"/>
      <point x="-80" y="107"/>
      <point x="-80" y="69" type="curve" smooth="yes"/>
      <point x="-80" y="36"/>
      <point x="-54" y="0"/>
      <point x="-10" y="0" type="curve" smooth="yes"/>
      <point x="62" y="0" type="line" smooth="yes"/>
      <point x="135" y="0"/>
      <point x="163" y="48"/>
      <point x="166" y="53" type="curve"/>
      <point x="189" y="15"/>
      <point x="228" y="0"/>
      <point x="285" y="0" type="curve"/>
      <point x="347" y="0"/>
      <point x="390" y="28"/>
      <point x="408" y="75" type="curve"/>
      <point x="413" y="67"/>
      <point x="456" y="0"/>
      <point x="550" y="0" type="curve" smooth="yes"/>
      <point x="605" y="0" type="line"/>
      <point x="605" y="139" type="line"/>
    </contour>
    <contour>
      <point x="325" y="141"/>
      <point x="306" y="133"/>
      <point x="267" y="133" type="curve"/>
      <point x="233" y="133"/>
      <point x="217" y="140"/>
      <point x="203" y="158" type="curve" smooth="yes"/>
      <point x="193" y="171"/>
      <point x="190" y="184"/>
      <point x="188" y="200" type="curve" smooth="yes"/>
      <point x="183" y="250"/>
      <point x="178" y="293"/>
      <point x="173" y="343" type="curve"/>
      <point x="200" y="314"/>
      <point x="250" y="269"/>
      <point x="267" y="250" type="curve" smooth="yes"/>
      <point x="295" y="219"/>
      <point x="321" y="195"/>
      <point x="341" y="162" type="curve"/>
    </contour>
    <contour>
      <point x="303" y="0" type="move" name="caret_1"/>
    </contour>
    <contour>
      <point x="335" y="-29" type="move" name="bottom_1"/>
    </contour>
    <contour>
      <point x="376" y="600" type="move" name="top_1"/>
    </contour>
    <contour>
      <point x="38" y="599" type="move" name="top_2"/>
    </contour>
    <contour>
      <point x="64" y="-29" type="move" name="bottom_2"/>
    </contour>
  </outline>
</glyph>
<glyph name="uniFCF7" format="1">
  <advance width="918"/>
  <unicode hex="FCF7"/>
  <outline>
    <contour>
      <point x="651" y="421"/>
      <point x="608" y="399"/>
      <point x="576" y="369" type="curve" smooth="yes"/>
      <point x="544" y="339"/>
      <point x="519" y="297"/>
      <point x="519" y="251" type="curve" smooth="yes"/>
      <point x="519" y="220"/>
      <point x="530" y="180"/>
      <point x="560" y="154" type="curve"/>
      <point x="503" y="129"/>
      <point x="469" y="109"/>
      <point x="452" y="93" type="curve" smooth="yes"/>
      <point x="433" y="75"/>
      <point x="428" y="62"/>
      <point x="417" y="2" type="curve"/>
      <point x="482" y="-10"/>
      <point x="542" y="-26"/>
      <point x="542" y="-47" type="curve" smooth="yes"/>
      <point x="542" y="-73"/>
      <point x="488" y="-97"/>
      <point x="425" y="-112" type="curve" smooth="yes"/>
      <point x="382" y="-123"/>
      <point x="334" y="-129"/>
      <point x="296" y="-129" type="curve" smooth="yes"/>
      <point x="235" y="-129"/>
      <point x="186" y="-112"/>
      <point x="159" y="-79" type="curve" smooth="yes"/>
      <point x="131" y="-45"/>
      <point x="127" y="0"/>
      <point x="141" y="57" type="curve"/>
      <point x="98" y="72" type="line"/>
      <point x="78" y="28"/>
      <point x="65" y="-16"/>
      <point x="61" y="-65" type="curve" smooth="yes"/>
      <point x="58" y="-102"/>
      <point x="62" y="-134"/>
      <point x="74" y="-163" type="curve" smooth="yes"/>
      <point x="89" y="-200"/>
      <point x="115" y="-229"/>
      <point x="154" y="-250" type="curve" smooth="yes"/>
      <point x="191" y="-270"/>
      <point x="238" y="-281"/>
      <point x="290" y="-281" type="curve" smooth="yes"/>
      <point x="358" y="-281"/>
      <point x="423" y="-267"/>
      <point x="478" y="-241" type="curve" smooth="yes"/>
      <point x="533" y="-215"/>
      <point x="577" y="-176"/>
      <point x="605" y="-126" type="curve" smooth="yes"/>
      <point x="621" y="-98"/>
      <point x="628" y="-68"/>
      <point x="627" y="-41" type="curve" smooth="yes"/>
      <point x="624" y="9"/>
      <point x="597" y="39"/>
      <point x="549" y="58" type="curve"/>
      <point x="606" y="90"/>
      <point x="703" y="121"/>
      <point x="828" y="154" type="curve"/>
      <point x="847" y="189"/>
      <point x="858" y="225"/>
      <point x="868" y="260" type="curve"/>
      <point x="804" y="247"/>
      <point x="712" y="224"/>
      <point x="678" y="213" type="curve"/>
      <point x="652" y="225"/>
      <point x="616" y="253"/>
      <point x="606" y="291" type="curve"/>
      <point x="620" y="299"/>
      <point x="652" y="318"/>
      <point x="700" y="318" type="curve" smooth="yes"/>
      <point x="726" y="318"/>
      <point x="749" y="313"/>
      <point x="778" y="303" type="curve"/>
      <point x="824" y="342" type="line"/>
      <point x="783" y="402"/>
      <point x="744" y="421"/>
      <point x="691" y="421" type="curve" smooth="yes"/>
    </contour>
    <contour>
      <point x="464" y="0" type="move" name="caret_1"/>
    </contour>
    <contour>
      <point x="635" y="-200" type="move" name="bottom_1"/>
    </contour>
    <contour>
      <point x="691" y="451" type="move" name="top_1"/>
    </contour>
    <contour>
      <point x="265" y="63" type="move" name="top_2"/>
    </contour>
    <contour>
      <point x="300" y="-311" type="move" name="bottom_2"/>
    </contour>
  </outline>
</glyph>
<glyph name="uniFCFB" format="1">
  <advance width="1063"/>
  <unicode hex="FCFB"/>
  <outline>
    <contour>
      <point x="931" y="286"/>
      <point x="915" y="264"/>
      <point x="895" y="234" type="curve"/>
      <point x="944" y="165" type="line"/>
      <point x="932" y="145"/>
      <point x="920" y="135"/>
      <point x="891" y="135" type="curve" smooth="yes"/>
      <point x="878" y="135"/>
      <point x="856" y="137"/>
      <point x="844" y="150" type="curve" smooth="yes"/>
      <point x="832" y="162"/>
      <point x="829" y="184"/>
      <point x="830" y="204" type="curve" smooth="yes"/>
      <point x="831" y="213"/>
      <point x="833" y="230"/>
      <point x="834" y="240" type="curve"/>
      <point x="783" y="221" type="line"/>
      <point x="783" y="217"/>
      <point x="783" y="193"/>
      <point x="775" y="174" type="curve" smooth="yes"/>
      <point x="766" y="153"/>
      <point x="748" y="132"/>
      <point x="699" y="132" type="curve" smooth="yes"/>
      <point x="639" y="132"/>
      <point x="615" y="169"/>
      <point x="596" y="198" type="curve" smooth="yes"/>
      <point x="578" y="225"/>
      <point x="562" y="247"/>
      <point x="525" y="247" type="curve" smooth="yes"/>
      <point x="489" y="247"/>
      <point x="459" y="226"/>
      <point x="428" y="178" type="curve" smooth="yes"/>
      <point x="417" y="161"/>
      <point x="397" y="127"/>
      <point x="385" y="96" type="curve" smooth="yes"/>
      <point x="372" y="63"/>
      <point x="363" y="22"/>
      <point x="376" y="-5" type="curve" smooth="yes"/>
      <point x="386" y="-26"/>
      <point x="411" y="-43"/>
      <point x="450" y="-54" type="curve" smooth="yes"/>
      <point x="471" y="-60"/>
      <point x="504" y="-65"/>
      <point x="524" y="-67" type="curve"/>
      <point x="524" y="-98"/>
      <point x="469" y="-116"/>
      <point x="408" y="-124" type="curve" smooth="yes"/>
      <point x="377" y="-128"/>
      <point x="343" y="-130"/>
      <point x="315" y="-130" type="curve" smooth="yes"/>
      <point x="275" y="-130"/>
      <point x="238" y="-126"/>
      <point x="208" y="-115" type="curve" smooth="yes"/>
      <point x="151" y="-94"/>
      <point x="133" y="-53"/>
      <point x="133" y="-4" type="curve" smooth="yes"/>
      <point x="133" y="16"/>
      <point x="136" y="33"/>
      <point x="142" y="56" type="curve"/>
      <point x="99" y="71" type="line"/>
      <point x="78" y="20"/>
      <point x="60" y="-33"/>
      <point x="60" y="-89" type="curve" smooth="yes"/>
      <point x="60" y="-149"/>
      <point x="80" y="-196"/>
      <point x="117" y="-228" type="curve" smooth="yes"/>
      <point x="157" y="-263"/>
      <point x="218" y="-282"/>
      <point x="294" y="-282" type="curve" smooth="yes"/>
      <point x="403" y="-282"/>
      <point x="469" y="-257"/>
      <point x="530" y="-209" type="curve" smooth="yes"/>
      <point x="557" y="-188"/>
      <point x="577" y="-163"/>
      <point x="591" y="-137" type="curve" smooth="yes"/>
      <point x="607" y="-107"/>
      <point x="617" y="-77"/>
      <point x="617" y="-46" type="curve" smooth="yes"/>
      <point x="617" y="4"/>
      <point x="585" y="21"/>
      <point x="540" y="25" type="curve" smooth="yes"/>
      <point x="516" y="27"/>
      <point x="500" y="28"/>
      <point x="484" y="33" type="curve" smooth="yes"/>
      <point x="465" y="39"/>
      <point x="454" y="51"/>
      <point x="454" y="68" type="curve" smooth="yes"/>
      <point x="454" y="93"/>
      <point x="478" y="120"/>
      <point x="513" y="120" type="curve" smooth="yes"/>
      <point x="528" y="120"/>
      <point x="561" y="118"/>
      <point x="595" y="82" type="curve" smooth="yes"/>
      <point x="624" y="51"/>
      <point x="652" y="4"/>
      <point x="710" y="4" type="curve" smooth="yes"/>
      <point x="768" y="4"/>
      <point x="795" y="41"/>
      <point x="801" y="53" type="curve"/>
      <point x="809" y="38"/>
      <point x="838" y="10"/>
      <point x="886" y="10" type="curve" smooth="yes"/>
      <point x="930" y="10"/>
      <point x="966" y="34"/>
      <point x="989" y="77" type="curve" smooth="yes"/>
      <point x="1009" y="115"/>
      <point x="1013" y="154"/>
      <point x="1013" y="176" type="curve" smooth="yes"/>
      <point x="1013" y="218"/>
      <point x="998" y="267"/>
      <point x="955" y="312" type="curve"/>
    </contour>
    <contour>
      <point x="537" y="0" type="move" name="caret_1"/>
    </contour>
    <contour>
      <point x="795" y="-29" type="move" name="bottom_1"/>
    </contour>
    <contour>
      <point x="793" y="286" type="move" name="top_1"/>
    </contour>
    <contour>
      <point x="235" y="89" type="move" name="top_2"/>
    </contour>
    <contour>
      <point x="304" y="-312" type="move" name="bottom_2"/>
    </contour>
  </outline>
</glyph>
<glyph name="uniFD0F" format="1">
  <advance width="827"/>
  <unicode hex="FD0F"/>
  <outline>
    <contour>
      <point x="777" y="281"/>
      <point x="759" y="311"/>
      <point x="733" y="331" type="curve" smooth="yes"/>
      <point x="707" y="351"/>
      <point x="675" y="362"/>
      <point x="647" y="362" type="curve" smooth="yes"/>
      <point x="588" y="362"/>
      <point x="524" y="313"/>
      <point x="466" y="251" type="curve" smooth="yes"/>
      <point x="420" y="202"/>
      <point x="392" y="159"/>
      <point x="379" y="139" type="curve"/>
      <point x="348" y="142"/>
      <point x="339" y="162"/>
      <point x="341" y="197" type="curve"/>
      <point x="293" y="178"/>
      <point x="219" y="157"/>
      <point x="136" y="139" type="curve"/>
      <point x="132" y="102"/>
      <point x="125" y="54"/>
      <point x="118" y="25" type="curve"/>
      <point x="130" y="28"/>
      <point x="148" y="31"/>
      <point x="155" y="33" type="curve"/>
      <point x="157" y="25"/>
      <point x="158" y="16"/>
      <point x="158" y="8" type="curve" smooth="yes"/>
      <point x="158" y="-48"/>
      <point x="110" y="-82"/>
      <point x="30" y="-127" type="curve" smooth="yes"/>
      <point x="-3" y="-145"/>
      <point x="15" y="-136"/>
      <point x="-120" y="-209" type="curve"/>
      <point x="-90" y="-252" type="line"/>
      <point x="-72" y="-245"/>
      <point x="-33" y="-241"/>
      <point x="-10" y="-241" type="curve" smooth="yes"/>
      <point x="9" y="-241"/>
      <point x="20" y="-244"/>
      <point x="41" y="-244" type="curve" smooth="yes"/>
      <point x="78" y="-244"/>
      <point x="107" y="-235"/>
      <point x="131" y="-218" type="curve" smooth="yes"/>
      <point x="157" y="-200"/>
      <point x="175" y="-177"/>
      <point x="189" y="-153" type="curve" smooth="yes"/>
      <point x="225" y="-91"/>
      <point x="238" y="-18"/>
      <point x="236" y="49" type="curve"/>
      <point x="257" y="54"/>
      <point x="286" y="63"/>
      <point x="306" y="68" type="curve"/>
      <point x="310" y="54"/>
      <point x="319" y="35"/>
      <point x="340" y="23" type="curve"/>
      <point x="330" y="-17" type="line"/>
      <point x="390" y="-17" type="line"/>
      <point x="397" y="8" type="line"/>
      <point x="418" y="3"/>
      <point x="451" y="4"/>
      <point x="476" y="4" type="curve" smooth="yes"/>
      <point x="544" y="4"/>
      <point x="618" y="32"/>
      <point x="676" y="76" type="curve" smooth="yes"/>
      <point x="707" y="99"/>
      <point x="731" y="126"/>
      <point x="748" y="155" type="curve" smooth="yes"/>
      <point x="769" y="190"/>
      <point x="777" y="221"/>
      <point x="777" y="245" type="curve" smooth="yes"/>
    </contour>
    <contour>
      <point x="672" y="180"/>
      <point x="660" y="170"/>
      <point x="636" y="159" type="curve" smooth="yes"/>
      <point x="608" y="146"/>
      <point x="576" y="139"/>
      <point x="541" y="139" type="curve" smooth="yes"/>
      <point x="452" y="139" type="line"/>
      <point x="454" y="141"/>
      <point x="476" y="171"/>
      <point x="496" y="193" type="curve" smooth="yes"/>
      <point x="522" y="221"/>
      <point x="561" y="249"/>
      <point x="604" y="249" type="curve" smooth="yes"/>
      <point x="629" y="249"/>
      <point x="647" y="240"/>
      <point x="657" y="231" type="curve" smooth="yes"/>
      <point x="672" y="218"/>
      <point x="681" y="194"/>
      <point x="682" y="191" type="curve"/>
    </contour>
    <contour>
      <point x="414" y="0" type="move" name="caret_1"/>
    </contour>
    <contour>
      <point x="529" y="-29" type="move" name="bottom_1"/>
    </contour>
    <contour>
      <point x="637" y="392" type="move" name="top_1"/>
    </contour>
    <contour>
      <point x="101" y="193" type="move" name="top_2"/>
    </contour>
    <contour>
      <point x="19" y="-271" type="move" name="bottom_2"/>
    </contour>
  </outline>
</glyph>
<glyph name="uniFD13" format="1">
  <advance width="874"/>
  <unicode hex="FD13"/>
  <outline>
    <contour>
      <point x="764" y="139" type="line" smooth="yes"/>
      <point x="749" y="139"/>
      <point x="721" y="134"/>
      <point x="706" y="127" type="curve"/>
      <point x="727" y="141"/>
      <point x="765" y="188"/>
      <point x="765" y="222" type="curve" smooth="yes"/>
      <point x="765" y="262"/>
      <point x="730" y="304"/>
      <point x="631" y="304" type="curve" smooth="yes"/>
      <point x="592" y="304"/>
      <point x="553" y="292"/>
      <point x="519" y="271" type="curve"/>
      <point x="509" y="243"/>
      <point x="501" y="213"/>
      <point x="498" y="178" type="curve"/>
      <point x="513" y="178"/>
      <point x="549" y="170"/>
      <point x="569" y="143" type="curve"/>
      <point x="545" y="127"/>
      <point x="517" y="116"/>
      <point x="500" y="110" type="curve" smooth="yes"/>
      <point x="484" y="104"/>
      <point x="469" y="98"/>
      <point x="460" y="92" type="curve" smooth="yes"/>
      <point x="432" y="73"/>
      <point x="430" y="44"/>
      <point x="423" y="-1" type="curve"/>
      <point x="423" y="-1"/>
      <point x="454" y="-7"/>
      <point x="480" y="-14" type="curve" smooth="yes"/>
      <point x="511" y="-23"/>
      <point x="543" y="-36"/>
      <point x="543" y="-52" type="curve" smooth="yes"/>
      <point x="543" y="-81"/>
      <point x="493" y="-105"/>
      <point x="428" y="-119" type="curve" smooth="yes"/>
      <point x="389" y="-127"/>
      <point x="344" y="-132"/>
      <point x="301" y="-132" type="curve" smooth="yes"/>
      <point x="232" y="-132"/>
      <point x="184" y="-113"/>
      <point x="159" y="-83" type="curve" smooth="yes"/>
      <point x="129" y="-48"/>
      <point x="130" y="3"/>
      <point x="142" y="54" type="curve"/>
      <point x="99" y="69" type="line"/>
      <point x="79" y="22"/>
      <point x="65" y="-15"/>
      <point x="61" y="-62" type="curve" smooth="yes"/>
      <point x="58" y="-96"/>
      <point x="61" y="-132"/>
      <point x="75" y="-166" type="curve" smooth="yes"/>
      <point x="90" y="-203"/>
      <point x="116" y="-232"/>
      <point x="155" y="-253" type="curve" smooth="yes"/>
      <point x="192" y="-273"/>
      <point x="239" y="-284"/>
      <point x="291" y="-284" type="curve" smooth="yes"/>
      <point x="370" y="-284"/>
      <point x="431" y="-268"/>
      <point x="487" y="-239" type="curve" smooth="yes"/>
      <point x="528" y="-218"/>
      <point x="561" y="-189"/>
      <point x="584" y="-156" type="curve"/>
      <point x="604" y="-125"/>
      <point x="616" y="-90"/>
      <point x="616" y="-54" type="curve" smooth="yes"/>
      <point x="616" y="-7"/>
      <point x="597" y="20"/>
      <point x="563" y="35" type="curve"/>
      <point x="587" y="47"/>
      <point x="606" y="62"/>
      <point x="630" y="83" type="curve"/>
      <point x="639" y="66"/>
      <point x="652" y="50"/>
      <point x="667" y="38" type="curve"/>
      <point x="694" y="14"/>
      <point x="731" y="0"/>
      <point x="770" y="0" type="curve" smooth="yes"/>
      <point x="874" y="0" type="line"/>
      <point x="874" y="139" type="line"/>
    </contour>
    <contour>
      <point x="427" y="0" type="move" name="caret_1"/>
    </contour>
    <contour>
      <point x="604" y="-250" type="move" name="bottom_1"/>
    </contour>
    <contour>
      <point x="621" y="334" type="move" name="top_1"/>
    </contour>
    <contour>
      <point x="265" y="56" type="move" name="top_2"/>
    </contour>
    <contour>
      <point x="301" y="-314" type="move" name="bottom_2"/>
    </contour>
  </outline>
</glyph>
<glyph name="uniFD17" format="1">
  <advance width="1075"/>
  <unicode hex="FD17"/>
  <outline>
    <contour>
      <point x="1032" y="139" type="line" smooth="yes"/>
      <point x="1008" y="139"/>
      <point x="992" y="144"/>
      <point x="983" y="154" type="curve"/>
      <point x="968" y="172"/>
      <point x="972" y="195"/>
      <point x="977" y="240" type="curve"/>
      <point x="926" y="221" type="line"/>
      <point x="926" y="196"/>
      <point x="922" y="175"/>
      <point x="912" y="159" type="curve" smooth="yes"/>
      <point x="902" y="143"/>
      <point x="888" y="135"/>
      <point x="869" y="135" type="curve" smooth="yes"/>
      <point x="839" y="135"/>
      <point x="831" y="154"/>
      <point x="829" y="184" type="curve" smooth="yes"/>
      <point x="828" y="201"/>
      <point x="830" y="219"/>
      <point x="834" y="240" type="curve"/>
      <point x="783" y="221" type="line"/>
      <point x="781" y="200"/>
      <point x="777" y="182"/>
      <point x="766" y="166" type="curve" smooth="yes"/>
      <point x="754" y="148"/>
      <point x="735" y="138"/>
      <point x="699" y="138" type="curve" smooth="yes"/>
      <point x="639" y="138"/>
      <point x="617" y="167"/>
      <point x="596" y="198" type="curve" smooth="yes"/>
      <point x="578" y="225"/>
      <point x="562" y="247"/>
      <point x="525" y="247" type="curve" smooth="yes"/>
      <point x="489" y="247"/>
      <point x="459" y="226"/>
      <point x="428" y="178" type="curve" smooth="yes"/>
      <point x="417" y="161"/>
      <point x="397" y="127"/>
      <point x="385" y="96" type="curve" smooth="yes"/>
      <point x="370" y="58"/>
      <point x="365" y="24"/>
      <point x="377" y="-3" type="curve" smooth="yes"/>
      <point x="387" y="-26"/>
      <point x="410" y="-44"/>
      <point x="450" y="-54" type="curve" smooth="yes"/>
      <point x="471" y="-59"/>
      <point x="504" y="-65"/>
      <point x="524" y="-67" type="curve"/>
      <point x="524" y="-93"/>
      <point x="478" y="-110"/>
      <point x="423" y="-120" type="curve" smooth="yes"/>
      <point x="387" y="-127"/>
      <point x="347" y="-130"/>
      <point x="315" y="-130" type="curve" smooth="yes"/>
      <point x="275" y="-130"/>
      <point x="238" y="-126"/>
      <point x="208" y="-115" type="curve" smooth="yes"/>
      <point x="151" y="-94"/>
      <point x="133" y="-53"/>
      <point x="133" y="-4" type="curve" smooth="yes"/>
      <point x="133" y="16"/>
      <point x="136" y="33"/>
      <point x="142" y="56" type="curve"/>
      <point x="99" y="71" type="line"/>
      <point x="78" y="20"/>
      <point x="60" y="-33"/>
      <point x="60" y="-89" type="curve" smooth="yes"/>
      <point x="60" y="-149"/>
      <point x="80" y="-196"/>
      <point x="117" y="-228" type="curve" smooth="yes"/>
      <point x="157" y="-263"/>
      <point x="218" y="-282"/>
      <point x="294" y="-282" type="curve" smooth="yes"/>
      <point x="390" y="-282"/>
      <point x="469" y="-257"/>
      <point x="530" y="-209" type="curve" smooth="yes"/>
      <point x="557" y="-188"/>
      <point x="577" y="-163"/>
      <point x="591" y="-137" type="curve" smooth="yes"/>
      <point x="607" y="-107"/>
      <point x="617" y="-79"/>
      <point x="617" y="-48" type="curve" smooth="yes"/>
      <point x="617" y="2"/>
      <point x="585" y="21"/>
      <point x="540" y="25" type="curve" smooth="yes"/>
      <point x="516" y="27"/>
      <point x="500" y="28"/>
      <point x="484" y="33" type="curve" smooth="yes"/>
      <point x="465" y="39"/>
      <point x="454" y="51"/>
      <point x="454" y="68" type="curve" smooth="yes"/>
      <point x="454" y="93"/>
      <point x="478" y="116"/>
      <point x="512" y="116" type="curve" smooth="yes"/>
      <point x="528" y="116"/>
      <point x="557" y="111"/>
      <point x="585" y="82" type="curve" smooth="yes"/>
      <point x="595" y="72"/>
      <point x="613" y="50"/>
      <point x="630" y="35" type="curve" smooth="yes"/>
      <point x="651" y="17"/>
      <point x="675" y="4"/>
      <point x="710" y="4" type="curve" smooth="yes"/>
      <point x="756" y="4"/>
      <point x="783" y="27"/>
      <point x="795" y="43" type="curve"/>
      <point x="802" y="25"/>
      <point x="819" y="0"/>
      <point x="861" y="0" type="curve" smooth="yes"/>
      <point x="912" y="0"/>
      <point x="933" y="35"/>
      <point x="939" y="48" type="curve"/>
      <point x="955" y="16"/>
      <point x="992" y="0"/>
      <point x="1030" y="0" type="curve" smooth="yes"/>
      <point x="1075" y="0" type="line"/>
      <point x="1075" y="139" type="line"/>
    </contour>
    <contour>
      <point x="543" y="0" type="move" name="caret_1"/>
    </contour>
    <contour>
      <point x="795" y="-29" type="move" name="bottom_1"/>
    </contour>
    <contour>
      <point x="798" y="280" type="move" name="top_1"/>
    </contour>
    <contour>
      <point x="228" y="92" type="move" name="top_2"/>
    </contour>
    <contour>
      <point x="304" y="-312" type="move" name="bottom_2"/>
    </contour>
  </outline>
</glyph>
<glyph name="uniFD21" format="1">
  <advance width="1225"/>
  <unicode hex="FD21"/>
  <outline>
    <contour>
      <point x="1117" y="139" type="line" smooth="yes"/>
      <point x="1101" y="139"/>
      <point x="1080" y="137"/>
      <point x="1060" y="130" type="curve"/>
      <point x="1066" y="138"/>
      <point x="1072" y="146"/>
      <point x="1077" y="154" type="curve" smooth="yes"/>
      <point x="1094" y="181"/>
      <point x="1106" y="220"/>
      <point x="1106" y="247" type="curve" smooth="yes"/>
      <point x="1106" y="279"/>
      <point x="1088" y="310"/>
      <point x="1062" y="331" type="curve" smooth="yes"/>
      <point x="1037" y="351"/>
      <point x="1005" y="361"/>
      <point x="977" y="361" type="curve" smooth="yes"/>
      <point x="948" y="361"/>
      <point x="918" y="351"/>
      <point x="882" y="328" type="curve" smooth="yes"/>
      <point x="851" y="308"/>
      <point x="820" y="279"/>
      <point x="795" y="252" type="curve" smooth="yes"/>
      <point x="772" y="227"/>
      <point x="741" y="190"/>
      <point x="706" y="139" type="curve"/>
      <point x="649" y="140"/>
      <point x="628" y="151"/>
      <point x="596" y="198" type="curve" smooth="yes"/>
      <point x="578" y="225"/>
      <point x="562" y="247"/>
      <point x="525" y="247" type="curve" smooth="yes"/>
      <point x="489" y="247"/>
      <point x="459" y="226"/>
      <point x="428" y="178" type="curve" smooth="yes"/>
      <point x="418" y="163"/>
      <point x="397" y="127"/>
      <point x="385" y="96" type="curve" smooth="yes"/>
      <point x="372" y="63"/>
      <point x="363" y="22"/>
      <point x="376" y="-5" type="curve" smooth="yes"/>
      <point x="385" y="-25"/>
      <point x="411" y="-43"/>
      <point x="450" y="-54" type="curve" smooth="yes"/>
      <point x="476" y="-61"/>
      <point x="504" y="-65"/>
      <point x="524" y="-67" type="curve"/>
      <point x="524" y="-79"/>
      <point x="495" y="-104"/>
      <point x="437" y="-118" type="curve" smooth="yes"/>
      <point x="408" y="-125"/>
      <point x="372" y="-130"/>
      <point x="315" y="-130" type="curve" smooth="yes"/>
      <point x="275" y="-130"/>
      <point x="238" y="-126"/>
      <point x="208" y="-115" type="curve" smooth="yes"/>
      <point x="151" y="-94"/>
      <point x="133" y="-53"/>
      <point x="133" y="-4" type="curve" smooth="yes"/>
      <point x="133" y="16"/>
      <point x="136" y="33"/>
      <point x="142" y="56" type="curve"/>
      <point x="99" y="71" type="line"/>
      <point x="78" y="20"/>
      <point x="60" y="-32"/>
      <point x="60" y="-90" type="curve" smooth="yes"/>
      <point x="60" y="-153"/>
      <point x="81" y="-196"/>
      <point x="117" y="-227" type="curve" smooth="yes"/>
      <point x="158" y="-262"/>
      <point x="219" y="-283"/>
      <point x="292" y="-283" type="curve" smooth="yes"/>
      <point x="392" y="-283"/>
      <point x="469" y="-257"/>
      <point x="530" y="-209" type="curve" smooth="yes"/>
      <point x="557" y="-188"/>
      <point x="577" y="-163"/>
      <point x="591" y="-137" type="curve" smooth="yes"/>
      <point x="607" y="-107"/>
      <point x="617" y="-74"/>
      <point x="617" y="-43" type="curve" smooth="yes"/>
      <point x="617" y="7"/>
      <point x="590" y="21"/>
      <point x="545" y="25" type="curve" smooth="yes"/>
      <point x="521" y="27"/>
      <point x="500" y="28"/>
      <point x="484" y="33" type="curve" smooth="yes"/>
      <point x="465" y="39"/>
      <point x="454" y="51"/>
      <point x="454" y="68" type="curve" smooth="yes"/>
      <point x="454" y="93"/>
      <point x="477" y="116"/>
      <point x="515" y="116" type="curve" smooth="yes"/>
      <point x="526" y="116"/>
      <point x="552" y="114"/>
      <point x="585" y="82" type="curve" smooth="yes"/>
      <point x="607" y="60"/>
      <point x="635" y="31"/>
      <point x="668" y="19" type="curve"/>
      <point x="661" y="-13" type="line"/>
      <point x="720" y="-13" type="line"/>
      <point x="726" y="8" type="line"/>
      <point x="749" y="4"/>
      <point x="771" y="4"/>
      <point x="797" y="4" type="curve" smooth="yes"/>
      <point x="856" y="4"/>
      <point x="915" y="4"/>
      <point x="974" y="4" type="curve" smooth="yes"/>
      <point x="1009" y="4"/>
      <point x="1085" y="0"/>
      <point x="1105" y="0" type="curve" smooth="yes"/>
      <point x="1225" y="0" type="line"/>
      <point x="1225" y="139" type="line"/>
    </contour>
    <contour>
      <point x="1001" y="180"/>
      <point x="989" y="170"/>
      <point x="965" y="159" type="curve" smooth="yes"/>
      <point x="937" y="146"/>
      <point x="905" y="139"/>
      <point x="870" y="139" type="curve" smooth="yes"/>
      <point x="781" y="139" type="line"/>
      <point x="783" y="141"/>
      <point x="805" y="171"/>
      <point x="825" y="193" type="curve" smooth="yes"/>
      <point x="851" y="221"/>
      <point x="890" y="249"/>
      <point x="934" y="249" type="curve" smooth="yes"/>
      <point x="988" y="249"/>
      <point x="1006" y="206"/>
      <point x="1011" y="191" type="curve"/>
    </contour>
    <contour>
      <point x="598" y="0" type="move" name="caret_1"/>
    </contour>
    <contour>
      <point x="857" y="-33" type="move" name="bottom_1"/>
    </contour>
    <contour>
      <point x="957" y="391" type="move" name="top_1"/>
    </contour>
    <contour>
      <point x="238" y="90" type="move" name="top_2"/>
    </contour>
    <contour>
      <point x="302" y="-313" type="move" name="bottom_2"/>
    </contour>
  </outline>
</glyph>
<glyph name="uniFD3E" format="1">
  <advance width="528"/>
  <unicode hex="FD3E"/>
  <outline>
    <contour>
      <point x="55" y="222"/>
      <point x="70" y="213"/>
      <point x="126" y="204" type="curve"/>
      <point x="137" y="136"/>
      <point x="176" y="124"/>
      <point x="201" y="124" type="curve" smooth="yes"/>
      <point x="215" y="124"/>
      <point x="225" y="128"/>
      <point x="225" y="128" type="curve" smooth="yes"/>
      <point x="221" y="181"/>
      <point x="233" y="214"/>
      <point x="288" y="233" type="curve"/>
      <point x="277" y="219"/>
      <point x="262" y="197"/>
      <point x="262" y="159" type="curve" smooth="yes"/>
      <point x="262" y="82"/>
      <point x="325" y="55"/>
      <point x="313" y="33" type="curve" smooth="yes"/>
      <point x="305" y="18"/>
      <point x="275" y="27"/>
      <point x="276" y="33" type="curve" smooth="yes"/>
      <point x="277" y="41"/>
      <point x="271" y="-15"/>
      <point x="311" y="-24" type="curve" smooth="yes"/>
      <point x="329" y="-28"/>
      <point x="345" y="-21"/>
      <point x="357" y="-14" type="curve"/>
      <point x="385" y="-48"/>
      <point x="409" y="-88"/>
      <point x="417" y="-115" type="curve"/>
      <point x="411" y="-114"/>
      <point x="406" y="-114"/>
      <point x="401" y="-114" type="curve" smooth="yes"/>
      <point x="362" y="-114"/>
      <point x="342" y="-143"/>
      <point x="342" y="-171" type="curve" smooth="yes"/>
      <point x="342" y="-203"/>
      <point x="368" y="-230"/>
      <point x="400" y="-230" type="curve"/>
      <point x="454" y="-230"/>
      <point x="487" y="-182"/>
      <point x="488" y="-126" type="curve" smooth="yes"/>
      <point x="490" y="-38"/>
      <point x="415" y="48"/>
      <point x="373" y="93" type="curve"/>
      <point x="375" y="100"/>
      <point x="377" y="106"/>
      <point x="372" y="118" type="curve" smooth="yes"/>
      <point x="367" y="131"/>
      <point x="358" y="134"/>
      <point x="343" y="138" type="curve" smooth="yes"/>
      <point x="327" y="142"/>
      <point x="311" y="145"/>
      <point x="315" y="169" type="curve"/>
      <point x="325" y="161"/>
      <point x="338" y="154"/>
      <point x="355" y="154" type="curve" smooth="yes"/>
      <point x="377" y="154"/>
      <point x="396" y="166"/>
      <point x="405" y="180" type="curve" smooth="yes"/>
      <point x="418" y="200"/>
      <point x="423" y="236"/>
      <point x="395" y="255" type="curve"/>
      <point x="406" y="266"/>
      <point x="414" y="278"/>
      <point x="414" y="297" type="curve" smooth="yes"/>
      <point x="414" y="330"/>
      <point x="388" y="355"/>
      <point x="355" y="355" type="curve" smooth="yes"/>
      <point x="340" y="355"/>
      <point x="326" y="350"/>
      <point x="315" y="341" type="curve"/>
      <point x="310" y="365"/>
      <point x="330" y="370"/>
      <point x="339" y="372" type="curve" smooth="yes"/>
      <point x="357" y="376"/>
      <point x="366" y="377"/>
      <point x="372" y="391" type="curve" smooth="yes"/>
      <point x="377" y="404"/>
      <point x="375" y="409"/>
      <point x="373" y="416" type="curve"/>
      <point x="410" y="456"/>
      <point x="490" y="545"/>
      <point x="488" y="636" type="curve" smooth="yes"/>
      <point x="487" y="691"/>
      <point x="455" y="737"/>
      <point x="400" y="739" type="curve"/>
      <point x="368" y="739"/>
      <point x="342" y="712"/>
      <point x="342" y="680" type="curve" smooth="yes"/>
      <point x="342" y="652"/>
      <point x="362" y="623"/>
      <point x="399" y="623" type="curve" smooth="yes"/>
      <point x="406" y="623"/>
      <point x="411" y="624"/>
      <point x="417" y="625" type="curve"/>
      <point x="409" y="597"/>
      <point x="385" y="557"/>
      <point x="357" y="524" type="curve"/>
      <point x="345" y="532"/>
      <point x="329" y="538"/>
      <point x="311" y="533" type="curve" smooth="yes"/>
      <point x="286" y="526"/>
      <point x="277" y="505"/>
      <point x="268" y="473" type="curve"/>
      <point x="293" y="497"/>
      <point x="309" y="489"/>
      <point x="313" y="477" type="curve" smooth="yes"/>
      <point x="322" y="451"/>
      <point x="262" y="427"/>
      <point x="262" y="351" type="curve" smooth="yes"/>
      <point x="262" y="313"/>
      <point x="277" y="291"/>
      <point x="288" y="277" type="curve"/>
      <point x="234" y="295"/>
      <point x="220" y="326"/>
      <point x="225" y="382" type="curve" smooth="yes"/>
      <point x="225" y="382"/>
      <point x="215" y="385"/>
      <point x="202" y="385" type="curve" smooth="yes"/>
      <point x="176" y="385"/>
      <point x="137" y="373"/>
      <point x="126" y="306" type="curve"/>
      <point x="75" y="298"/>
      <point x="51" y="287"/>
      <point x="30" y="255" type="curve" smooth="yes"/>
    </contour>
  </outline>
</glyph>
<glyph name="uniFDFC" format="1">
  <advance width="1274"/>
  <unicode hex="FDFC"/>
  <outline>
    <contour>
      <point x="60" y="-7"/>
      <point x="55" y="-114"/>
      <point x="149" y="-174" type="curve" smooth="yes"/>
      <point x="189" y="-199"/>
      <point x="248" y="-216"/>
      <point x="334" y="-214" type="curve"/>
      <point x="335" y="-232"/>
      <point x="336" y="-250"/>
      <point x="338" y="-268" type="curve"/>
      <point x="401" y="-241" type="line"/>
      <point x="400" y="-231"/>
      <point x="400" y="-220"/>
      <point x="399" y="-199" type="curve"/>
      <point x="429" y="-188"/>
      <point x="455" y="-171"/>
      <point x="476" y="-147" type="curve" smooth="yes"/>
      <point x="500" y="-119"/>
      <point x="517" y="-83"/>
      <point x="526" y="-40" type="curve" smooth="yes"/>
      <point x="534" y="-2"/>
      <point x="535" y="40"/>
      <point x="530" y="86" type="curve" smooth="yes"/>
      <point x="524" y="157"/>
      <point x="515" y="257"/>
      <point x="496" y="405" type="curve"/>
      <point x="489" y="446"/>
      <point x="501" y="465"/>
      <point x="534" y="483" type="curve"/>
      <point x="497" y="512"/>
      <point x="475" y="550"/>
      <point x="446" y="609" type="curve"/>
      <point x="371" y="498" type="line"/>
      <point x="401" y="359"/>
      <point x="417" y="283"/>
      <point x="438" y="170" type="curve" smooth="yes"/>
      <point x="451" y="99"/>
      <point x="459" y="52"/>
      <point x="459" y="28" type="curve" smooth="yes"/>
      <point x="459" y="1"/>
      <point x="449" y="-17"/>
      <point x="429" y="-31" type="curve" smooth="yes"/>
      <point x="417" y="-39"/>
      <point x="402" y="-46"/>
      <point x="386" y="-51" type="curve"/>
      <point x="379" y="6"/>
      <point x="365" y="62"/>
      <point x="342" y="106" type="curve" smooth="yes"/>
      <point x="312" y="160"/>
      <point x="267" y="196"/>
      <point x="201" y="191" type="curve" smooth="yes"/>
      <point x="116" y="185"/>
      <point x="63" y="112"/>
      <point x="60" y="18" type="curve" smooth="yes"/>
    </contour>
    <contour>
      <point x="595" y="549"/>
      <point x="613" y="575"/>
      <point x="640" y="609" type="curve"/>
      <point x="680" y="609" type="line"/>
      <point x="691" y="200" type="line" smooth="yes"/>
      <point x="692" y="180"/>
      <point x="696" y="165"/>
      <point x="706" y="155" type="curve" smooth="yes"/>
      <point x="716" y="145"/>
      <point x="731" y="140"/>
      <point x="752" y="140" type="curve" smooth="yes"/>
      <point x="834" y="139" type="line" smooth="yes"/>
      <point x="861" y="139"/>
      <point x="897" y="152"/>
      <point x="913" y="176" type="curve"/>
      <point x="890" y="206"/>
      <point x="867" y="232"/>
      <point x="844" y="257" type="curve"/>
      <point x="867" y="303"/>
      <point x="884" y="330"/>
      <point x="912" y="360" type="curve"/>
      <point x="959" y="308"/>
      <point x="983" y="259"/>
      <point x="983" y="192" type="curve" smooth="yes"/>
      <point x="983" y="148"/>
      <point x="971" y="101"/>
      <point x="948" y="65" type="curve" smooth="yes"/>
      <point x="921" y="22"/>
      <point x="879" y="0"/>
      <point x="826" y="0" type="curve" smooth="yes"/>
      <point x="734" y="1" type="line" smooth="yes"/>
      <point x="690" y="1"/>
      <point x="654" y="17"/>
      <point x="631" y="47" type="curve" smooth="yes"/>
      <point x="606" y="80"/>
      <point x="595" y="122"/>
      <point x="595" y="167" type="curve" smooth="yes"/>
      <point x="595" y="278"/>
      <point x="588" y="415"/>
      <point x="573" y="512" type="curve"/>
    </contour>
    <contour>
      <point x="677" y="-91"/>
      <point x="714" y="-53"/>
      <point x="723" y="-41" type="curve"/>
      <point x="747" y="-54"/>
      <point x="769" y="-74"/>
      <point x="783" y="-94" type="curve"/>
      <point x="802" y="-76"/>
      <point x="826" y="-51"/>
      <point x="833" y="-41" type="curve"/>
      <point x="864" y="-58"/>
      <point x="891" y="-86"/>
      <point x="902" y="-110" type="curve"/>
      <point x="894" y="-122"/>
      <point x="861" y="-158"/>
      <point x="839" y="-174" type="curve"/>
      <point x="826" y="-158"/>
      <point x="807" y="-137"/>
      <point x="786" y="-119" type="curve"/>
      <point x="772" y="-134"/>
      <point x="746" y="-160"/>
      <point x="729" y="-174" type="curve"/>
      <point x="712" y="-154"/>
      <point x="688" y="-127"/>
      <point x="659" y="-106" type="curve"/>
    </contour>
    <contour>
      <point x="869" y="-192"/>
      <point x="874" y="-190"/>
      <point x="913" y="-169" type="curve" smooth="yes"/>
      <point x="954" y="-147"/>
      <point x="994" y="-125"/>
      <point x="1019" y="-111" type="curve" smooth="yes"/>
      <point x="1093" y="-69"/>
      <point x="1147" y="-33"/>
      <point x="1147" y="27" type="curve" smooth="yes"/>
      <point x="1147" y="60"/>
      <point x="1130" y="88"/>
      <point x="1112" y="110" type="curve" smooth="yes"/>
      <point x="1087" y="141"/>
      <point x="1067" y="154"/>
      <point x="1067" y="154" type="curve"/>
      <point x="1090" y="192"/>
      <point x="1114" y="228"/>
      <point x="1141" y="261" type="curve"/>
      <point x="1141" y="261"/>
      <point x="1155" y="250"/>
      <point x="1173" y="225" type="curve" smooth="yes"/>
      <point x="1199" y="189"/>
      <point x="1225" y="135"/>
      <point x="1225" y="54" type="curve" smooth="yes"/>
      <point x="1225" y="2"/>
      <point x="1214" y="-75"/>
      <point x="1178" y="-137" type="curve" smooth="yes"/>
      <point x="1163" y="-163"/>
      <point x="1143" y="-187"/>
      <point x="1121" y="-202" type="curve" smooth="yes"/>
      <point x="1096" y="-219"/>
      <point x="1068" y="-227"/>
      <point x="1030" y="-227" type="curve" smooth="yes"/>
      <point x="1007" y="-227"/>
      <point x="999" y="-224"/>
      <point x="978" y="-224" type="curve" smooth="yes"/>
      <point x="957" y="-224"/>
      <point x="924" y="-227"/>
      <point x="899" y="-235" type="curve"/>
      <point x="869" y="-192" type="line"/>
    </contour>
    <contour>
      <point x="316" y="-62"/>
      <point x="276" y="-68"/>
      <point x="215" y="-46" type="curve" smooth="yes"/>
      <point x="152" y="-24"/>
      <point x="130" y="16"/>
      <point x="131" y="51" type="curve" smooth="yes"/>
      <point x="133" y="86"/>
      <point x="160" y="116"/>
      <point x="195" y="116" type="curve" smooth="yes"/>
      <point x="274" y="116"/>
      <point x="313" y="30"/>
      <point x="316" y="-62" type="curve"/>
    </contour>
  </outline>
</glyph>
<glyph name="uniFEAE" format="1">
  <advance width="366"/>
  <unicode hex="FEAE"/>
  <outline>
    <contour>
      <point x="125" y="180"/>
      <point x="101" y="145"/>
      <point x="78" y="104" type="curve"/>
      <point x="78" y="104"/>
      <point x="158" y="47"/>
      <point x="158" y="-26" type="curve" smooth="yes"/>
      <point x="158" y="-82"/>
      <point x="110" y="-116"/>
      <point x="30" y="-161" type="curve" smooth="yes"/>
      <point x="-35" y="-198"/>
      <point x="-120" y="-243"/>
      <point x="-120" y="-243" type="curve"/>
      <point x="-90" y="-286" type="line"/>
      <point x="-72" y="-279"/>
      <point x="-33" y="-275"/>
      <point x="-10" y="-275" type="curve" smooth="yes"/>
      <point x="9" y="-275"/>
      <point x="21" y="-278"/>
      <point x="41" y="-278" type="curve" smooth="yes"/>
      <point x="76" y="-278"/>
      <point x="107" y="-269"/>
      <point x="132" y="-252" type="curve" smooth="yes"/>
      <point x="159" y="-234"/>
      <point x="177" y="-206"/>
      <point x="188" y="-187" type="curve" smooth="yes"/>
      <point x="227" y="-120"/>
      <point x="237" y="-63"/>
      <point x="236" y="6" type="curve"/>
      <point x="249" y="2"/>
      <point x="264" y="0"/>
      <point x="280" y="0" type="curve" smooth="yes"/>
      <point x="366" y="0" type="line"/>
      <point x="366" y="139" type="line"/>
      <point x="267" y="139" type="line" smooth="yes"/>
      <point x="244" y="139"/>
      <point x="222" y="147"/>
      <point x="200" y="162" type="curve"/>
      <point x="168" y="185"/>
      <point x="155" y="212"/>
      <point x="155" y="212" type="curve"/>
    </contour>
    <contour>
      <point x="115" y="242" type="move" name="top"/>
    </contour>
    <contour>
      <point x="11" y="-308" type="move" name="bottom"/>
    </contour>
  </outline>
</glyph>
<glyph name="uniFEBA" format="1">
  <advance width="1111"/>
  <unicode hex="FEBA"/>
  <outline>
    <contour>
      <point x="986" y="139" type="line" smooth="yes"/>
      <point x="966" y="139"/>
      <point x="949" y="137"/>
      <point x="935" y="134" type="curve"/>
      <point x="942" y="145"/>
      <point x="940" y="141"/>
      <point x="949" y="155" type="curve" smooth="yes"/>
      <point x="966" y="181"/>
      <point x="977" y="220"/>
      <point x="977" y="247" type="curve" smooth="yes"/>
      <point x="977" y="278"/>
      <point x="962" y="308"/>
      <point x="933" y="331" type="curve" smooth="yes"/>
      <point x="910" y="349"/>
      <point x="878" y="362"/>
      <point x="848" y="362" type="curve" smooth="yes"/>
      <point x="774" y="362"/>
      <point x="692" y="280"/>
      <point x="666" y="252" type="curve" smooth="yes"/>
      <point x="623" y="205"/>
      <point x="585" y="150"/>
      <point x="579" y="140" type="curve"/>
      <point x="532" y="144"/>
      <point x="494" y="191"/>
      <point x="480" y="213" type="curve"/>
      <point x="453" y="183"/>
      <point x="427" y="147"/>
      <point x="407" y="109" type="curve"/>
      <point x="455" y="46"/>
      <point x="496" y="-13"/>
      <point x="496" y="-45" type="curve" smooth="yes"/>
      <point x="496" y="-81"/>
      <point x="457" y="-107"/>
      <point x="401" y="-120" type="curve" smooth="yes"/>
      <point x="372" y="-127"/>
      <point x="338" y="-131"/>
      <point x="303" y="-131" type="curve" smooth="yes"/>
      <point x="243" y="-131"/>
      <point x="186" y="-116"/>
      <point x="157" y="-81" type="curve" smooth="yes"/>
      <point x="130" y="-48"/>
      <point x="129" y="1"/>
      <point x="141" y="54" type="curve"/>
      <point x="98" y="69" type="line"/>
      <point x="78" y="28"/>
      <point x="63" y="-25"/>
      <point x="60" y="-68" type="curve" smooth="yes"/>
      <point x="58" y="-101"/>
      <point x="62" y="-137"/>
      <point x="74" y="-167" type="curve" smooth="yes"/>
      <point x="89" y="-206"/>
      <point x="121" y="-237"/>
      <point x="164" y="-257" type="curve" smooth="yes"/>
      <point x="192" y="-270"/>
      <point x="240" y="-286"/>
      <point x="298" y="-286" type="curve" smooth="yes"/>
      <point x="404" y="-286"/>
      <point x="460" y="-249"/>
      <point x="498" y="-213" type="curve" smooth="yes"/>
      <point x="558" y="-156"/>
      <point x="571" y="-87"/>
      <point x="571" y="-44" type="curve" smooth="yes"/>
      <point x="571" y="-25"/>
      <point x="571" y="-6"/>
      <point x="568" y="14" type="curve"/>
      <point x="585" y="9"/>
      <point x="605" y="6"/>
      <point x="617" y="5" type="curve" smooth="yes"/>
      <point x="636" y="4"/>
      <point x="675" y="5"/>
      <point x="687" y="5" type="curve" smooth="yes"/>
      <point x="703" y="5"/>
      <point x="861" y="3"/>
      <point x="902" y="2" type="curve" smooth="yes"/>
      <point x="930" y="1"/>
      <point x="951" y="0"/>
      <point x="981" y="0" type="curve" smooth="yes"/>
      <point x="1111" y="0" type="line"/>
      <point x="1111" y="139" type="line"/>
    </contour>
    <contour>
      <point x="873" y="181"/>
      <point x="857" y="166"/>
      <point x="818" y="152" type="curve" smooth="yes"/>
      <point x="793" y="143"/>
      <point x="771" y="139"/>
      <point x="741" y="139" type="curve" smooth="yes"/>
      <point x="652" y="139" type="line"/>
      <point x="663" y="155"/>
      <point x="678" y="174"/>
      <point x="697" y="193" type="curve" smooth="yes"/>
      <point x="725" y="222"/>
      <point x="758" y="249"/>
      <point x="806" y="249" type="curve" smooth="yes"/>
      <point x="826" y="249"/>
      <point x="841" y="244"/>
      <point x="852" y="236" type="curve" smooth="yes"/>
      <point x="871" y="223"/>
      <point x="880" y="201"/>
      <point x="883" y="191" type="curve"/>
    </contour>
    <contour>
      <point x="828" y="392" type="move" name="top"/>
    </contour>
    <contour>
      <point x="308" y="-316" type="move" name="bottom"/>
    </contour>
  </outline>
</glyph>
<glyph name="uniFECA" format="1">
  <advance width="562"/>
  <unicode hex="FECA"/>
  <outline>
    <contour>
      <point x="402" y="139" type="line" smooth="yes"/>
      <point x="396" y="139"/>
      <point x="391" y="140"/>
      <point x="385" y="141" type="curve"/>
      <point x="394" y="149"/>
      <point x="433" y="188"/>
      <point x="433" y="222" type="curve" smooth="yes"/>
      <point x="433" y="262"/>
      <point x="398" y="304"/>
      <point x="299" y="304" type="curve" smooth="yes"/>
      <point x="261" y="304"/>
      <point x="228" y="293"/>
      <point x="188" y="271" type="curve"/>
      <point x="176" y="244"/>
      <point x="170" y="210"/>
      <point x="166" y="177" type="curve"/>
      <point x="195" y="169"/>
      <point x="217" y="155"/>
      <point x="236" y="137" type="curve"/>
      <point x="210" y="125"/>
      <point x="185" y="109"/>
      <point x="162" y="90" type="curve" smooth="yes"/>
      <point x="128" y="62"/>
      <point x="99" y="27"/>
      <point x="77" y="-14" type="curve" smooth="yes"/>
      <point x="52" y="-59"/>
      <point x="37" y="-110"/>
      <point x="33" y="-166" type="curve" smooth="yes"/>
      <point x="28" y="-237"/>
      <point x="48" y="-311"/>
      <point x="92" y="-360" type="curve" smooth="yes"/>
      <point x="137" y="-410"/>
      <point x="200" y="-437"/>
      <point x="272" y="-437" type="curve" smooth="yes"/>
      <point x="323" y="-437"/>
      <point x="350" y="-423"/>
      <point x="376" y="-409" type="curve" smooth="yes"/>
      <point x="401" y="-396"/>
      <point x="434" y="-381"/>
      <point x="476" y="-383" type="curve"/>
      <point x="493" y="-330" type="line"/>
      <point x="451" y="-322"/>
      <point x="412" y="-320"/>
      <point x="386" y="-319" type="curve"/>
      <point x="379" y="-319"/>
      <point x="329" y="-316"/>
      <point x="289" y="-309" type="curve" smooth="yes"/>
      <point x="229" y="-298"/>
      <point x="188" y="-275"/>
      <point x="162" y="-247" type="curve" smooth="yes"/>
      <point x="126" y="-208"/>
      <point x="117" y="-159"/>
      <point x="122" y="-115" type="curve" smooth="yes"/>
      <point x="126" y="-77"/>
      <point x="141" y="-41"/>
      <point x="164" y="-11" type="curve" smooth="yes"/>
      <point x="194" y="29"/>
      <point x="237" y="61"/>
      <point x="285" y="77" type="curve"/>
      <point x="294" y="61"/>
      <point x="302" y="48"/>
      <point x="311" y="38" type="curve" smooth="yes"/>
      <point x="336" y="10"/>
      <point x="366" y="0"/>
      <point x="414" y="0" type="curve" smooth="yes"/>
      <point x="562" y="0" type="line"/>
      <point x="562" y="139" type="line"/>
    </contour>
    <contour>
      <point x="299" y="334" type="move" name="top"/>
    </contour>
    <contour>
      <point x="272" y="-467" type="move" name="bottom"/>
    </contour>
    <contour>
      <point x="285" y="-110" type="move" name="center"/>
    </contour>
  </outline>
</glyph>
<glyph name="uniFEFB" format="1">
  <advance width="405"/>
  <unicode hex="FEFB"/>
  <outline>
    <contour>
      <point x="374" y="503"/>
      <point x="350" y="547"/>
      <point x="332" y="608" type="curve"/>
      <point x="308" y="576"/>
      <point x="285" y="553"/>
      <point x="252" y="528" type="curve"/>
      <point x="260" y="498"/>
      <point x="269" y="461"/>
      <point x="270" y="419" type="curve" smooth="yes"/>
      <point x="271" y="385"/>
      <point x="267" y="346"/>
      <point x="253" y="305" type="curve"/>
      <point x="227" y="345"/>
      <point x="184" y="399"/>
      <point x="139" y="449" type="curve" smooth="yes"/>
      <point x="111" y="479"/>
      <point x="86" y="504"/>
      <point x="64" y="522" type="curve" smooth="yes"/>
      <point x="29" y="552"/>
      <point x="14" y="555"/>
      <point x="5" y="555" type="curve" smooth="yes"/>
      <point x="1" y="555"/>
      <point x="-11" y="554"/>
      <point x="-19" y="536" type="curve" smooth="yes"/>
      <point x="-28" y="516"/>
      <point x="-34" y="481"/>
      <point x="-40" y="441" type="curve" smooth="yes"/>
      <point x="-9" y="416"/>
      <point x="33" y="385"/>
      <point x="58" y="371" type="curve"/>
      <point x="70" y="390" type="line"/>
      <point x="139" y="326"/>
      <point x="182" y="266"/>
      <point x="213" y="219" type="curve"/>
      <point x="203" y="206"/>
      <point x="138" y="138"/>
      <point x="96" y="136" type="curve"/>
      <point x="73" y="134" type="line"/>
      <point x="67" y="85"/>
      <point x="65" y="44"/>
      <point x="66" y="-6" type="curve"/>
      <point x="168" y="-6"/>
      <point x="259" y="1"/>
      <point x="334" y="21" type="curve"/>
      <point x="336" y="39"/>
      <point x="341" y="79"/>
      <point x="342" y="85" type="curve" smooth="yes"/>
      <point x="346" y="124"/>
      <point x="334" y="167"/>
      <point x="302" y="223" type="curve"/>
      <point x="336" y="276"/>
      <point x="354" y="333"/>
      <point x="358" y="400" type="curve"/>
      <point x="377" y="389" type="line"/>
      <point x="415" y="478" type="line"/>
    </contour>
    <contour>
      <point x="242" y="136"/>
      <point x="210" y="134"/>
      <point x="181" y="133" type="curve"/>
      <point x="204" y="146"/>
      <point x="226" y="161"/>
      <point x="250" y="182" type="curve"/>
      <point x="262" y="167"/>
      <point x="270" y="150"/>
      <point x="276" y="139" type="curve"/>
    </contour>
    <contour>
      <point x="183" y="-19" type="move" name="caret_1"/>
    </contour>
    <contour>
      <point x="317" y="-38" type="move" name="bottom_1"/>
    </contour>
    <contour>
      <point x="229" y="586" type="move" name="top_1"/>
    </contour>
    <contour>
      <point x="-34" y="565" type="move" name="top_2"/>
    </contour>
    <contour>
      <point x="79" y="-56" type="move" name="bottom_2"/>
    </contour>
  </outline>
</glyph>
<glyph name="VaDotbelowar" format="1">
  <advance width="0"/>
  <outline>
    <contour>
      <point x="-11" y="776"/>
      <point x="-48" y="738"/>
      <point x="-66" y="723" type="curve"/>
      <point x="-37" y="702"/>
      <point x="-13" y="676"/>
      <point x="4" y="655" type="curve"/>
      <point x="26" y="672"/>
      <point x="59" y="708"/>
      <point x="68" y="719" type="curve"/>
      <point x="56" y="743"/>
      <point x="29" y="772"/>
      <point x="-1" y="788" type="curve"/>
    </contour>
    <contour>
      <point x="77" y="997"/>
      <point x="71" y="1009"/>
      <point x="62" y="1024" type="curve"/>
      <point x="56" y="1016"/>
      <point x="49" y="1007"/>
      <point x="43" y="998" type="curve" smooth="yes"/>
      <point x="34" y="986"/>
      <point x="26" y="974"/>
      <point x="18" y="961" type="curve" smooth="yes"/>
      <point x="12" y="949"/>
      <point x="6" y="936"/>
      <point x="2" y="923" type="curve"/>
      <point x="-1" y="934"/>
      <point x="-7" y="944"/>
      <point x="-12" y="956" type="curve" smooth="yes"/>
      <point x="-17" y="964"/>
      <point x="-22" y="973"/>
      <point x="-28" y="982" type="curve" smooth="yes"/>
      <point x="-36" y="996"/>
      <point x="-47" y="1010"/>
      <point x="-58" y="1024" type="curve"/>
      <point x="-67" y="1010"/>
      <point x="-73" y="999"/>
      <point x="-77" y="984" type="curve"/>
      <point x="-51" y="953"/>
      <point x="-31" y="921"/>
      <point x="-20" y="891" type="curve" smooth="yes"/>
      <point x="-14" y="873"/>
      <point x="-12" y="861"/>
      <point x="-10" y="839" type="curve"/>
      <point x="13" y="839" type="line"/>
      <point x="15" y="859"/>
      <point x="17" y="875"/>
      <point x="24" y="892" type="curve" smooth="yes"/>
      <point x="36" y="923"/>
      <point x="55" y="954"/>
      <point x="81" y="984" type="curve"/>
    </contour>
    <contour>
      <point x="3" y="1025" type="move" name="top"/>
    </contour>
    <contour>
      <point x="4" y="635" type="move" name="_top"/>
    </contour>
  </outline>
</glyph>
<glyph name="uni062D06450649" format="1">
  <advance width="1168"/>
  <outline>
    <contour>
      <point x="1020" y="315"/>
      <point x="937" y="343"/>
      <point x="875" y="376" type="curve" smooth="yes"/>
      <point x="845" y="392"/>
      <point x="825" y="401"/>
      <point x="798" y="407" type="curve"/>
      <point x="765" y="413"/>
      <point x="736" y="409"/>
      <point x="709" y="396" type="curve" smooth="yes"/>
      <point x="677" y="380"/>
      <point x="658" y="353"/>
      <point x="641" y="322" type="curve"/>
      <point x="663" y="283" type="line"/>
      <point x="678" y="313"/>
      <point x="699" y="321"/>
      <point x="723" y="321" type="curve" smooth="yes"/>
      <point x="757" y="321"/>
      <point x="782" y="301"/>
      <point x="816" y="279" type="curve"/>
      <point x="779" y="279"/>
      <point x="745" y="267"/>
      <point x="715" y="252" type="curve"/>
      <point x="680" y="237"/>
      <point x="639" y="210"/>
      <point x="602" y="160" type="curve" smooth="yes"/>
      <point x="576" y="125"/>
      <point x="544" y="103"/>
      <point x="510" y="89" type="curve" smooth="yes"/>
      <point x="468" y="71"/>
      <point x="424" y="66"/>
      <point x="392" y="65" type="curve"/>
      <point x="384" y="37"/>
      <point x="379" y="10"/>
      <point x="379" y="-29" type="curve"/>
      <point x="429" y="-33"/>
      <point x="461" y="-37"/>
      <point x="488" y="-44" type="curve" smooth="yes"/>
      <point x="522" y="-53"/>
      <point x="542" y="-65"/>
      <point x="543" y="-77" type="curve"/>
      <point x="543" y="-107"/>
      <point x="483" y="-131"/>
      <point x="418" y="-145" type="curve" smooth="yes"/>
      <point x="376" y="-153"/>
      <point x="332" y="-158"/>
      <point x="299" y="-158" type="curve" smooth="yes"/>
      <point x="229" y="-158"/>
      <point x="184" y="-138"/>
      <point x="159" y="-108" type="curve" smooth="yes"/>
      <point x="133" y="-77"/>
      <point x="128" y="-34"/>
      <point x="142" y="29" type="curve"/>
      <point x="99" y="44" type="line"/>
      <point x="75" y="-15"/>
      <point x="64" y="-54"/>
      <point x="61" y="-93" type="curve" smooth="yes"/>
      <point x="58" y="-129"/>
      <point x="63" y="-162"/>
      <point x="75" y="-191" type="curve" smooth="yes"/>
      <point x="91" y="-229"/>
      <point x="116" y="-257"/>
      <point x="155" y="-278" type="curve" smooth="yes"/>
      <point x="192" y="-298"/>
      <point x="240" y="-309"/>
      <point x="288" y="-309" type="curve" smooth="yes"/>
      <point x="338" y="-309"/>
      <point x="390" y="-301"/>
      <point x="436" y="-284" type="curve" smooth="yes"/>
      <point x="484" y="-267"/>
      <point x="526" y="-241"/>
      <point x="556" y="-207" type="curve" smooth="yes"/>
      <point x="586" y="-174"/>
      <point x="605" y="-132"/>
      <point x="605" y="-82" type="curve" smooth="yes"/>
      <point x="605" y="-35"/>
      <point x="582" y="1"/>
      <point x="537" y="20" type="curve"/>
      <point x="561" y="27"/>
      <point x="590" y="45"/>
      <point x="603" y="56" type="curve"/>
      <point x="650" y="29"/>
      <point x="701" y="-2"/>
      <point x="751" y="-7" type="curve"/>
      <point x="786" y="22"/>
      <point x="807" y="57"/>
      <point x="808" y="98" type="curve" smooth="yes"/>
      <point x="808" y="127"/>
      <point x="801" y="160"/>
      <point x="766" y="190" type="curve"/>
      <point x="792" y="210"/>
      <point x="830" y="221"/>
      <point x="873" y="225" type="curve" smooth="yes"/>
      <point x="925" y="230"/>
      <point x="984" y="222"/>
      <point x="1034" y="204" type="curve"/>
      <point x="1070" y="244"/>
      <point x="1083" y="265"/>
      <point x="1108" y="307" type="curve"/>
    </contour>
    <contour>
      <point x="715" y="95"/>
      <point x="679" y="105"/>
      <point x="638" y="134" type="curve"/>
      <point x="650" y="149"/>
      <point x="665" y="160"/>
      <point x="687" y="160" type="curve" smooth="yes"/>
      <point x="743" y="160"/>
      <point x="756" y="101"/>
      <point x="756" y="87" type="curve"/>
    </contour>
    <contour>
      <point x="957" y="160" type="move" name="bottom_1"/>
    </contour>
    <contour>
      <point x="476" y="225" type="move" name="top_2"/>
    </contour>
    <contour>
      <point x="772" y="0" type="move" name="caret_2"/>
    </contour>
    <contour>
      <point x="386" y="0" type="move" name="caret_1"/>
    </contour>
    <contour>
      <point x="308" y="-339" type="move" name="bottom_3"/>
    </contour>
    <contour>
      <point x="765" y="443" type="move" name="top_1"/>
    </contour>
    <contour>
      <point x="246" y="44" type="move" name="top_3"/>
    </contour>
    <contour>
      <point x="726" y="-103" type="move" name="bottom_2"/>
    </contour>
  </outline>
</glyph>
<glyph name="uni063306450649" format="1">
  <advance width="1283"/>
  <outline>
    <contour>
      <point x="1151" y="399"/>
      <point x="1135" y="377"/>
      <point x="1115" y="347" type="curve"/>
      <point x="1164" y="278" type="line"/>
      <point x="1152" y="258"/>
      <point x="1140" y="248"/>
      <point x="1111" y="248" type="curve" smooth="yes"/>
      <point x="1098" y="248"/>
      <point x="1076" y="250"/>
      <point x="1064" y="263" type="curve"/>
      <point x="1052" y="275"/>
      <point x="1049" y="297"/>
      <point x="1050" y="317" type="curve"/>
      <point x="1051" y="329"/>
      <point x="1053" y="341"/>
      <point x="1054" y="353" type="curve"/>
      <point x="1003" y="334" type="line"/>
      <point x="1003" y="326"/>
      <point x="1002" y="319"/>
      <point x="1001" y="312" type="curve"/>
      <point x="994" y="275"/>
      <point x="973" y="246"/>
      <point x="935" y="246" type="curve" smooth="yes"/>
      <point x="895" y="246"/>
      <point x="882" y="275"/>
      <point x="864" y="299" type="curve" smooth="yes"/>
      <point x="851" y="317"/>
      <point x="836" y="332"/>
      <point x="806" y="332" type="curve" smooth="yes"/>
      <point x="787" y="332"/>
      <point x="766" y="326"/>
      <point x="745" y="314" type="curve" smooth="yes"/>
      <point x="723" y="301"/>
      <point x="700" y="279"/>
      <point x="685" y="258" type="curve" smooth="yes"/>
      <point x="675" y="244"/>
      <point x="662" y="221"/>
      <point x="656" y="205" type="curve" smooth="yes"/>
      <point x="649" y="186"/>
      <point x="645" y="162"/>
      <point x="646" y="138" type="curve"/>
      <point x="566" y="139"/>
      <point x="498" y="129"/>
      <point x="453" y="93" type="curve"/>
      <point x="432" y="72"/>
      <point x="427" y="59"/>
      <point x="418" y="2" type="curve"/>
      <point x="446" y="-3"/>
      <point x="455" y="-5"/>
      <point x="484" y="-12" type="curve"/>
      <point x="514" y="-21"/>
      <point x="543" y="-34"/>
      <point x="543" y="-49" type="curve" smooth="yes"/>
      <point x="543" y="-77"/>
      <point x="498" y="-99"/>
      <point x="438" y="-113" type="curve" smooth="yes"/>
      <point x="396" y="-123"/>
      <point x="348" y="-128"/>
      <point x="303" y="-128" type="curve" smooth="yes"/>
      <point x="234" y="-128"/>
      <point x="185" y="-114"/>
      <point x="159" y="-80" type="curve" smooth="yes"/>
      <point x="130" y="-44"/>
      <point x="129" y="0"/>
      <point x="142" y="57" type="curve"/>
      <point x="99" y="72" type="line"/>
      <point x="78" y="23"/>
      <point x="65" y="-13"/>
      <point x="61" y="-59" type="curve" smooth="yes"/>
      <point x="58" y="-93"/>
      <point x="61" y="-129"/>
      <point x="75" y="-163" type="curve" smooth="yes"/>
      <point x="90" y="-200"/>
      <point x="117" y="-229"/>
      <point x="154" y="-250" type="curve" smooth="yes"/>
      <point x="192" y="-270"/>
      <point x="239" y="-281"/>
      <point x="294" y="-281" type="curve" smooth="yes"/>
      <point x="357" y="-281"/>
      <point x="416" y="-270"/>
      <point x="466" y="-249" type="curve" smooth="yes"/>
      <point x="528" y="-222"/>
      <point x="577" y="-181"/>
      <point x="606" y="-126" type="curve" smooth="yes"/>
      <point x="621" y="-96"/>
      <point x="629" y="-66"/>
      <point x="630" y="-40" type="curve"/>
      <point x="630" y="3"/>
      <point x="611" y="29"/>
      <point x="572" y="49" type="curve"/>
      <point x="639" y="49"/>
      <point x="730" y="22"/>
      <point x="803" y="-27" type="curve"/>
      <point x="823" y="32"/>
      <point x="828" y="76"/>
      <point x="828" y="123" type="curve"/>
      <point x="769" y="138"/>
      <point x="718" y="155"/>
      <point x="718" y="184" type="curve" smooth="yes"/>
      <point x="718" y="206"/>
      <point x="749" y="236"/>
      <point x="790" y="236" type="curve" smooth="yes"/>
      <point x="830" y="236"/>
      <point x="850" y="197"/>
      <point x="867" y="168" type="curve" smooth="yes"/>
      <point x="879" y="147"/>
      <point x="900" y="117"/>
      <point x="943" y="117" type="curve" smooth="yes"/>
      <point x="995" y="117"/>
      <point x="1013" y="151"/>
      <point x="1021" y="166" type="curve"/>
      <point x="1029" y="151"/>
      <point x="1058" y="123"/>
      <point x="1106" y="123" type="curve" smooth="yes"/>
      <point x="1150" y="123"/>
      <point x="1186" y="147"/>
      <point x="1209" y="190" type="curve" smooth="yes"/>
      <point x="1229" y="228"/>
      <point x="1233" y="267"/>
      <point x="1233" y="289" type="curve" smooth="yes"/>
      <point x="1233" y="331"/>
      <point x="1218" y="380"/>
      <point x="1175" y="425" type="curve"/>
    </contour>
    <contour>
      <point x="1035" y="74" type="move" name="bottom_1"/>
    </contour>
    <contour>
      <point x="716" y="372" type="move" name="top_2"/>
    </contour>
    <contour>
      <point x="855" y="0" type="move" name="caret_2"/>
    </contour>
    <contour>
      <point x="428" y="0" type="move" name="caret_1"/>
    </contour>
    <contour>
      <point x="314" y="-311" type="move" name="bottom_3"/>
    </contour>
    <contour>
      <point x="1003" y="374" type="move" name="top_1"/>
    </contour>
    <contour>
      <point x="282" y="46" type="move" name="top_3"/>
    </contour>
    <contour>
      <point x="763" y="-67" type="move" name="bottom_2"/>
    </contour>
  </outline>
</glyph>
<glyph name="uni063506450649" format="1">
  <advance width="1357"/>
  <outline>
    <contour>
      <point x="1307" y="392"/>
      <point x="1291" y="422"/>
      <point x="1263" y="444" type="curve" smooth="yes"/>
      <point x="1237" y="464"/>
      <point x="1205" y="475"/>
      <point x="1177" y="475" type="curve" smooth="yes"/>
      <point x="1117" y="475"/>
      <point x="1052" y="424"/>
      <point x="996" y="364" type="curve" smooth="yes"/>
      <point x="969" y="335"/>
      <point x="941" y="301"/>
      <point x="907" y="252" type="curve"/>
      <point x="888" y="262"/>
      <point x="884" y="272"/>
      <point x="864" y="299" type="curve" smooth="yes"/>
      <point x="851" y="317"/>
      <point x="836" y="332"/>
      <point x="806" y="332" type="curve" smooth="yes"/>
      <point x="787" y="332"/>
      <point x="766" y="326"/>
      <point x="745" y="314" type="curve" smooth="yes"/>
      <point x="723" y="301"/>
      <point x="700" y="279"/>
      <point x="685" y="258" type="curve" smooth="yes"/>
      <point x="675" y="244"/>
      <point x="662" y="221"/>
      <point x="656" y="205" type="curve" smooth="yes"/>
      <point x="649" y="186"/>
      <point x="645" y="162"/>
      <point x="646" y="138" type="curve"/>
      <point x="566" y="139"/>
      <point x="498" y="129"/>
      <point x="453" y="93" type="curve"/>
      <point x="432" y="72"/>
      <point x="427" y="59"/>
      <point x="418" y="2" type="curve"/>
      <point x="446" y="-3"/>
      <point x="455" y="-5"/>
      <point x="484" y="-12" type="curve"/>
      <point x="514" y="-21"/>
      <point x="543" y="-34"/>
      <point x="543" y="-49" type="curve" smooth="yes"/>
      <point x="543" y="-77"/>
      <point x="498" y="-99"/>
      <point x="438" y="-113" type="curve" smooth="yes"/>
      <point x="396" y="-123"/>
      <point x="348" y="-128"/>
      <point x="303" y="-128" type="curve" smooth="yes"/>
      <point x="234" y="-128"/>
      <point x="185" y="-114"/>
      <point x="159" y="-80" type="curve" smooth="yes"/>
      <point x="130" y="-44"/>
      <point x="129" y="0"/>
      <point x="142" y="57" type="curve"/>
      <point x="99" y="72" type="line"/>
      <point x="78" y="23"/>
      <point x="65" y="-13"/>
      <point x="61" y="-59" type="curve" smooth="yes"/>
      <point x="58" y="-93"/>
      <point x="61" y="-129"/>
      <point x="75" y="-163" type="curve" smooth="yes"/>
      <point x="90" y="-200"/>
      <point x="117" y="-229"/>
      <point x="154" y="-250" type="curve" smooth="yes"/>
      <point x="192" y="-270"/>
      <point x="239" y="-281"/>
      <point x="294" y="-281" type="curve" smooth="yes"/>
      <point x="357" y="-281"/>
      <point x="416" y="-270"/>
      <point x="466" y="-249" type="curve" smooth="yes"/>
      <point x="528" y="-222"/>
      <point x="577" y="-181"/>
      <point x="606" y="-126" type="curve" smooth="yes"/>
      <point x="621" y="-96"/>
      <point x="629" y="-66"/>
      <point x="630" y="-40" type="curve"/>
      <point x="630" y="3"/>
      <point x="611" y="29"/>
      <point x="572" y="49" type="curve"/>
      <point x="632" y="49"/>
      <point x="736" y="21"/>
      <point x="803" y="-27" type="curve"/>
      <point x="823" y="32"/>
      <point x="828" y="76"/>
      <point x="828" y="123" type="curve"/>
      <point x="769" y="138"/>
      <point x="718" y="155"/>
      <point x="718" y="184" type="curve" smooth="yes"/>
      <point x="718" y="206"/>
      <point x="749" y="232"/>
      <point x="790" y="232" type="curve" smooth="yes"/>
      <point x="830" y="232"/>
      <point x="852" y="197"/>
      <point x="874" y="168" type="curve" smooth="yes"/>
      <point x="893" y="143"/>
      <point x="906" y="136"/>
      <point x="929" y="128" type="curve"/>
      <point x="970" y="116"/>
      <point x="1008" y="118"/>
      <point x="1018" y="119" type="curve"/>
      <point x="1085" y="123"/>
      <point x="1162" y="155"/>
      <point x="1207" y="189" type="curve" smooth="yes"/>
      <point x="1235" y="210"/>
      <point x="1261" y="239"/>
      <point x="1278" y="267" type="curve" smooth="yes"/>
      <point x="1297" y="299"/>
      <point x="1307" y="333"/>
      <point x="1307" y="359" type="curve" smooth="yes"/>
    </contour>
    <contour>
      <point x="1205" y="296"/>
      <point x="1191" y="283"/>
      <point x="1167" y="272" type="curve" smooth="yes"/>
      <point x="1138" y="259"/>
      <point x="1106" y="252"/>
      <point x="1071" y="252" type="curve" smooth="yes"/>
      <point x="982" y="252" type="line"/>
      <point x="997" y="273"/>
      <point x="1012" y="291"/>
      <point x="1027" y="306" type="curve" smooth="yes"/>
      <point x="1057" y="337"/>
      <point x="1090" y="362"/>
      <point x="1135" y="362" type="curve" smooth="yes"/>
      <point x="1162" y="362"/>
      <point x="1178" y="353"/>
      <point x="1190" y="342" type="curve"/>
      <point x="1203" y="329"/>
      <point x="1210" y="312"/>
      <point x="1213" y="304" type="curve"/>
    </contour>
    <contour>
      <point x="1066" y="78" type="move" name="bottom_1"/>
    </contour>
    <contour>
      <point x="766" y="362" type="move" name="top_2"/>
    </contour>
    <contour>
      <point x="911" y="0" type="move" name="caret_2"/>
    </contour>
    <contour>
      <point x="466" y="0" type="move" name="caret_1"/>
    </contour>
    <contour>
      <point x="314" y="-311" type="move" name="bottom_3"/>
    </contour>
    <contour>
      <point x="1157" y="505" type="move" name="top_1"/>
    </contour>
    <contour>
      <point x="803" y="-67" type="move" name="bottom_2"/>
    </contour>
    <contour>
      <point x="284" y="50" type="move" name="top_3"/>
    </contour>
  </outline>
</glyph>
<glyph name="uni063906450649" format="1">
  <advance width="1074"/>
  <outline>
    <contour>
      <point x="960" y="354"/>
      <point x="868" y="331"/>
      <point x="834" y="320" type="curve"/>
      <point x="808" y="332"/>
      <point x="772" y="360"/>
      <point x="762" y="398" type="curve"/>
      <point x="776" y="406"/>
      <point x="808" y="422"/>
      <point x="856" y="422" type="curve" smooth="yes"/>
      <point x="882" y="422"/>
      <point x="905" y="417"/>
      <point x="934" y="407" type="curve"/>
      <point x="980" y="449" type="line"/>
      <point x="940" y="509"/>
      <point x="896" y="528"/>
      <point x="852" y="528" type="curve" smooth="yes"/>
      <point x="804" y="528"/>
      <point x="764" y="506"/>
      <point x="732" y="476" type="curve" smooth="yes"/>
      <point x="700" y="446"/>
      <point x="675" y="404"/>
      <point x="675" y="358" type="curve" smooth="yes"/>
      <point x="675" y="327"/>
      <point x="686" y="287"/>
      <point x="716" y="261" type="curve"/>
      <point x="681" y="246"/>
      <point x="631" y="218"/>
      <point x="594" y="168" type="curve" smooth="yes"/>
      <point x="535" y="89"/>
      <point x="450" y="67"/>
      <point x="392" y="65" type="curve"/>
      <point x="384" y="37"/>
      <point x="379" y="10"/>
      <point x="379" y="-29" type="curve"/>
      <point x="429" y="-33"/>
      <point x="461" y="-37"/>
      <point x="488" y="-44" type="curve" smooth="yes"/>
      <point x="522" y="-53"/>
      <point x="542" y="-65"/>
      <point x="543" y="-77" type="curve"/>
      <point x="543" y="-107"/>
      <point x="483" y="-131"/>
      <point x="418" y="-145" type="curve" smooth="yes"/>
      <point x="376" y="-153"/>
      <point x="332" y="-158"/>
      <point x="299" y="-158" type="curve" smooth="yes"/>
      <point x="229" y="-158"/>
      <point x="184" y="-138"/>
      <point x="159" y="-108" type="curve" smooth="yes"/>
      <point x="133" y="-77"/>
      <point x="128" y="-34"/>
      <point x="142" y="29" type="curve"/>
      <point x="99" y="44" type="line"/>
      <point x="75" y="-15"/>
      <point x="64" y="-54"/>
      <point x="61" y="-93" type="curve" smooth="yes"/>
      <point x="58" y="-129"/>
      <point x="63" y="-162"/>
      <point x="75" y="-191" type="curve" smooth="yes"/>
      <point x="91" y="-229"/>
      <point x="116" y="-257"/>
      <point x="155" y="-278" type="curve" smooth="yes"/>
      <point x="192" y="-298"/>
      <point x="240" y="-309"/>
      <point x="288" y="-309" type="curve" smooth="yes"/>
      <point x="338" y="-309"/>
      <point x="390" y="-301"/>
      <point x="436" y="-284" type="curve" smooth="yes"/>
      <point x="484" y="-267"/>
      <point x="526" y="-241"/>
      <point x="556" y="-207" type="curve" smooth="yes"/>
      <point x="586" y="-174"/>
      <point x="605" y="-132"/>
      <point x="605" y="-82" type="curve" smooth="yes"/>
      <point x="605" y="-35"/>
      <point x="582" y="1"/>
      <point x="537" y="20" type="curve"/>
      <point x="562" y="27"/>
      <point x="581" y="40"/>
      <point x="594" y="51" type="curve"/>
      <point x="646" y="21"/>
      <point x="692" y="-1"/>
      <point x="750" y="-7" type="curve"/>
      <point x="785" y="22"/>
      <point x="807" y="58"/>
      <point x="807" y="101" type="curve" smooth="yes"/>
      <point x="807" y="125"/>
      <point x="800" y="158"/>
      <point x="769" y="187" type="curve"/>
      <point x="828" y="220"/>
      <point x="888" y="238"/>
      <point x="984" y="261" type="curve"/>
      <point x="1003" y="296"/>
      <point x="1014" y="332"/>
      <point x="1024" y="367" type="curve"/>
    </contour>
    <contour>
      <point x="710" y="98"/>
      <point x="678" y="107"/>
      <point x="640" y="133" type="curve"/>
      <point x="651" y="147"/>
      <point x="665" y="157"/>
      <point x="686" y="157" type="curve" smooth="yes"/>
      <point x="736" y="157"/>
      <point x="748" y="102"/>
      <point x="748" y="90" type="curve"/>
    </contour>
    <contour>
      <point x="889" y="4" type="move" name="bottom_1"/>
    </contour>
    <contour>
      <point x="498" y="287" type="move" name="top_2"/>
    </contour>
    <contour>
      <point x="716" y="0" type="move" name="caret_2"/>
    </contour>
    <contour>
      <point x="358" y="0" type="move" name="caret_1"/>
    </contour>
    <contour>
      <point x="308" y="-339" type="move" name="bottom_3"/>
    </contour>
    <contour>
      <point x="852" y="558" type="move" name="top_1"/>
    </contour>
    <contour>
      <point x="250" y="44" type="move" name="top_3"/>
    </contour>
    <contour>
      <point x="656" y="-205" type="move" name="bottom_2"/>
    </contour>
  </outline>
</glyph>
<glyph name="uni064306440627" format="1">
  <advance width="745"/>
  <outline>
    <contour>
      <point x="666" y="194"/>
      <point x="654" y="231"/>
      <point x="632" y="273" type="curve" smooth="yes"/>
      <point x="611" y="312"/>
      <point x="579" y="349"/>
      <point x="538" y="382" type="curve"/>
      <point x="589" y="411"/>
      <point x="660" y="445"/>
      <point x="721" y="470" type="curve"/>
      <point x="734" y="521"/>
      <point x="739" y="558"/>
      <point x="745" y="608" type="curve"/>
      <point x="631" y="556"/>
      <point x="487" y="483"/>
      <point x="409" y="412" type="curve"/>
      <point x="402" y="477"/>
      <point x="396" y="543"/>
      <point x="389" y="608" type="curve"/>
      <point x="347" y="578"/>
      <point x="330" y="559"/>
      <point x="297" y="516" type="curve"/>
      <point x="302" y="477"/>
      <point x="308" y="438"/>
      <point x="313" y="399" type="curve" smooth="yes"/>
      <point x="318" y="361"/>
      <point x="320" y="339"/>
      <point x="320" y="314" type="curve" smooth="yes"/>
      <point x="320" y="274"/>
      <point x="315" y="252"/>
      <point x="307" y="229" type="curve"/>
      <point x="298" y="261"/>
      <point x="284" y="294"/>
      <point x="268" y="323" type="curve" smooth="yes"/>
      <point x="249" y="358"/>
      <point x="222" y="393"/>
      <point x="191" y="426" type="curve" smooth="yes"/>
      <point x="126" y="496"/>
      <point x="45" y="558"/>
      <point x="13" y="558" type="curve" smooth="yes"/>
      <point x="-6" y="558"/>
      <point x="-19" y="545"/>
      <point x="-21" y="525" type="curve" smooth="yes"/>
      <point x="-22" y="513"/>
      <point x="-25" y="494"/>
      <point x="-30" y="446" type="curve"/>
      <point x="-30" y="446"/>
      <point x="24" y="405"/>
      <point x="67" y="377" type="curve"/>
      <point x="81" y="401" type="line"/>
      <point x="97" y="388"/>
      <point x="126" y="362"/>
      <point x="159" y="323" type="curve" smooth="yes"/>
      <point x="223" y="247"/>
      <point x="244" y="191"/>
      <point x="252" y="147" type="curve"/>
      <point x="202" y="86"/>
      <point x="123" y="36"/>
      <point x="19" y="-14" type="curve"/>
      <point x="28" y="-64" type="line"/>
      <point x="79" y="-49"/>
      <point x="95" y="-46"/>
      <point x="123" y="-42" type="curve" smooth="yes"/>
      <point x="161" y="-37"/>
      <point x="198" y="-31"/>
      <point x="235" y="-10" type="curve" smooth="yes"/>
      <point x="290" y="21"/>
      <point x="326" y="72"/>
      <point x="345" y="111" type="curve"/>
      <point x="354" y="77"/>
      <point x="367" y="50"/>
      <point x="389" y="31" type="curve" smooth="yes"/>
      <point x="414" y="11"/>
      <point x="449" y="0"/>
      <point x="502" y="0" type="curve" smooth="yes"/>
      <point x="554" y="0"/>
      <point x="597" y="15"/>
      <point x="626" y="44" type="curve" smooth="yes"/>
      <point x="651" y="69"/>
      <point x="666" y="104"/>
      <point x="666" y="149" type="curve" smooth="yes"/>
    </contour>
    <contour>
      <point x="567" y="142"/>
      <point x="548" y="132"/>
      <point x="509" y="132" type="curve" smooth="yes"/>
      <point x="475" y="132"/>
      <point x="459" y="140"/>
      <point x="445" y="158" type="curve" smooth="yes"/>
      <point x="435" y="171"/>
      <point x="432" y="184"/>
      <point x="430" y="200" type="curve" smooth="yes"/>
      <point x="428" y="217"/>
      <point x="420" y="295"/>
      <point x="418" y="321" type="curve"/>
      <point x="449" y="309"/>
      <point x="479" y="289"/>
      <point x="505" y="267" type="curve" smooth="yes"/>
      <point x="552" y="227"/>
      <point x="585" y="181"/>
      <point x="585" y="166" type="curve"/>
    </contour>
    <contour>
      <point x="596" y="-29" type="move" name="bottom_1"/>
    </contour>
    <contour>
      <point x="286" y="599" type="move" name="top_2"/>
    </contour>
    <contour>
      <point x="490" y="0" type="move" name="caret_2"/>
    </contour>
    <contour>
      <point x="245" y="0" type="move" name="caret_1"/>
    </contour>
    <contour>
      <point x="123" y="-72" type="move" name="bottom_3"/>
    </contour>
    <contour>
      <point x="607" y="599" type="move" name="top_1"/>
    </contour>
    <contour>
      <point x="349" y="-29" type="move" name="bottom_2"/>
    </contour>
    <contour>
      <point x="13" y="588" type="move" name="top_3"/>
    </contour>
  </outline>
</glyph>
<glyph name="uni064306440649" format="1">
  <advance width="902"/>
  <outline>
    <contour>
      <point x="788" y="555"/>
      <point x="645" y="479"/>
      <point x="572" y="413" type="curve"/>
      <point x="566" y="478"/>
      <point x="560" y="543"/>
      <point x="553" y="608" type="curve"/>
      <point x="514" y="566"/>
      <point x="489" y="531"/>
      <point x="457" y="479" type="curve"/>
      <point x="457" y="479"/>
      <point x="483" y="357"/>
      <point x="494" y="275" type="curve" smooth="yes"/>
      <point x="503" y="202"/>
      <point x="507" y="173"/>
      <point x="514" y="121" type="curve"/>
      <point x="487" y="87"/>
      <point x="439" y="67"/>
      <point x="392" y="65" type="curve"/>
      <point x="384" y="37"/>
      <point x="379" y="10"/>
      <point x="379" y="-29" type="curve"/>
      <point x="429" y="-33"/>
      <point x="461" y="-37"/>
      <point x="488" y="-44" type="curve" smooth="yes"/>
      <point x="522" y="-53"/>
      <point x="542" y="-65"/>
      <point x="543" y="-77" type="curve"/>
      <point x="543" y="-108"/>
      <point x="491" y="-130"/>
      <point x="429" y="-144" type="curve" smooth="yes"/>
      <point x="385" y="-153"/>
      <point x="337" y="-158"/>
      <point x="299" y="-158" type="curve" smooth="yes"/>
      <point x="229" y="-158"/>
      <point x="184" y="-138"/>
      <point x="159" y="-108" type="curve" smooth="yes"/>
      <point x="133" y="-77"/>
      <point x="128" y="-34"/>
      <point x="142" y="29" type="curve"/>
      <point x="99" y="44" type="line"/>
      <point x="75" y="-15"/>
      <point x="64" y="-54"/>
      <point x="61" y="-93" type="curve" smooth="yes"/>
      <point x="58" y="-129"/>
      <point x="63" y="-162"/>
      <point x="75" y="-191" type="curve" smooth="yes"/>
      <point x="91" y="-229"/>
      <point x="116" y="-257"/>
      <point x="155" y="-278" type="curve" smooth="yes"/>
      <point x="192" y="-298"/>
      <point x="240" y="-309"/>
      <point x="288" y="-309" type="curve" smooth="yes"/>
      <point x="342" y="-309"/>
      <point x="397" y="-299"/>
      <point x="446" y="-280" type="curve" smooth="yes"/>
      <point x="498" y="-260"/>
      <point x="544" y="-230"/>
      <point x="573" y="-190" type="curve" smooth="yes"/>
      <point x="595" y="-160"/>
      <point x="609" y="-125"/>
      <point x="609" y="-84" type="curve" smooth="yes"/>
      <point x="609" y="-33"/>
      <point x="576" y="0"/>
      <point x="527" y="16" type="curve"/>
      <point x="548" y="34"/>
      <point x="563" y="59"/>
      <point x="569" y="79" type="curve"/>
      <point x="591" y="31"/>
      <point x="637" y="0"/>
      <point x="681" y="0" type="curve" smooth="yes"/>
      <point x="769" y="0"/>
      <point x="823" y="55"/>
      <point x="823" y="149" type="curve" smooth="yes"/>
      <point x="823" y="194"/>
      <point x="811" y="231"/>
      <point x="789" y="273" type="curve" smooth="yes"/>
      <point x="768" y="312"/>
      <point x="736" y="349"/>
      <point x="695" y="382" type="curve"/>
      <point x="746" y="411"/>
      <point x="817" y="445"/>
      <point x="878" y="470" type="curve"/>
      <point x="891" y="521"/>
      <point x="896" y="558"/>
      <point x="902" y="608" type="curve"/>
    </contour>
    <contour>
      <point x="726" y="144"/>
      <point x="707" y="132"/>
      <point x="671" y="132" type="curve"/>
      <point x="641" y="132"/>
      <point x="626" y="140"/>
      <point x="612" y="154" type="curve" smooth="yes"/>
      <point x="597" y="169"/>
      <point x="595" y="190"/>
      <point x="594" y="200" type="curve" smooth="yes"/>
      <point x="590" y="242"/>
      <point x="586" y="283"/>
      <point x="581" y="325" type="curve"/>
      <point x="644" y="298"/>
      <point x="742" y="189"/>
      <point x="742" y="166" type="curve"/>
    </contour>
    <contour>
      <point x="757" y="-56" type="move" name="bottom_1"/>
    </contour>
    <contour>
      <point x="433" y="608" type="move" name="top_2"/>
    </contour>
    <contour>
      <point x="591" y="0" type="move" name="caret_2"/>
    </contour>
    <contour>
      <point x="301" y="0" type="move" name="caret_1"/>
    </contour>
    <contour>
      <point x="298" y="-339" type="move" name="bottom_3"/>
    </contour>
    <contour>
      <point x="775" y="617" type="move" name="top_1"/>
    </contour>
    <contour>
      <point x="562" y="-287" type="move" name="bottom_2"/>
    </contour>
    <contour>
      <point x="259" y="65" type="move" name="top_3"/>
    </contour>
  </outline>
</glyph>
<glyph name="uni0645.alt" format="1">
  <advance width="650"/>
  <outline>
    <contour>
      <point x="592" y="110" type="line"/>
      <point x="601" y="142"/>
      <point x="603" y="186"/>
      <point x="595" y="225" type="curve" smooth="yes"/>
      <point x="590" y="252"/>
      <point x="581" y="277"/>
      <point x="566" y="296" type="curve" smooth="yes"/>
      <point x="548" y="320"/>
      <point x="522" y="333"/>
      <point x="493" y="333" type="curve" smooth="yes"/>
      <point x="461" y="333"/>
      <point x="432" y="318"/>
      <point x="408" y="288" type="curve" smooth="yes"/>
      <point x="394" y="272"/>
      <point x="383" y="252"/>
      <point x="374" y="231" type="curve"/>
      <point x="358" y="241" type="line"/>
      <point x="324" y="131"/>
      <point x="298" y="72"/>
      <point x="180" y="5" type="curve" smooth="yes"/>
      <point x="132" y="-22"/>
      <point x="112" y="-32"/>
      <point x="30" y="-76" type="curve"/>
      <point x="60" y="-119" type="line"/>
      <point x="85" y="-111"/>
      <point x="118" y="-108"/>
      <point x="139" y="-108" type="curve" smooth="yes"/>
      <point x="160" y="-108"/>
      <point x="168" y="-111"/>
      <point x="191" y="-111" type="curve" smooth="yes"/>
      <point x="229" y="-111"/>
      <point x="247" y="-102"/>
      <point x="272" y="-86" type="curve" smooth="yes"/>
      <point x="322" y="-54"/>
      <point x="360" y="9"/>
      <point x="374" y="90" type="curve"/>
      <point x="432" y="55"/>
      <point x="478" y="44"/>
      <point x="552" y="37" type="curve"/>
    </contour>
    <contour>
      <point x="506" y="165"/>
      <point x="463" y="186"/>
      <point x="412" y="211" type="curve"/>
      <point x="412" y="211"/>
      <point x="425" y="245"/>
      <point x="463" y="245" type="curve" smooth="yes"/>
      <point x="492" y="245"/>
      <point x="517" y="226"/>
      <point x="533" y="200" type="curve" smooth="yes"/>
      <point x="542" y="185"/>
      <point x="549" y="168"/>
      <point x="552" y="151" type="curve"/>
    </contour>
    <contour>
      <point x="493" y="363" type="move" name="top"/>
    </contour>
    <contour>
      <point x="439" y="-10" type="move" name="bottom"/>
    </contour>
  </outline>
</glyph>
<glyph name="uni066E062D" format="1">
  <advance width="645"/>
  <outline>
    <contour>
      <point x="484" y="285"/>
      <point x="454" y="292"/>
      <point x="398" y="298" type="curve" smooth="yes"/>
      <point x="336" y="305"/>
      <point x="296" y="307"/>
      <point x="263" y="303" type="curve"/>
      <point x="281" y="313"/>
      <point x="294" y="323"/>
      <point x="305" y="334" type="curve" smooth="yes"/>
      <point x="322" y="351"/>
      <point x="331" y="369"/>
      <point x="337" y="380" type="curve" smooth="yes"/>
      <point x="350" y="403"/>
      <point x="358" y="417"/>
      <point x="373" y="417" type="curve" smooth="yes"/>
      <point x="396" y="417"/>
      <point x="402" y="388"/>
      <point x="381" y="346" type="curve"/>
      <point x="416" y="346" type="line"/>
      <point x="436" y="372"/>
      <point x="448" y="398"/>
      <point x="448" y="433" type="curve" smooth="yes"/>
      <point x="448" y="478"/>
      <point x="428" y="519"/>
      <point x="381" y="519" type="curve" smooth="yes"/>
      <point x="345" y="519"/>
      <point x="323" y="494"/>
      <point x="299" y="464" type="curve" smooth="yes"/>
      <point x="296" y="460"/>
      <point x="264" y="419"/>
      <point x="233" y="392" type="curve" smooth="yes"/>
      <point x="217" y="378"/>
      <point x="191" y="358"/>
      <point x="167" y="345" type="curve" smooth="yes"/>
      <point x="146" y="334"/>
      <point x="120" y="319"/>
      <point x="103" y="288" type="curve" smooth="yes"/>
      <point x="94" y="271"/>
      <point x="88" y="251"/>
      <point x="79" y="211" type="curve"/>
      <point x="108" y="213"/>
      <point x="138" y="215"/>
      <point x="167" y="217" type="curve"/>
      <point x="170" y="217"/>
      <point x="173" y="217"/>
      <point x="176" y="217" type="curve" smooth="yes"/>
      <point x="201" y="217"/>
      <point x="228" y="215"/>
      <point x="253" y="212" type="curve"/>
      <point x="233" y="202"/>
      <point x="185" y="178"/>
      <point x="141" y="127" type="curve" smooth="yes"/>
      <point x="97" y="76"/>
      <point x="60" y="5"/>
      <point x="60" y="-73" type="curve" smooth="yes"/>
      <point x="60" y="-131"/>
      <point x="81" y="-190"/>
      <point x="120" y="-233" type="curve" smooth="yes"/>
      <point x="167" y="-285"/>
      <point x="233" y="-311"/>
      <point x="297" y="-311" type="curve" smooth="yes"/>
      <point x="348" y="-311"/>
      <point x="381" y="-294"/>
      <point x="404" y="-282" type="curve" smooth="yes"/>
      <point x="437" y="-265"/>
      <point x="467" y="-256"/>
      <point x="504" y="-256" type="curve"/>
      <point x="521" y="-207" type="line"/>
      <point x="479" y="-199"/>
      <point x="440" y="-197"/>
      <point x="414" y="-196" type="curve"/>
      <point x="407" y="-196"/>
      <point x="357" y="-193"/>
      <point x="317" y="-186" type="curve" smooth="yes"/>
      <point x="260" y="-176"/>
      <point x="211" y="-155"/>
      <point x="182" y="-121" type="curve" smooth="yes"/>
      <point x="156" y="-91"/>
      <point x="146" y="-50"/>
      <point x="150" y="-12" type="curve" smooth="yes"/>
      <point x="158" y="62"/>
      <point x="215" y="116"/>
      <point x="277" y="146" type="curve" smooth="yes"/>
      <point x="324" y="169"/>
      <point x="378" y="179"/>
      <point x="426" y="179" type="curve" smooth="yes"/>
      <point x="448" y="179"/>
      <point x="468" y="177"/>
      <point x="485" y="175" type="curve"/>
      <point x="505" y="212"/>
      <point x="519" y="248"/>
      <point x="525" y="285" type="curve"/>
    </contour>
    <contour>
      <point x="288" y="0" type="move" name="caret_1"/>
    </contour>
    <contour>
      <point x="523" y="139" type="move" name="bottom_1"/>
    </contour>
    <contour>
      <point x="295" y="-6" type="move" name="center"/>
    </contour>
    <contour>
      <point x="381" y="549" type="move" name="top_1"/>
    </contour>
    <contour>
      <point x="144" y="419" type="move" name="top_2"/>
    </contour>
    <contour>
      <point x="297" y="-341" type="move" name="bottom_2"/>
    </contour>
  </outline>
</glyph>
<glyph name="uni066E062D0649" format="1">
  <advance width="980"/>
  <outline>
    <contour>
      <point x="904" y="271"/>
      <point x="879" y="270"/>
      <point x="855" y="269" type="curve"/>
      <point x="817" y="269"/>
      <point x="780" y="273"/>
      <point x="745" y="278" type="curve" smooth="yes"/>
      <point x="696" y="285"/>
      <point x="651" y="295"/>
      <point x="608" y="296" type="curve"/>
      <point x="668" y="318"/>
      <point x="698" y="356"/>
      <point x="716" y="379" type="curve" smooth="yes"/>
      <point x="730" y="398"/>
      <point x="744" y="418"/>
      <point x="764" y="418" type="curve" smooth="yes"/>
      <point x="790" y="418"/>
      <point x="785" y="388"/>
      <point x="772" y="343" type="curve"/>
      <point x="808" y="343" type="line"/>
      <point x="824" y="367"/>
      <point x="834" y="387"/>
      <point x="838" y="415" type="curve" smooth="yes"/>
      <point x="847" y="472"/>
      <point x="823" y="520"/>
      <point x="769" y="520" type="curve" smooth="yes"/>
      <point x="723" y="520"/>
      <point x="694" y="485"/>
      <point x="658" y="447" type="curve" smooth="yes"/>
      <point x="592" y="378"/>
      <point x="548" y="361"/>
      <point x="508" y="346" type="curve" smooth="yes"/>
      <point x="474" y="332"/>
      <point x="445" y="320"/>
      <point x="425" y="289" type="curve" smooth="yes"/>
      <point x="408" y="264"/>
      <point x="405" y="245"/>
      <point x="403" y="211" type="curve"/>
      <point x="436" y="200" type="line"/>
      <point x="445" y="217"/>
      <point x="464" y="233"/>
      <point x="498" y="228" type="curve" smooth="yes"/>
      <point x="540" y="221"/>
      <point x="587" y="205"/>
      <point x="640" y="186" type="curve"/>
      <point x="599" y="172"/>
      <point x="563" y="156"/>
      <point x="533" y="142" type="curve" smooth="yes"/>
      <point x="491" y="121"/>
      <point x="462" y="103"/>
      <point x="453" y="93" type="curve"/>
      <point x="432" y="72"/>
      <point x="427" y="59"/>
      <point x="418" y="2" type="curve"/>
      <point x="446" y="-3"/>
      <point x="455" y="-5"/>
      <point x="484" y="-12" type="curve"/>
      <point x="514" y="-21"/>
      <point x="543" y="-34"/>
      <point x="543" y="-49" type="curve" smooth="yes"/>
      <point x="543" y="-75"/>
      <point x="495" y="-100"/>
      <point x="428" y="-115" type="curve" smooth="yes"/>
      <point x="390" y="-123"/>
      <point x="347" y="-128"/>
      <point x="303" y="-128" type="curve" smooth="yes"/>
      <point x="234" y="-128"/>
      <point x="185" y="-114"/>
      <point x="159" y="-80" type="curve" smooth="yes"/>
      <point x="130" y="-44"/>
      <point x="129" y="0"/>
      <point x="142" y="57" type="curve"/>
      <point x="99" y="72" type="line"/>
      <point x="78" y="23"/>
      <point x="65" y="-13"/>
      <point x="61" y="-59" type="curve" smooth="yes"/>
      <point x="58" y="-93"/>
      <point x="61" y="-129"/>
      <point x="75" y="-163" type="curve" smooth="yes"/>
      <point x="90" y="-200"/>
      <point x="117" y="-229"/>
      <point x="154" y="-250" type="curve" smooth="yes"/>
      <point x="192" y="-270"/>
      <point x="239" y="-281"/>
      <point x="294" y="-281" type="curve" smooth="yes"/>
      <point x="350" y="-281"/>
      <point x="410" y="-270"/>
      <point x="464" y="-247" type="curve" smooth="yes"/>
      <point x="525" y="-221"/>
      <point x="577" y="-181"/>
      <point x="606" y="-126" type="curve" smooth="yes"/>
      <point x="622" y="-96"/>
      <point x="629" y="-66"/>
      <point x="630" y="-40" type="curve"/>
      <point x="630" y="12"/>
      <point x="603" y="39"/>
      <point x="546" y="60" type="curve"/>
      <point x="569" y="73"/>
      <point x="599" y="87"/>
      <point x="633" y="100" type="curve" smooth="yes"/>
      <point x="686" y="119"/>
      <point x="751" y="140"/>
      <point x="811" y="140" type="curve" smooth="yes"/>
      <point x="867" y="140" type="line"/>
      <point x="899" y="187"/>
      <point x="912" y="217"/>
      <point x="930" y="275" type="curve"/>
    </contour>
    <contour>
      <point x="792" y="20" type="move" name="bottom_1"/>
    </contour>
    <contour>
      <point x="534" y="462" type="move" name="top_2"/>
    </contour>
    <contour>
      <point x="657" y="0" type="move" name="caret_2"/>
    </contour>
    <contour>
      <point x="333" y="0" type="move" name="caret_1"/>
    </contour>
    <contour>
      <point x="304" y="-301" type="move" name="bottom_3"/>
    </contour>
    <contour>
      <point x="769" y="550" type="move" name="top_1"/>
    </contour>
    <contour>
      <point x="651" y="-198" type="move" name="bottom_2"/>
    </contour>
    <contour>
      <point x="246" y="65" type="move" name="top_3"/>
    </contour>
  </outline>
</glyph>
<glyph name="uni066E0631" format="1">
  <advance width="540"/>
  <outline>
    <contour>
      <point x="345" y="334"/>
      <point x="280" y="304"/>
      <point x="262" y="294" type="curve" smooth="yes"/>
      <point x="228" y="276"/>
      <point x="200" y="251"/>
      <point x="182" y="213" type="curve" smooth="yes"/>
      <point x="167" y="182"/>
      <point x="158" y="141"/>
      <point x="163" y="100" type="curve" smooth="yes"/>
      <point x="165" y="83"/>
      <point x="171" y="61"/>
      <point x="171" y="29" type="curve" smooth="yes"/>
      <point x="171" y="-32"/>
      <point x="150" y="-65"/>
      <point x="30" y="-135" type="curve" smooth="yes"/>
      <point x="-30" y="-170"/>
      <point x="-120" y="-217"/>
      <point x="-120" y="-217" type="curve"/>
      <point x="-90" y="-260" type="line"/>
      <point x="-65" y="-252"/>
      <point x="-32" y="-249"/>
      <point x="-11" y="-249" type="curve" smooth="yes"/>
      <point x="10" y="-249"/>
      <point x="17" y="-252"/>
      <point x="42" y="-252" type="curve" smooth="yes"/>
      <point x="84" y="-252"/>
      <point x="117" y="-243"/>
      <point x="153" y="-210" type="curve" smooth="yes"/>
      <point x="179" y="-186"/>
      <point x="201" y="-155"/>
      <point x="222" y="-107" type="curve" smooth="yes"/>
      <point x="241" y="-65"/>
      <point x="251" y="-22"/>
      <point x="254" y="27" type="curve" smooth="yes"/>
      <point x="256" y="61"/>
      <point x="255" y="80"/>
      <point x="245" y="136" type="curve"/>
      <point x="269" y="151"/>
      <point x="332" y="177"/>
      <point x="418" y="177" type="curve" smooth="yes"/>
      <point x="428" y="177"/>
      <point x="437" y="177"/>
      <point x="447" y="176" type="curve"/>
      <point x="474" y="240"/>
      <point x="482" y="279"/>
      <point x="490" y="331" type="curve"/>
      <point x="473" y="333"/>
      <point x="456" y="334"/>
      <point x="439" y="334" type="curve" smooth="yes"/>
    </contour>
    <contour>
      <point x="270" y="0" type="move" name="caret_1"/>
    </contour>
    <contour>
      <point x="382" y="-19" type="move" name="bottom_1"/>
    </contour>
    <contour>
      <point x="391" y="374" type="move" name="top_1"/>
    </contour>
    <contour>
      <point x="130" y="312" type="move" name="top_2"/>
    </contour>
    <contour>
      <point x="17" y="-282" type="move" name="bottom_2"/>
    </contour>
  </outline>
</glyph>
<glyph name="uni066E0645" format="1">
  <advance width="475"/>
  <outline>
    <contour>
      <point x="420" y="111"/>
      <point x="425" y="135"/>
      <point x="425" y="157" type="curve"/>
      <point x="424" y="203"/>
      <point x="398" y="218"/>
      <point x="352" y="217" type="curve" smooth="yes"/>
      <point x="302" y="216"/>
      <point x="250" y="190"/>
      <point x="212" y="151" type="curve" smooth="yes"/>
      <point x="182" y="120"/>
      <point x="155" y="83"/>
      <point x="148" y="41" type="curve"/>
      <point x="110" y="19"/>
      <point x="85" y="-7"/>
      <point x="67" y="-40" type="curve" smooth="yes"/>
      <point x="50" y="-72"/>
      <point x="41" y="-113"/>
      <point x="47" y="-156" type="curve" smooth="yes"/>
      <point x="76" y="-334"/>
      <point x="88" y="-427"/>
      <point x="94" y="-510" type="curve"/>
      <point x="156" y="-484" type="line"/>
      <point x="156" y="-484"/>
      <point x="152" y="-354"/>
      <point x="146" y="-284" type="curve" smooth="yes"/>
      <point x="141" y="-224"/>
      <point x="133" y="-151"/>
      <point x="123" y="-89" type="curve"/>
      <point x="135" y="-79"/>
      <point x="174" y="-66"/>
      <point x="232" y="-66" type="curve" smooth="yes"/>
      <point x="267" y="-66"/>
      <point x="290" y="-70"/>
      <point x="325" y="-83" type="curve"/>
      <point x="350" y="-52"/>
      <point x="364" y="-30"/>
      <point x="376" y="14" type="curve"/>
      <point x="347" y="46"/>
      <point x="289" y="73"/>
      <point x="248" y="86" type="curve"/>
      <point x="261" y="95"/>
      <point x="274" y="104"/>
      <point x="289" y="110" type="curve" smooth="yes"/>
      <point x="304" y="117"/>
      <point x="319" y="122"/>
      <point x="336" y="124" type="curve" smooth="yes"/>
      <point x="369" y="128"/>
      <point x="381" y="111"/>
      <point x="375" y="96" type="curve"/>
      <point x="407" y="96" type="line"/>
    </contour>
    <contour>
      <point x="238" y="0" type="move" name="caret_1"/>
    </contour>
    <contour>
      <point x="304" y="-113" type="move" name="bottom_1"/>
    </contour>
    <contour>
      <point x="332" y="247" type="move" name="top_1"/>
    </contour>
    <contour>
      <point x="87" y="139" type="move" name="top_2"/>
    </contour>
    <contour>
      <point x="125" y="-529" type="move" name="bottom_2"/>
    </contour>
  </outline>
</glyph>
<glyph name="uni066E0649.fina" format="1">
  <advance width="795"/>
  <outline>
    <contour>
      <point x="795" y="139" type="line"/>
      <point x="709" y="140" type="line"/>
      <point x="654" y="140"/>
      <point x="629" y="173"/>
      <point x="604" y="202" type="curve" smooth="yes"/>
      <point x="583" y="226"/>
      <point x="562" y="247"/>
      <point x="525" y="247" type="curve" smooth="yes"/>
      <point x="489" y="247"/>
      <point x="459" y="226"/>
      <point x="428" y="178" type="curve" smooth="yes"/>
      <point x="418" y="163"/>
      <point x="397" y="127"/>
      <point x="385" y="96" type="curve" smooth="yes"/>
      <point x="372" y="63"/>
      <point x="363" y="22"/>
      <point x="376" y="-5" type="curve" smooth="yes"/>
      <point x="385" y="-25"/>
      <point x="411" y="-43"/>
      <point x="450" y="-54" type="curve" smooth="yes"/>
      <point x="476" y="-61"/>
      <point x="504" y="-65"/>
      <point x="524" y="-67" type="curve"/>
      <point x="524" y="-91"/>
      <point x="484" y="-109"/>
      <point x="434" y="-119" type="curve" smooth="yes"/>
      <point x="396" y="-126"/>
      <point x="352" y="-130"/>
      <point x="315" y="-130" type="curve" smooth="yes"/>
      <point x="275" y="-130"/>
      <point x="238" y="-126"/>
      <point x="208" y="-115" type="curve" smooth="yes"/>
      <point x="151" y="-94"/>
      <point x="133" y="-53"/>
      <point x="133" y="-4" type="curve" smooth="yes"/>
      <point x="133" y="16"/>
      <point x="136" y="33"/>
      <point x="142" y="56" type="curve"/>
      <point x="99" y="71" type="line"/>
      <point x="78" y="20"/>
      <point x="60" y="-32"/>
      <point x="60" y="-90" type="curve" smooth="yes"/>
      <point x="60" y="-153"/>
      <point x="81" y="-196"/>
      <point x="117" y="-227" type="curve" smooth="yes"/>
      <point x="158" y="-262"/>
      <point x="219" y="-283"/>
      <point x="292" y="-283" type="curve" smooth="yes"/>
      <point x="342" y="-283"/>
      <point x="388" y="-277"/>
      <point x="429" y="-265" type="curve" smooth="yes"/>
      <point x="482" y="-249"/>
      <point x="527" y="-222"/>
      <point x="558" y="-185" type="curve" smooth="yes"/>
      <point x="589" y="-149"/>
      <point x="607" y="-101"/>
      <point x="607" y="-43" type="curve" smooth="yes"/>
      <point x="607" y="0"/>
      <point x="577" y="21"/>
      <point x="532" y="25" type="curve" smooth="yes"/>
      <point x="508" y="27"/>
      <point x="500" y="28"/>
      <point x="484" y="33" type="curve" smooth="yes"/>
      <point x="465" y="39"/>
      <point x="454" y="51"/>
      <point x="454" y="68" type="curve" smooth="yes"/>
      <point x="454" y="93"/>
      <point x="477" y="118"/>
      <point x="515" y="118" type="curve" smooth="yes"/>
      <point x="565" y="118"/>
      <point x="594" y="82"/>
      <point x="622" y="51" type="curve" smooth="yes"/>
      <point x="645" y="24"/>
      <point x="665" y="0"/>
      <point x="722" y="0" type="curve"/>
      <point x="795" y="0" type="line"/>
    </contour>
    <contour>
      <point x="403" y="0" type="move" name="caret_1"/>
    </contour>
    <contour>
      <point x="574" y="-262" type="move" name="bottom_1"/>
    </contour>
    <contour>
      <point x="521" y="277" type="move" name="top_1"/>
    </contour>
    <contour>
      <point x="236" y="102" type="move" name="top_2"/>
    </contour>
    <contour>
      <point x="302" y="-313" type="move" name="bottom_2"/>
    </contour>
  </outline>
</glyph>
<glyph name="uni0677.fina" format="1">
  <advance width="407"/>
  <outline>
    <contour>
      <point x="129" y="449"/>
      <point x="116" y="446"/>
      <point x="104" y="445" type="curve" smooth="yes"/>
      <point x="89" y="443"/>
      <point x="83" y="442"/>
      <point x="70" y="446" type="curve" smooth="yes"/>
      <point x="51" y="451"/>
      <point x="45" y="460"/>
      <point x="44" y="464" type="curve"/>
      <point x="50" y="467"/>
      <point x="63" y="474"/>
      <point x="80" y="474" type="curve" smooth="yes"/>
      <point x="89" y="474"/>
      <point x="97" y="471"/>
      <point x="106" y="468" type="curve"/>
      <point x="118" y="480" type="line"/>
      <point x="116" y="496"/>
      <point x="105" y="513"/>
      <point x="77" y="513" type="curve" smooth="yes"/>
      <point x="60" y="513"/>
      <point x="44" y="507"/>
      <point x="27" y="494" type="curve" smooth="yes"/>
      <point x="16" y="485"/>
      <point x="6" y="473"/>
      <point x="3" y="469" type="curve" smooth="yes"/>
      <point x="0" y="464"/>
      <point x="-2" y="460"/>
      <point x="-2" y="454" type="curve" smooth="yes"/>
      <point x="-2" y="443"/>
      <point x="5" y="429"/>
      <point x="25" y="421" type="curve"/>
      <point x="13" y="413"/>
      <point x="-4" y="402"/>
      <point x="-11" y="391" type="curve" smooth="yes"/>
      <point x="-15" y="386"/>
      <point x="-15" y="381"/>
      <point x="-14" y="377" type="curve" smooth="yes"/>
      <point x="-11" y="370"/>
      <point x="-6" y="367"/>
      <point x="0" y="367" type="curve" smooth="yes"/>
      <point x="0" y="367"/>
      <point x="27" y="385"/>
      <point x="58" y="395" type="curve" smooth="yes"/>
      <point x="77" y="402"/>
      <point x="98" y="408"/>
      <point x="118" y="409" type="curve"/>
      <point x="128" y="424"/>
      <point x="135" y="434"/>
      <point x="141" y="451" type="curve"/>
    </contour>
    <contour>
      <point x="267" y="441" type="line"/>
      <point x="279" y="467"/>
      <point x="288" y="503"/>
      <point x="261" y="516" type="curve" smooth="yes"/>
      <point x="243" y="526"/>
      <point x="220" y="518"/>
      <point x="200" y="493" type="curve" smooth="yes"/>
      <point x="188" y="479"/>
      <point x="184" y="465"/>
      <point x="187" y="452" type="curve" smooth="yes"/>
      <point x="191" y="436"/>
      <point x="205" y="426"/>
      <point x="215" y="421" type="curve"/>
      <point x="198" y="407"/>
      <point x="174" y="402"/>
      <point x="145" y="406" type="curve"/>
      <point x="136" y="393"/>
      <point x="134" y="383"/>
      <point x="128" y="367" type="curve"/>
      <point x="189" y="364"/>
      <point x="211" y="375"/>
      <point x="225" y="386" type="curve" smooth="yes"/>
      <point x="237" y="393"/>
      <point x="245" y="402"/>
      <point x="250" y="408" type="curve"/>
      <point x="279" y="396" type="line"/>
      <point x="280" y="416"/>
      <point x="280" y="421"/>
      <point x="279" y="436" type="curve"/>
    </contour>
    <contour>
      <point x="230" y="456" type="line" smooth="yes"/>
      <point x="220" y="461"/>
      <point x="215" y="469"/>
      <point x="215" y="474" type="curve" smooth="yes"/>
      <point x="214" y="479"/>
      <point x="218" y="486"/>
      <point x="227" y="489" type="curve" smooth="yes"/>
      <point x="233" y="490"/>
      <point x="238" y="489"/>
      <point x="245" y="483" type="curve" smooth="yes"/>
      <point x="251" y="477"/>
      <point x="252" y="461"/>
      <point x="245" y="449" type="curve"/>
    </contour>
    <component base="uniFEEE"/>
    <contour>
      <point x="145" y="546" type="move" name="top"/>
    </contour>
  </outline>
</glyph>
<glyph name="uni06A1.fina" format="1">
  <advance width="954"/>
  <outline>
    <contour>
      <point x="861" y="139" type="line" smooth="yes"/>
      <point x="851" y="139"/>
      <point x="840" y="138"/>
      <point x="831" y="137" type="curve"/>
      <point x="840" y="167"/>
      <point x="844" y="198"/>
      <point x="844" y="220" type="curve" smooth="yes"/>
      <point x="844" y="259"/>
      <point x="832" y="296"/>
      <point x="816" y="319" type="curve" smooth="yes"/>
      <point x="799" y="344"/>
      <point x="771" y="363"/>
      <point x="739" y="363" type="curve" smooth="yes"/>
      <point x="705" y="363"/>
      <point x="669" y="341"/>
      <point x="640" y="302" type="curve" smooth="yes"/>
      <point x="613" y="266"/>
      <point x="597" y="221"/>
      <point x="597" y="182" type="curve" smooth="yes"/>
      <point x="597" y="168"/>
      <point x="599" y="157"/>
      <point x="603" y="145" type="curve"/>
      <point x="548" y="138"/>
      <point x="498" y="135"/>
      <point x="423" y="135" type="curve" smooth="yes"/>
      <point x="361" y="135"/>
      <point x="307" y="137"/>
      <point x="263" y="144" type="curve" smooth="yes"/>
      <point x="208" y="152"/>
      <point x="180" y="163"/>
      <point x="158" y="179" type="curve" smooth="yes"/>
      <point x="107" y="216"/>
      <point x="112" y="264"/>
      <point x="112" y="264" type="curve"/>
      <point x="65" y="275" type="line"/>
      <point x="65" y="275"/>
      <point x="58" y="229"/>
      <point x="60" y="185" type="curve" smooth="yes"/>
      <point x="64" y="75"/>
      <point x="117" y="26"/>
      <point x="239" y="5" type="curve" smooth="yes"/>
      <point x="288" y="-3"/>
      <point x="339" y="-7"/>
      <point x="409" y="-7" type="curve" smooth="yes"/>
      <point x="494" y="-7"/>
      <point x="570" y="-1"/>
      <point x="629" y="10" type="curve" smooth="yes"/>
      <point x="677" y="19"/>
      <point x="715" y="33"/>
      <point x="750" y="52" type="curve"/>
      <point x="765" y="19"/>
      <point x="801" y="0"/>
      <point x="847" y="0" type="curve" smooth="yes"/>
      <point x="954" y="0" type="line"/>
      <point x="954" y="139" type="line"/>
    </contour>
    <contour>
      <point x="786" y="183"/>
      <point x="764" y="145"/>
      <point x="725" y="145" type="curve" smooth="yes"/>
      <point x="690" y="145"/>
      <point x="665" y="176"/>
      <point x="656" y="189" type="curve"/>
      <point x="659" y="195"/>
      <point x="687" y="246"/>
      <point x="722" y="246" type="curve" smooth="yes"/>
      <point x="757" y="246"/>
      <point x="785" y="194"/>
      <point x="786" y="191" type="curve"/>
    </contour>
    <contour>
      <point x="739" y="393" type="move" name="top"/>
    </contour>
    <contour>
      <point x="423" y="-49" type="move" name="bottom"/>
    </contour>
    <contour>
      <point x="698" y="-120" type="move" name="center"/>
    </contour>
  </outline>
</glyph>
<glyph name="uni06A90627" format="1">
  <advance width="500"/>
  <outline>
    <contour>
      <point x="55" y="414"/>
      <point x="62" y="277"/>
      <point x="62" y="166" type="curve" smooth="yes"/>
      <point x="62" y="98"/>
      <point x="79" y="55"/>
      <point x="115" y="29" type="curve" smooth="yes"/>
      <point x="143" y="9"/>
      <point x="184" y="0"/>
      <point x="237" y="0" type="curve" smooth="yes"/>
      <point x="299" y="0"/>
      <point x="342" y="15"/>
      <point x="371" y="44" type="curve" smooth="yes"/>
      <point x="396" y="69"/>
      <point x="411" y="104"/>
      <point x="411" y="149" type="curve" smooth="yes"/>
      <point x="411" y="211"/>
      <point x="390" y="261"/>
      <point x="356" y="304" type="curve" smooth="yes"/>
      <point x="334" y="332"/>
      <point x="305" y="358"/>
      <point x="273" y="382" type="curve"/>
      <point x="324" y="411"/>
      <point x="395" y="445"/>
      <point x="456" y="470" type="curve"/>
      <point x="469" y="521"/>
      <point x="474" y="558"/>
      <point x="480" y="608" type="curve"/>
      <point x="370" y="558"/>
      <point x="232" y="488"/>
      <point x="152" y="419" type="curve"/>
      <point x="147" y="608" type="line"/>
      <point x="107" y="608" type="line"/>
      <point x="80" y="574"/>
      <point x="62" y="548"/>
      <point x="40" y="511" type="curve"/>
    </contour>
    <contour>
      <point x="185" y="308"/>
      <point x="223" y="287"/>
      <point x="250" y="267" type="curve" smooth="yes"/>
      <point x="307" y="227"/>
      <point x="330" y="181"/>
      <point x="330" y="166" type="curve"/>
      <point x="312" y="142"/>
      <point x="293" y="132"/>
      <point x="244" y="132" type="curve" smooth="yes"/>
      <point x="212" y="132"/>
      <point x="191" y="136"/>
      <point x="173" y="154" type="curve" smooth="yes"/>
      <point x="163" y="164"/>
      <point x="159" y="179"/>
      <point x="158" y="199" type="curve" smooth="yes"/>
      <point x="155" y="320" type="line"/>
    </contour>
    <contour>
      <point x="330" y="589" type="move" name="top_1"/>
    </contour>
    <contour>
      <point x="345" y="0" type="move" name="bottom_1"/>
    </contour>
    <contour>
      <point x="250" y="0" type="move" name="caret_1"/>
    </contour>
    <contour>
      <point x="48" y="608" type="move" name="top_2"/>
    </contour>
    <contour>
      <point x="94" y="0" type="move" name="bottom_2"/>
    </contour>
  </outline>
</glyph>
<glyph name="uniFC49.fina" format="1">
  <advance width="995"/>
  <outline>
    <contour>
      <point x="927" y="139" type="line" smooth="yes"/>
      <point x="911" y="139"/>
      <point x="900" y="144"/>
      <point x="890" y="157" type="curve"/>
      <point x="876" y="178"/>
      <point x="862" y="234"/>
      <point x="839" y="268" type="curve"/>
      <point x="822" y="291"/>
      <point x="798" y="308"/>
      <point x="763" y="308" type="curve" smooth="yes"/>
      <point x="739" y="308"/>
      <point x="717" y="300"/>
      <point x="694" y="281" type="curve"/>
      <point x="679" y="270"/>
      <point x="664" y="254"/>
      <point x="648" y="234" type="curve"/>
      <point x="637" y="244" type="line"/>
      <point x="605" y="208"/>
      <point x="586" y="186"/>
      <point x="562" y="161" type="curve"/>
      <point x="571" y="151" type="line"/>
      <point x="551" y="133"/>
      <point x="523" y="122"/>
      <point x="500" y="113" type="curve" smooth="yes"/>
      <point x="484" y="107"/>
      <point x="469" y="101"/>
      <point x="460" y="95" type="curve" smooth="yes"/>
      <point x="432" y="76"/>
      <point x="430" y="47"/>
      <point x="423" y="2" type="curve" smooth="yes"/>
      <point x="423" y="2"/>
      <point x="454" y="-4"/>
      <point x="480" y="-11" type="curve" smooth="yes"/>
      <point x="511" y="-20"/>
      <point x="543" y="-33"/>
      <point x="543" y="-49" type="curve" smooth="yes"/>
      <point x="543" y="-79"/>
      <point x="492" y="-102"/>
      <point x="429" y="-116" type="curve" smooth="yes"/>
      <point x="388" y="-124"/>
      <point x="342" y="-129"/>
      <point x="301" y="-129" type="curve" smooth="yes"/>
      <point x="232" y="-129"/>
      <point x="184" y="-110"/>
      <point x="159" y="-80" type="curve" smooth="yes"/>
      <point x="129" y="-45"/>
      <point x="130" y="6"/>
      <point x="142" y="57" type="curve"/>
      <point x="99" y="72" type="line"/>
      <point x="79" y="25"/>
      <point x="65" y="-12"/>
      <point x="61" y="-59" type="curve" smooth="yes"/>
      <point x="58" y="-93"/>
      <point x="61" y="-129"/>
      <point x="75" y="-163" type="curve" smooth="yes"/>
      <point x="90" y="-200"/>
      <point x="116" y="-229"/>
      <point x="155" y="-250" type="curve" smooth="yes"/>
      <point x="192" y="-270"/>
      <point x="239" y="-281"/>
      <point x="291" y="-281" type="curve" smooth="yes"/>
      <point x="353" y="-281"/>
      <point x="418" y="-269"/>
      <point x="475" y="-243" type="curve" smooth="yes"/>
      <point x="518" y="-223"/>
      <point x="557" y="-192"/>
      <point x="584" y="-154" type="curve" smooth="yes"/>
      <point x="607" y="-121"/>
      <point x="621" y="-83"/>
      <point x="621" y="-42" type="curve"/>
      <point x="621" y="0"/>
      <point x="604" y="27"/>
      <point x="568" y="46" type="curve"/>
      <point x="586" y="55"/>
      <point x="611" y="72"/>
      <point x="628" y="87" type="curve"/>
      <point x="675" y="46"/>
      <point x="722" y="18"/>
      <point x="789" y="-11" type="curve"/>
      <point x="812" y="11"/>
      <point x="832" y="33"/>
      <point x="842" y="55" type="curve"/>
      <point x="860" y="21"/>
      <point x="891" y="0"/>
      <point x="945" y="0" type="curve" smooth="yes"/>
      <point x="995" y="0" type="line"/>
      <point x="995" y="139" type="line"/>
    </contour>
    <contour>
      <point x="778" y="128"/>
      <point x="716" y="171"/>
      <point x="687" y="196" type="curve"/>
      <point x="693" y="202"/>
      <point x="702" y="209"/>
      <point x="711" y="214" type="curve"/>
      <point x="722" y="220"/>
      <point x="736" y="225"/>
      <point x="749" y="225" type="curve" smooth="yes"/>
      <point x="770" y="225"/>
      <point x="790" y="213"/>
      <point x="801" y="192" type="curve"/>
      <point x="807" y="182"/>
      <point x="811" y="169"/>
      <point x="811" y="154" type="curve" smooth="yes"/>
      <point x="811" y="138"/>
      <point x="806" y="123"/>
      <point x="801" y="113" type="curve"/>
    </contour>
    <contour>
      <point x="502" y="0" type="move" name="caret_1"/>
    </contour>
    <contour>
      <point x="766" y="-50" type="move" name="bottom_1"/>
    </contour>
    <contour>
      <point x="763" y="338" type="move" name="top_1"/>
    </contour>
    <contour>
      <point x="280" y="77" type="move" name="top_2"/>
    </contour>
    <contour>
      <point x="311" y="-311" type="move" name="bottom_2"/>
    </contour>
  </outline>
</glyph>
<glyph name="uniFC53.fina" format="1">
  <advance width="1034"/>
  <outline>
    <contour>
      <point x="887" y="139" type="line" smooth="yes"/>
      <point x="846" y="139"/>
      <point x="806" y="130"/>
      <point x="777" y="107" type="curve" smooth="yes"/>
      <point x="755" y="89"/>
      <point x="738" y="63"/>
      <point x="732" y="27" type="curve"/>
      <point x="684" y="87"/>
      <point x="721" y="169"/>
      <point x="691" y="212" type="curve" smooth="yes"/>
      <point x="675" y="234"/>
      <point x="652" y="246"/>
      <point x="614" y="246" type="curve" smooth="yes"/>
      <point x="571" y="246"/>
      <point x="522" y="230"/>
      <point x="479" y="201" type="curve" smooth="yes"/>
      <point x="435" y="172"/>
      <point x="402" y="134"/>
      <point x="386" y="95" type="curve" smooth="yes"/>
      <point x="371" y="56"/>
      <point x="369" y="27"/>
      <point x="381" y="4" type="curve" smooth="yes"/>
      <point x="394" y="-20"/>
      <point x="419" y="-30"/>
      <point x="444" y="-36" type="curve" smooth="yes"/>
      <point x="472" y="-43"/>
      <point x="500" y="-46"/>
      <point x="514" y="-59" type="curve"/>
      <point x="488" y="-94"/>
      <point x="447" y="-113"/>
      <point x="402" y="-123" type="curve" smooth="yes"/>
      <point x="373" y="-129"/>
      <point x="343" y="-131"/>
      <point x="314" y="-131" type="curve" smooth="yes"/>
      <point x="275" y="-131"/>
      <point x="239" y="-124"/>
      <point x="210" y="-112" type="curve" smooth="yes"/>
      <point x="184" y="-101"/>
      <point x="164" y="-86"/>
      <point x="152" y="-68" type="curve" smooth="yes"/>
      <point x="131" y="-38"/>
      <point x="125" y="7"/>
      <point x="145" y="56" type="curve"/>
      <point x="100" y="72" type="line"/>
      <point x="72" y="13"/>
      <point x="58" y="-43"/>
      <point x="60" y="-99" type="curve" smooth="yes"/>
      <point x="62" y="-152"/>
      <point x="82" y="-197"/>
      <point x="118" y="-228" type="curve" smooth="yes"/>
      <point x="159" y="-265"/>
      <point x="217" y="-283"/>
      <point x="293" y="-283" type="curve" smooth="yes"/>
      <point x="350" y="-283"/>
      <point x="402" y="-273"/>
      <point x="445" y="-252" type="curve" smooth="yes"/>
      <point x="494" y="-230"/>
      <point x="533" y="-195"/>
      <point x="556" y="-149" type="curve" smooth="yes"/>
      <point x="572" y="-119"/>
      <point x="580" y="-83"/>
      <point x="580" y="-43" type="curve" smooth="yes"/>
      <point x="580" y="13"/>
      <point x="549" y="33"/>
      <point x="518" y="44" type="curve" smooth="yes"/>
      <point x="486" y="54"/>
      <point x="454" y="56"/>
      <point x="454" y="79" type="curve"/>
      <point x="454" y="93"/>
      <point x="475" y="109"/>
      <point x="505" y="120" type="curve" smooth="yes"/>
      <point x="530" y="130"/>
      <point x="561" y="137"/>
      <point x="590" y="137" type="curve" smooth="yes"/>
      <point x="627" y="137"/>
      <point x="641" y="111"/>
      <point x="639" y="62" type="curve"/>
      <point x="639" y="13"/>
      <point x="649" y="-36"/>
      <point x="670" y="-80" type="curve" smooth="yes"/>
      <point x="690" y="-124"/>
      <point x="721" y="-162"/>
      <point x="763" y="-189" type="curve"/>
      <point x="796" y="-160"/>
      <point x="819" y="-136"/>
      <point x="847" y="-101" type="curve"/>
      <point x="830" y="-83"/>
      <point x="817" y="-69"/>
      <point x="811" y="-43" type="curve" smooth="yes"/>
      <point x="808" y="-29"/>
      <point x="806" y="-14"/>
      <point x="813" y="2" type="curve" smooth="yes"/>
      <point x="820" y="19"/>
      <point x="839" y="33"/>
      <point x="866" y="33" type="curve" smooth="yes"/>
      <point x="886" y="33"/>
      <point x="899" y="25"/>
      <point x="911" y="18" type="curve" smooth="yes"/>
      <point x="930" y="7"/>
      <point x="941" y="0"/>
      <point x="980" y="0" type="curve" smooth="yes"/>
      <point x="1034" y="0" type="line"/>
      <point x="1034" y="139" type="line"/>
    </contour>
    <contour>
      <point x="522" y="0" type="move" name="caret_1"/>
    </contour>
    <contour>
      <point x="763" y="-209" type="move" name="bottom_1"/>
    </contour>
    <contour>
      <point x="797" y="257" type="move" name="top_1"/>
    </contour>
    <contour>
      <point x="458" y="280" type="move" name="top_2"/>
    </contour>
    <contour>
      <point x="303" y="-303" type="move" name="bottom_2"/>
    </contour>
  </outline>
</glyph>
